SplineFontDB: 3.0
FontName: Butchermann-Caps
FullName: Butchermann-Caps
FamilyName: Butchermann-Caps
Weight: Book
Copyright: Copyright (c) 2011 by Typomondo. All rights reserved.
Version: 1.000
ItalicAngle: 0
UnderlinePosition: -103
UnderlineWidth: 102
Ascent: 1638
Descent: 410
sfntRevision: 0x00010000
LayerCount: 2
Layer: 0 1 "Back"  1
Layer: 1 1 "Fore"  0
NeedsXUIDChange: 1
XUID: [1021 14 500265001 2435846]
FSType: 0
OS2Version: 3
OS2_WeightWidthSlopeOnly: 0
OS2_UseTypoMetrics: 1
CreationTime: 1319269805
ModificationTime: 1319695769
PfmFamily: 17
TTFWeight: 400
TTFWidth: 5
LineGap: 0
VLineGap: 0
Panose: 2 0 0 0 0 0 0 0 0 0
OS2TypoAscent: 900
OS2TypoAOffset: 1
OS2TypoDescent: -953
OS2TypoDOffset: 1
OS2TypoLinegap: 0
OS2WinAscent: 0
OS2WinAOffset: 1
OS2WinDescent: 0
OS2WinDOffset: 1
HheadAscent: 0
HheadAOffset: 1
HheadDescent: 0
HheadDOffset: 1
OS2SubXSize: 1331
OS2SubYSize: 1228
OS2SubXOff: 0
OS2SubYOff: 153
OS2SupXSize: 1331
OS2SupYSize: 1228
OS2SupXOff: 0
OS2SupYOff: 716
OS2StrikeYSize: 102
OS2StrikeYPos: 754
OS2Vendor: 'typm'
OS2CodePages: 00000001.00000000
OS2UnicodeRanges: 00000003.00000000.00000000.00000000
Lookup: 4 0 1 "'liga' Standard Ligatures in Latin lookup 0"  {"'liga' Standard Ligatures in Latin lookup 0 subtable"  } ['liga' ('DFLT' <'dflt' > 'latn' <'dflt' > ) ]
MarkAttachClasses: 1
DEI: 91125
MacFeat: 0 0 0
MacName: 0 0 24 "All Typographic Features"
MacName: 0 1 24 "Fonctions typographiques"
MacName: 0 2 32 "Alle typografischen Mglichkeiten"
MacName: 0 3 21 "Funzioni Tipografiche"
MacName: 0 4 28 "Alle typografische kenmerken"
MacSetting: 0
MacName: 0 0 17 "All Type Features"
MacName: 0 1 31 "Toutes fonctions typographiques"
MacName: 0 2 23 "Alle Auszeichnungsarten"
MacName: 0 3 17 "Tutte le Funzioni"
MacName: 0 4 18 "Alle typekenmerken"
MacFeat: 1 0 0
MacName: 0 0 9 "Ligatures"
MacName: 0 1 9 "Ligatures"
MacName: 0 2 9 "Ligaturen"
MacName: 0 3 8 "Legature"
MacName: 0 4 9 "Ligaturen"
MacSetting: 2
MacName: 0 0 16 "Common Ligatures"

StartChar: .notdef
Encoding: 65536 -1 0
Width: 748
Flags: W
LayerCount: 2
Fore
SplineSet
136 68 m 1,0,-1
 544 68 l 1,1,-1
 544 1297 l 1,2,-1
 136 1297 l 1,3,-1
 136 68 l 1,0,-1
68 0 m 1,4,-1
 68 1365 l 1,5,-1
 612 1365 l 1,6,-1
 612 0 l 1,7,-1
 68 0 l 1,4,-1
EndSplineSet
EndChar

StartChar: exclam
Encoding: 33 33 6
Width: 718
GlyphClass: 2
Flags: W
LayerCount: 2
Fore
SplineSet
250 959 m 0,0,1
 219 959 219 959 219 1190 c 1,2,-1
 221 1330 l 2,3,4
 224 1596 224 1596 103 1916 c 1,5,6
 120 1949 120 1949 123.5 2015.5 c 128,-1,7
 127 2082 127 2082 134 2106 c 1,8,-1
 158 2121 l 1,9,-1
 160 2127 l 1,10,11
 160 2143 160 2143 133.5 2179.5 c 128,-1,12
 107 2216 107 2216 84 2242 c 1,13,14
 72 2353 72 2353 45 2443 c 1,15,-1
 54 2458 l 1,16,-1
 82 2457 l 1,17,18
 119 2457 119 2457 195.5 2495 c 128,-1,19
 272 2533 272 2533 307 2538 c 1,20,-1
 300 2492 l 1,21,22
 329 2503 329 2503 386 2503.5 c 128,-1,23
 443 2504 443 2504 462 2507 c 1,24,25
 484 2494 484 2494 555 2475 c 128,-1,26
 626 2456 626 2456 641 2441 c 1,27,-1
 639 2362 l 1,28,-1
 659 2352 l 1,29,30
 637 2330 637 2330 611 2280 c 128,-1,31
 585 2230 585 2230 569 2211 c 1,32,-1
 596 2165 l 1,33,34
 573 2095 573 2095 558 1928 c 128,-1,35
 543 1761 543 1761 508 1679 c 1,36,37
 511 1662 511 1662 525.5 1625 c 128,-1,38
 540 1588 540 1588 540 1565 c 1,39,-1
 536 1538 l 1,40,41
 519 1518 519 1518 519 1495 c 0,42,43
 519 1493 519 1493 522 1472 c 1,44,-1
 501 1497 l 1,45,46
 501 1457 501 1457 525 1400 c 1,47,-1
 510 1402 l 2,48,49
 504 1402 504 1402 498.5 1399 c 128,-1,50
 493 1396 493 1396 486.5 1390.5 c 128,-1,51
 480 1385 480 1385 477 1383 c 1,52,53
 508 1383 508 1383 508 1255 c 0,54,55
 508 1226 508 1226 505.5 1185.5 c 128,-1,56
 503 1145 503 1145 491.5 1080 c 128,-1,57
 480 1015 480 1015 460 981 c 1,58,59
 501 968 501 968 501 923 c 2,60,-1
 501 913 l 1,61,-1
 460 947 l 1,62,-1
 459 938 l 1,63,-1
 432 934 l 1,64,65
 411 934 411 934 390.5 942.5 c 128,-1,66
 370 951 370 951 370 969 c 2,67,-1
 370 975 l 1,68,69
 351 975 351 975 310 967 c 128,-1,70
 269 959 269 959 250 959 c 0,0,1
309 100 m 1,71,72
 307 100 307 100 301 99 c 128,-1,73
 295 98 295 98 292 98 c 0,74,75
 286 98 286 98 274 99 c 128,-1,76
 262 100 262 100 256 100 c 0,77,78
 206 100 206 100 195 77 c 1,79,80
 194 80 194 80 191 87.5 c 128,-1,81
 188 95 188 95 186.5 97 c 128,-1,82
 185 99 185 99 180.5 102 c 128,-1,83
 176 105 176 105 169 106 c 1,84,85
 158 82 158 82 140 82 c 2,86,-1
 134 82 l 1,87,88
 147 231 147 231 147 292 c 0,89,90
 147 352 147 352 134 515 c 1,91,-1
 132 515 l 2,92,93
 117 515 117 515 106 562.5 c 128,-1,94
 95 610 95 610 91 610 c 1,95,-1
 90 608 l 1,96,97
 87 627 87 627 73 642.5 c 128,-1,98
 59 658 59 658 42 659 c 1,99,-1
 66 675 l 1,100,101
 84 671 84 671 91 671 c 0,102,103
 117 671 117 671 128 697 c 1,104,-1
 279 704 l 1,105,106
 290 716 290 716 320 716 c 2,107,-1
 348 716 l 2,108,109
 369 716 369 716 411 723 c 128,-1,110
 453 730 453 730 475 730 c 0,111,112
 519 730 519 730 573 712 c 1,113,114
 579 716 579 716 582 716 c 0,115,116
 590 716 590 716 607 707 c 128,-1,117
 624 698 624 698 631 697 c 1,118,119
 623 659 623 659 618 589 c 128,-1,120
 613 519 613 519 610 495 c 1,121,122
 611 493 611 493 614 488 c 128,-1,123
 617 483 617 483 619 478.5 c 128,-1,124
 621 474 621 474 621 470 c 1,125,-1
 608 464 l 1,126,127
 617 451 617 451 639 447 c 1,128,-1
 615 123 l 1,129,130
 610 123 610 123 601 124 c 128,-1,131
 592 125 592 125 587 125 c 0,132,133
 578 125 578 125 536 108 c 1,134,135
 529 112 529 112 527 117 c 128,-1,136
 525 122 525 122 525 125 c 128,-1,137
 525 128 525 128 519.5 130.5 c 128,-1,138
 514 133 514 133 501 133 c 0,139,140
 460 133 460 133 391.5 124 c 128,-1,141
 323 115 323 115 309 100 c 1,71,72
EndSplineSet
EndChar

StartChar: quotedbl
Encoding: 34 34 7
Width: 1109
GlyphClass: 2
Flags: W
LayerCount: 2
Fore
SplineSet
301 772 m 1,0,-1
 299 772 l 2,1,2
 290 772 290 772 290 755 c 1,3,-1
 275 772 l 1,4,5
 257 752 257 752 242 750 c 1,6,7
 202 862 202 862 164.5 1093.5 c 128,-1,8
 127 1325 127 1325 89 1434 c 1,9,10
 96 1434 96 1434 98 1438 c 128,-1,11
 100 1442 100 1442 99.5 1446.5 c 128,-1,12
 99 1451 99 1451 97.5 1457.5 c 128,-1,13
 96 1464 96 1464 96 1467 c 1,14,15
 98 1470 98 1470 112 1482.5 c 128,-1,16
 126 1495 126 1495 129 1503 c 1,17,18
 244 1498 244 1498 270 1498 c 0,19,20
 282 1498 282 1498 305.5 1504.5 c 128,-1,21
 329 1511 329 1511 341 1511 c 0,22,23
 363 1511 363 1511 414.5 1500 c 128,-1,24
 466 1489 466 1489 495 1492 c 1,25,-1
 493 1412 l 1,26,27
 489 1399 489 1399 488.5 1342.5 c 128,-1,28
 488 1286 488 1286 484 1238.5 c 128,-1,29
 480 1191 480 1191 468 1188 c 1,30,31
 457 1121 457 1121 443 984.5 c 128,-1,32
 429 848 429 848 419 781 c 1,33,-1
 408 794 l 1,34,-1
 391 794 l 2,35,36
 383 794 383 794 367 786 c 128,-1,37
 351 778 351 778 344 777 c 1,38,-1
 359 799 l 1,39,40
 314 799 314 799 301 772 c 1,0,-1
732 801 m 1,41,42
 732 905 732 905 711 1015 c 128,-1,43
 690 1125 690 1125 652.5 1260 c 128,-1,44
 615 1395 615 1395 600 1467 c 1,45,46
 603 1471 603 1471 611 1477.5 c 128,-1,47
 619 1484 619 1484 623.5 1490 c 128,-1,48
 628 1496 628 1496 631 1503 c 1,49,50
 645 1503 645 1503 674.5 1499.5 c 128,-1,51
 704 1496 704 1496 718 1496 c 0,52,53
 737 1496 737 1496 778 1507 c 128,-1,54
 819 1518 819 1518 839 1518 c 0,55,56
 862 1518 862 1518 912 1501.5 c 128,-1,57
 962 1485 962 1485 991 1489 c 1,58,59
 998 1464 998 1464 998 1434 c 0,60,61
 998 1391 998 1391 987 1299.5 c 128,-1,62
 976 1208 976 1208 963 1201 c 1,63,64
 962 1152 962 1152 955.5 1094 c 128,-1,65
 949 1036 949 1036 942.5 1000.5 c 128,-1,66
 936 965 936 965 921.5 891.5 c 128,-1,67
 907 818 907 818 902 794 c 1,68,-1
 883 794 l 2,69,70
 873 794 873 794 856.5 786 c 128,-1,71
 840 778 840 778 832 777 c 1,72,-1
 848 799 l 1,73,74
 798 799 798 799 788 772 c 1,75,-1
 786 772 l 1,76,-1
 776 755 l 1,77,-1
 762 772 l 1,78,79
 744 752 744 752 731 750 c 1,80,-1
 732 801 l 1,41,42
EndSplineSet
EndChar

StartChar: numbersign
Encoding: 35 35 8
Width: 1195
GlyphClass: 2
Flags: W
LayerCount: 2
Fore
SplineSet
361 444 m 1,0,-1
 375 444 l 1,1,2
 390 431 390 431 401 431 c 0,3,4
 445 428 445 428 531.5 434 c 128,-1,5
 618 440 618 440 665 437 c 1,6,-1
 725 805 l 1,7,-1
 718 806 l 1,8,-1
 719 801 l 1,9,-1
 688 799 l 1,10,-1
 684 806 l 2,11,12
 683 806 683 806 678.5 806 c 128,-1,13
 674 806 674 806 673 806 c 128,-1,14
 672 806 672 806 668.5 806.5 c 128,-1,15
 665 807 665 807 664 807.5 c 128,-1,16
 663 808 663 808 660.5 809 c 128,-1,17
 658 810 658 810 657 812 c 128,-1,18
 656 814 656 814 655 817 c 128,-1,19
 654 820 654 820 653.5 823.5 c 128,-1,20
 653 827 653 827 653 832 c 1,21,-1
 684 811 l 1,22,-1
 688 832 l 1,23,-1
 653 832 l 1,24,-1
 655 842 l 1,25,-1
 622 837 l 1,26,-1
 617 811 l 1,27,28
 553 803 553 803 461 803 c 1,29,-1
 398 600 l 1,30,-1
 394 592 l 1,31,32
 399 577 399 577 399 551 c 1,33,34
 398 537 398 537 391.5 518 c 128,-1,35
 385 499 385 499 373.5 472 c 128,-1,36
 362 445 362 445 361 444 c 1,0,-1
812 442 m 1,37,-1
 811 444 l 1,38,-1
 809 459 l 1,39,-1
 806 440 l 1,40,-1
 1010 447 l 1,41,-1
 942 353 l 1,42,-1
 934 353 l 1,43,-1
 947 330 l 1,44,-1
 934 332 l 1,45,46
 927 315 927 315 925.5 296.5 c 128,-1,47
 924 278 924 278 926 263.5 c 128,-1,48
 928 249 928 249 926 228 c 1,49,50
 926 197 926 197 918 182 c 1,51,-1
 798 174 l 1,52,-1
 799 189 l 1,53,54
 792 212 792 212 772 212 c 1,55,-1
 764 211 l 1,56,-1
 796 195 l 1,57,58
 787 195 787 195 770 193 c 128,-1,59
 753 191 753 191 747 191 c 1,60,61
 746 170 746 170 719.5 83.5 c 128,-1,62
 693 -3 693 -3 695 -12 c 1,63,64
 695 -32 695 -32 686 -46 c 1,65,66
 687 -79 687 -79 669.5 -137.5 c 128,-1,67
 652 -196 652 -196 650 -209 c 1,68,69
 639 -207 639 -207 616 -198.5 c 128,-1,70
 593 -190 593 -190 574 -186 c 128,-1,71
 555 -182 555 -182 538 -186 c 1,72,73
 536 -183 536 -183 536 -175 c 0,74,75
 534 -122 534 -122 543 -70 c 128,-1,76
 552 -18 552 -18 562.5 13 c 128,-1,77
 573 44 573 44 595 101 c 128,-1,78
 617 158 617 158 627 185 c 1,79,-1
 617 191 l 1,80,81
 600 191 600 191 570 183 c 1,82,-1
 574 178 l 1,83,-1
 542 176 l 1,84,-1
 537 183 l 1,85,86
 534 183 534 183 528.5 182.5 c 128,-1,87
 523 182 523 182 520 182 c 128,-1,88
 517 182 517 182 513.5 183.5 c 128,-1,89
 510 185 510 185 508.5 189.5 c 128,-1,90
 507 194 507 194 507 201 c 1,91,-1
 537 185 l 1,92,-1
 542 201 l 1,93,-1
 507 201 l 1,94,-1
 509 207 l 1,95,-1
 475 205 l 1,96,-1
 472 185 l 1,97,98
 409 175 409 175 290 183 c 1,99,100
 263 50 263 50 230 -2 c 1,101,-1
 242 -7 l 1,102,103
 242 -32 242 -32 232 -46 c 1,104,105
 231 -74 231 -74 225 -99 c 128,-1,106
 219 -124 219 -124 208.5 -154.5 c 128,-1,107
 198 -185 198 -185 193 -204 c 1,108,-1
 189 -205 l 1,109,-1
 177 -178 l 1,110,-1
 156 -165 l 1,111,-1
 168 -122 l 1,112,-1
 164 -113 l 1,113,114
 153 -117 153 -117 132 -138.5 c 128,-1,115
 111 -160 111 -160 96 -165 c 1,116,-1
 101 -155 l 1,117,118
 93 -161 93 -161 87 -158 c 128,-1,119
 81 -155 81 -155 78 -151 c 128,-1,120
 75 -147 75 -147 73 -139 c 128,-1,121
 71 -131 71 -131 70.5 -124.5 c 128,-1,122
 70 -118 70 -118 70 -111 c 0,123,124
 72 -1 72 -1 175 192 c 1,125,-1
 131 214 l 1,126,127
 124 192 124 192 101 192 c 0,128,129
 72 192 72 192 17 214 c 1,130,-1
 24 450 l 1,131,-1
 199 439 l 1,132,-1
 306 834 l 1,133,-1
 286 849 l 1,134,135
 286 836 286 836 277.5 829 c 128,-1,136
 269 822 269 822 258 822 c 0,137,138
 243 822 243 822 229.5 825.5 c 128,-1,139
 216 829 216 829 197.5 836.5 c 128,-1,140
 179 844 179 844 170 847 c 1,141,-1
 179 1174 l 1,142,-1
 413 1174 l 1,143,-1
 413 1296 l 1,144,145
 435 1337 435 1337 466.5 1440.5 c 128,-1,146
 498 1544 498 1544 520 1594 c 1,147,-1
 530 1580 l 1,148,149
 547 1580 547 1580 575 1594 c 1,150,-1
 585 1584 l 1,151,-1
 601 1594 l 1,152,-1
 643 1586 l 1,153,154
 625 1518 625 1518 601 1393 c 128,-1,155
 577 1268 577 1268 565 1217 c 1,156,-1
 572 1219 l 1,157,158
 572 1209 572 1209 570 1197.5 c 128,-1,159
 568 1186 568 1186 564 1172 c 128,-1,160
 560 1158 560 1158 559 1152 c 1,161,162
 613 1164 613 1164 718 1166 c 128,-1,163
 823 1168 823 1168 866 1176 c 1,164,165
 866 1255 866 1255 864 1310 c 1,166,167
 869 1328 869 1328 894.5 1382.5 c 128,-1,168
 920 1437 920 1437 933 1484.5 c 128,-1,169
 946 1532 946 1532 938 1568 c 1,170,-1
 995 1614 l 1,171,-1
 1012 1596 l 1,172,-1
 977 1582 l 1,173,-1
 988 1580 l 1,174,175
 1005 1580 1005 1580 1037 1594 c 1,176,-1
 1049 1584 l 1,177,-1
 1067 1594 l 1,178,-1
 1113 1586 l 1,179,180
 1103 1509 1103 1509 1069.5 1390.5 c 128,-1,181
 1036 1272 1036 1272 1028 1229 c 1,182,-1
 1033 1219 l 1,183,-1
 1019 1164 l 1,184,-1
 1177 1158 l 1,185,-1
 1105 1041 l 1,186,-1
 1102 1041 l 1,187,-1
 1114 1012 l 1,188,-1
 1102 1013 l 1,189,190
 1097 993 1097 993 1095.5 969.5 c 128,-1,191
 1094 946 1094 946 1093 917 c 128,-1,192
 1092 888 1092 888 1091 870 c 1,193,194
 1097 834 1097 834 1086 805 c 1,195,-1
 956 803 l 1,196,197
 947 844 947 844 924 847 c 1,198,-1
 922 839 l 1,199,-1
 947 824 l 1,200,-1
 917 822 l 1,201,-1
 868 613 l 1,202,-1
 857 618 l 1,203,-1
 845 592 l 1,204,205
 851 574 851 574 851 551 c 1,206,207
 852 529 852 529 833.5 491.5 c 128,-1,208
 815 454 815 454 812 442 c 1,37,-1
EndSplineSet
EndChar

StartChar: dollar
Encoding: 36 36 9
Width: 1094
GlyphClass: 2
Flags: W
LayerCount: 2
Fore
SplineSet
385 0 m 1,0,-1
 385 -63 l 1,1,-1
 358 -81 l 1,2,3
 336 -38 336 -38 295 -38 c 1,4,5
 293 -36 293 -36 271 -5.5 c 128,-1,6
 249 25 249 25 239 39.5 c 128,-1,7
 229 54 229 54 209 85 c 128,-1,8
 189 116 189 116 179 136 c 128,-1,9
 169 156 169 156 160.5 180.5 c 128,-1,10
 152 205 152 205 152 223 c 0,11,12
 152 238 152 238 131 238 c 2,13,-1
 115 238 l 1,14,15
 126 269 126 269 153 290.5 c 128,-1,16
 180 312 180 312 210 312 c 2,17,-1
 477 310 l 1,18,-1
 495 284 l 1,19,-1
 495 195 l 1,20,-1
 531 168 l 1,21,-1
 550 168 l 1,22,23
 580 189 580 189 639 261 c 1,24,-1
 621 284 l 1,25,-1
 621 309 l 1,26,-1
 604 330 l 1,27,-1
 604 377 l 1,28,-1
 548 373 l 2,29,30
 532 372 532 372 501 388.5 c 128,-1,31
 470 405 470 405 450 404 c 0,32,33
 436 404 436 404 423 399 c 1,34,35
 382 422 382 422 368 447 c 1,36,-1
 350 424 l 1,37,38
 277 464 277 464 232 496.5 c 128,-1,39
 187 529 187 529 129 586 c 1,40,41
 125 604 125 604 113.5 654.5 c 128,-1,42
 102 705 102 705 97.5 728.5 c 128,-1,43
 93 752 93 752 86 792.5 c 128,-1,44
 79 833 79 833 76 867 c 128,-1,45
 73 901 73 901 73 936 c 0,46,47
 73 962 73 962 81 1020 c 128,-1,48
 89 1078 89 1078 89 1102 c 2,49,-1
 89 1122 l 1,50,-1
 155 1231 l 1,51,52
 155 1280 155 1280 190.5 1326.5 c 128,-1,53
 226 1373 226 1373 278 1404 c 128,-1,54
 330 1435 330 1435 381.5 1455.5 c 128,-1,55
 433 1476 433 1476 470 1480 c 1,56,57
 475 1485 475 1485 493 1520 c 1,58,-1
 463 1650 l 1,59,60
 472 1688 472 1688 476 1779.5 c 128,-1,61
 480 1871 480 1871 485 1902 c 1,62,-1
 484 1923 l 1,63,-1
 517 1993 l 1,64,-1
 533 1981 l 1,65,-1
 504 1957 l 1,66,-1
 508 1957 l 2,67,68
 514 1957 514 1957 521 1960.5 c 128,-1,69
 528 1964 528 1964 533 1967.5 c 128,-1,70
 538 1971 538 1971 545.5 1978.5 c 128,-1,71
 553 1986 553 1986 555 1987 c 1,72,73
 555 1979 555 1979 561 1979 c 0,74,75
 572 1979 572 1979 582 1994 c 1,76,-1
 623 2002 l 1,77,78
 618 1980 618 1980 618 1957 c 0,79,80
 618 1936 618 1936 623.5 1897 c 128,-1,81
 629 1858 629 1858 629 1835 c 0,82,83
 629 1756 629 1756 606 1628 c 1,84,-1
 634 1625 l 1,85,86
 634 1621 634 1621 635 1614 c 128,-1,87
 636 1607 636 1607 636 1604 c 0,88,89
 636 1582 636 1582 621 1510 c 1,90,91
 688 1508 688 1508 738 1485 c 128,-1,92
 788 1462 788 1462 860 1408 c 1,93,-1
 866 1419 l 1,94,95
 882 1400 882 1400 942 1345.5 c 128,-1,96
 1002 1291 1002 1291 1026 1251 c 1,97,-1
 1026 1234 l 1,98,-1
 1005 1234 l 1,99,100
 1013 1191 1013 1191 1013 1135 c 0,101,102
 1013 1073 1013 1073 998.5 951 c 128,-1,103
 984 829 984 829 984 768 c 0,104,105
 984 740 984 740 995.5 731.5 c 128,-1,106
 1007 723 1007 723 1007 710 c 0,107,108
 1007 704 1007 704 1005 702 c 2,109,-1
 986 676 l 1,110,-1
 905 727 l 1,111,-1
 886 726 l 1,112,-1
 866 702 l 1,113,-1
 803 750 l 1,114,-1
 805 726 l 1,115,116
 772 726 772 726 728 721.5 c 128,-1,117
 684 717 684 717 673 717 c 0,118,119
 645 717 645 717 633 733.5 c 128,-1,120
 621 750 621 750 621 796 c 0,121,122
 621 824 621 824 623 842 c 1,123,-1
 604 817 l 1,124,-1
 568 865 l 1,125,-1
 531 865 l 1,126,-1
 495 842 l 1,127,-1
 495 817 l 1,128,-1
 477 793 l 1,129,130
 480 757 480 757 504.5 716.5 c 128,-1,131
 529 676 529 676 555 676 c 1,132,-1
 550 656 l 1,133,-1
 566 676 l 1,134,-1
 592 679 l 1,135,136
 709 679 709 679 806.5 582.5 c 128,-1,137
 904 486 904 486 917 349 c 1,138,-1
 924 261 l 1,139,-1
 905 261 l 1,140,-1
 924 238 l 1,141,142
 919 212 919 212 871 148.5 c 128,-1,143
 823 85 823 85 823 51 c 0,144,145
 823 42 823 42 824 38 c 1,146,-1
 788 -35 l 1,147,148
 781 -28 781 -28 775 -28 c 128,-1,149
 769 -28 769 -28 764 -40.5 c 128,-1,150
 759 -53 759 -53 754 -53 c 2,151,-1
 752 -53 l 1,152,-1
 710 -18 l 1,153,-1
 637 -65 l 1,154,155
 637 -63 637 -63 639 -56.5 c 128,-1,156
 641 -50 641 -50 641 -48 c 128,-1,157
 641 -46 641 -46 639 -46 c 0,158,159
 635 -46 635 -46 628 -51 c 128,-1,160
 621 -56 621 -56 617 -56 c 2,161,-1
 612 -56 l 1,162,163
 602 -127 602 -127 602 -217 c 0,164,165
 602 -255 602 -255 605 -328.5 c 128,-1,166
 608 -402 608 -402 608 -442 c 0,167,168
 608 -466 608 -466 603 -511.5 c 128,-1,169
 598 -557 598 -557 598 -561 c 1,170,171
 584 -534 584 -534 561 -521 c 1,172,-1
 561 -488 l 1,173,-1
 517 -551 l 1,174,-1
 517 -525 l 2,175,176
 517 -524 517 -524 518 -519.5 c 128,-1,177
 519 -515 519 -515 519 -513 c 0,178,179
 519 -512 519 -512 517 -512 c 1,180,-1
 511 -541 l 1,181,182
 506 -548 506 -548 495 -548 c 0,183,184
 479 -548 479 -548 469.5 -468 c 128,-1,185
 460 -388 460 -388 460 -346 c 0,186,187
 460 -297 460 -297 476.5 -197 c 128,-1,188
 493 -97 493 -97 493 -46 c 2,189,-1
 493 -38 l 1,190,-1
 439 -38 l 1,191,-1
 439 -35 l 1,192,193
 437 -35 437 -35 431.5 -40.5 c 128,-1,194
 426 -46 426 -46 423 -46 c 0,195,196
 419 -46 419 -46 414 -33 c 128,-1,197
 409 -20 409 -20 407 -20 c 1,198,-1
 405 -22 l 1,199,-1
 385 0 l 1,0,-1
EndSplineSet
EndChar

StartChar: percent
Encoding: 37 37 10
Width: 1697
GlyphClass: 2
Flags: W
LayerCount: 2
Fore
SplineSet
1183 727 m 1,0,-1
 1169 727 l 1,1,-1
 1172 735 l 1,2,-1
 1183 727 l 1,0,-1
530 1390 m 128,-1,4
 530 1389 530 1389 528 1389 c 2,5,-1
 521 1389 l 1,6,-1
 526 1397 l 1,7,8
 526 1395 526 1395 528 1393 c 128,-1,3
 530 1391 530 1391 530 1390 c 128,-1,4
1424 416 m 1,9,-1
 1413 428 l 1,10,-1
 1413 440 l 1,11,12
 1395 448 1395 448 1391 452.5 c 128,-1,13
 1387 457 1387 457 1388 464 c 1,14,-1
 1388 503 l 2,15,16
 1388 531 1388 531 1387 541 c 1,17,18
 1387 564 1387 564 1386.5 587.5 c 128,-1,19
 1386 611 1386 611 1386 618 c 128,-1,20
 1386 625 1386 625 1385 635 c 128,-1,21
 1384 645 1384 645 1382 650 c 128,-1,22
 1380 655 1380 655 1376 666 c 1,23,-1
 1376 653 l 1,24,-1
 1375 653 l 1,25,26
 1370 623 1370 623 1370 460 c 1,27,-1
 1371 452 l 1,28,-1
 1370 452 l 1,29,-1
 1301 416 l 1,30,31
 1301 413 1301 413 1321 358.5 c 128,-1,32
 1341 304 1341 304 1344 300 c 1,33,34
 1346 300 1346 300 1352.5 301.5 c 128,-1,35
 1359 303 1359 303 1361 303.5 c 128,-1,36
 1363 304 1363 304 1369 306 c 128,-1,37
 1375 308 1375 308 1377.5 309.5 c 128,-1,38
 1380 311 1380 311 1384.5 314 c 128,-1,39
 1389 317 1389 317 1391 320.5 c 128,-1,40
 1393 324 1393 324 1396 329.5 c 128,-1,41
 1399 335 1399 335 1400 341.5 c 128,-1,42
 1401 348 1401 348 1402 356.5 c 128,-1,43
 1403 365 1403 365 1403 375 c 0,44,45
 1403 377 1403 377 1402 381 c 128,-1,46
 1401 385 1401 385 1401 389 c 1,47,-1
 1413 389 l 1,48,-1
 1413 416 l 1,49,-1
 1424 416 l 1,9,-1
261 876 m 1,50,-1
 250 865 l 1,51,-1
 261 865 l 1,52,-1
 261 837 l 1,53,-1
 274 837 l 1,54,55
 272 831 272 831 272 824 c 0,56,57
 272 794 272 794 280 778 c 128,-1,58
 288 762 288 762 297 757.5 c 128,-1,59
 306 753 306 753 323 749 c 0,60,61
 327 749 327 749 329 748 c 1,62,63
 339 757 339 757 356 803 c 128,-1,64
 373 849 373 849 373 865 c 2,65,-1
 373 901 l 1,66,-1
 366 901 l 1,67,68
 371 904 371 904 371 909 c 0,69,70
 371 913 371 913 370 914 c 1,71,72
 370 933 370 933 370.5 969.5 c 128,-1,73
 371 1006 371 1006 371 1023 c 0,74,75
 371 1060 371 1060 337 1102 c 1,76,-1
 329 1101 l 1,77,-1
 329 1113 l 1,78,79
 292 1104 292 1104 275.5 1083 c 128,-1,80
 259 1062 259 1062 259 1026 c 0,81,82
 259 1014 259 1014 263 986 c 1,83,84
 250 978 250 978 250 952 c 2,85,-1
 250 913 l 1,86,87
 253 910 253 910 255 907.5 c 128,-1,88
 257 905 257 905 258 902.5 c 128,-1,89
 259 900 259 900 259.5 898.5 c 128,-1,90
 260 897 260 897 260.5 894 c 128,-1,91
 261 891 261 891 261 889.5 c 128,-1,92
 261 888 261 888 261 883.5 c 128,-1,93
 261 879 261 879 261 876 c 1,50,-1
652 -209 m 1,94,-1
 639 -178 l 1,95,96
 618 -178 618 -178 618 -165 c 0,97,98
 618 -158 618 -158 624 -143 c 128,-1,99
 630 -128 630 -128 630 -122 c 0,100,101
 630 -113 630 -113 623 -113 c 128,-1,102
 616 -113 616 -113 605 -123 c 128,-1,103
 594 -133 594 -133 582.5 -147 c 128,-1,104
 571 -161 571 -161 567 -165 c 1,105,106
 576 -140 576 -140 576 -130 c 1,107,-1
 563 -155 l 1,108,-1
 556 -158 l 1,109,110
 543 -158 543 -158 543 -138 c 0,111,112
 543 -114 543 -114 549.5 -68 c 128,-1,113
 556 -22 556 -22 556 2 c 0,114,115
 556 24 556 24 554 36 c 1,116,117
 665 250 665 250 665 349 c 0,118,119
 665 399 665 399 628 399 c 2,120,-1
 623 399 l 1,121,122
 631 425 631 425 682 549.5 c 128,-1,123
 733 674 733 674 776 787 c 128,-1,124
 819 900 819 900 819 923 c 1,125,126
 859 960 859 960 880.5 1083.5 c 128,-1,127
 902 1207 902 1207 902 1291 c 1,128,129
 916 1318 916 1318 927 1385 c 128,-1,130
 938 1452 938 1452 950 1470 c 0,131,132
 951 1472 951 1472 962 1485.5 c 128,-1,133
 973 1499 973 1499 980 1508.5 c 128,-1,134
 987 1518 987 1518 993.5 1530.5 c 128,-1,135
 1000 1543 1000 1543 1000 1551 c 2,136,-1
 1000 1555 l 1,137,-1
 1059 1618 l 1,138,-1
 1072 1596 l 1,139,-1
 1034 1582 l 1,140,141
 1037 1580 1037 1580 1045 1580 c 0,142,143
 1064 1580 1064 1580 1102 1594 c 1,144,-1
 1111 1584 l 1,145,-1
 1131 1594 l 1,146,-1
 1178 1586 l 1,147,148
 1177 1575 1177 1575 1155.5 1523 c 128,-1,149
 1134 1471 1134 1471 1134 1449 c 0,150,151
 1134 1431 1134 1431 1144 1423 c 1,152,153
 1104 1317 1104 1317 1057 1229 c 1,154,-1
 1094 1219 l 1,155,-1
 1085 1180 l 1,156,157
 1057 1085 1057 1085 988 901 c 128,-1,158
 919 717 919 717 892 627 c 1,159,-1
 889 602 l 2,160,161
 889 596 889 596 885 592 c 1,162,163
 885 594 885 594 886 596 c 1,164,165
 885 595 885 595 884 594 c 0,166,167
 881 589 881 589 880 587 c 1,168,169
 883 588 883 588 883 590 c 2,170,-1
 883 586 l 1,171,-1
 885 558 l 1,172,-1
 880 510 l 2,173,174
 879 494 879 494 865 474 c 0,175,176
 853 456 853 456 838 444 c 1,177,-1
 827 355 l 1,178,179
 822 351 822 351 812.5 347.5 c 128,-1,180
 803 344 803 344 798.5 338 c 128,-1,181
 794 332 794 332 794 317 c 0,182,183
 794 295 794 295 785 267.5 c 128,-1,184
 776 240 776 240 756 196.5 c 128,-1,185
 736 153 736 153 734 148 c 1,186,-1
 739 120 l 1,187,188
 739 97 739 97 733 80.5 c 128,-1,189
 727 64 727 64 716 44.5 c 128,-1,190
 705 25 705 25 700 10 c 1,191,192
 706 0 706 0 706 -16 c 0,193,194
 706 -43 706 -43 697 -76 c 128,-1,195
 688 -109 688 -109 672 -152 c 128,-1,196
 656 -195 656 -195 652 -209 c 1,94,-1
97 837 m 1,197,198
 87 858 87 858 83 884.5 c 128,-1,199
 79 911 79 911 78 955.5 c 128,-1,200
 77 1000 77 1000 76 1010 c 1,201,-1
 76 1082 l 2,202,203
 76 1209 76 1209 58 1251 c 1,204,205
 69 1264 69 1264 69 1282 c 0,206,207
 69 1283 69 1283 68 1286 c 128,-1,208
 67 1289 67 1289 67 1290 c 1,209,-1
 55 1290 l 1,210,211
 77 1313 77 1313 96 1342.5 c 128,-1,212
 115 1372 115 1372 127 1390 c 128,-1,213
 139 1408 139 1408 160.5 1426.5 c 128,-1,214
 182 1445 182 1445 220 1454.5 c 128,-1,215
 258 1464 258 1464 317 1466 c 1,216,-1
 312 1452 l 1,217,-1
 323 1464 l 1,218,-1
 329 1464 l 2,219,220
 338 1464 338 1464 356.5 1459 c 128,-1,221
 375 1454 375 1454 385 1454 c 2,222,-1
 394 1454 l 1,223,-1
 390 1464 l 1,224,225
 414 1464 414 1464 440 1450 c 128,-1,226
 466 1436 466 1436 480.5 1423 c 128,-1,227
 495 1410 495 1410 519 1385 c 1,228,-1
 521 1387 l 1,229,230
 519 1387 519 1387 519 1389 c 1,231,-1
 521 1389 l 1,232,-1
 521 1387 l 1,233,-1
 542 1375 l 1,234,-1
 530 1362 l 1,235,236
 532 1355 532 1355 547 1347 c 128,-1,237
 562 1339 562 1339 570 1339 c 1,238,-1
 603 1301 l 1,239,-1
 596 1301 l 1,240,241
 594 1284 594 1284 589 1212 c 1,242,-1
 605 1201 l 1,243,-1
 605 1172 l 2,244,245
 605 1127 605 1127 591 1101 c 1,246,-1
 605 1101 l 1,247,248
 602 1079 602 1079 599 1014 c 128,-1,249
 596 949 596 949 586 904.5 c 128,-1,250
 576 860 576 860 552 825 c 1,251,252
 551 797 551 797 538 776.5 c 128,-1,253
 525 756 525 756 524 746 c 1,254,-1
 540 738 l 1,255,256
 523 738 523 738 500 698.5 c 128,-1,257
 477 659 477 659 477 651 c 0,258,259
 477 637 477 637 479 628 c 1,260,-1
 466 628 l 1,261,-1
 451 640 l 1,262,263
 441 627 441 627 427 627 c 1,264,-1
 427 615 l 1,265,-1
 420 615 l 1,266,267
 416 600 416 600 407 600 c 0,268,269
 401 600 401 600 390 608 c 1,270,-1
 390 587 l 1,271,-1
 373 574 l 1,272,273
 369 576 369 576 345 580 c 128,-1,274
 321 584 321 584 314 584 c 0,275,276
 300 584 300 584 291 618 c 2,277,-1
 282 653 l 1,278,279
 279 653 279 653 279 638 c 1,280,-1
 252 607 l 1,281,282
 243 607 243 607 236.5 616.5 c 128,-1,283
 230 626 230 626 226.5 638 c 128,-1,284
 223 650 223 650 214 659.5 c 128,-1,285
 205 669 205 669 191 669 c 0,286,287
 187 669 187 669 167 662.5 c 128,-1,288
 147 656 147 656 143 656 c 1,289,290
 142 675 142 675 125 694 c 128,-1,291
 108 713 108 713 108 738 c 0,292,293
 108 753 108 753 102.5 781.5 c 128,-1,294
 97 810 97 810 97 825 c 2,295,-1
 97 837 l 1,197,198
1183 740 m 0,296,297
 1179 748 1179 748 1179 766 c 1,298,299
 1177 764 1177 764 1169 764 c 1,300,-1
 1183 779 l 1,301,-1
 1169 779 l 1,302,-1
 1172 791 l 1,303,-1
 1169 803 l 1,304,-1
 1174 803 l 1,305,306
 1186 817 1186 817 1186 834 c 1,307,-1
 1184 838 l 2,308,309
 1183 841 1183 841 1183 842 c 1,310,-1
 1172 842 l 1,311,312
 1182 847 1182 847 1200 876 c 128,-1,313
 1218 905 1218 905 1236 933.5 c 128,-1,314
 1254 962 1254 962 1291.5 986 c 128,-1,315
 1329 1010 1329 1010 1376 1010 c 2,316,-1
 1379 1010 l 1,317,-1
 1381 1015 l 2,318,319
 1382 1015 1382 1015 1386 1010 c 128,-1,320
 1390 1005 1390 1005 1396 1005 c 1,321,-1
 1400 1006 l 1,322,323
 1403 1008 1403 1008 1405 1008 c 1,324,-1
 1401 1015 l 1,325,326
 1416 1015 1416 1015 1436 1006 c 128,-1,327
 1456 997 1456 997 1467.5 990 c 128,-1,328
 1479 983 1479 983 1503.5 964.5 c 128,-1,329
 1528 946 1528 946 1531 944 c 1,330,-1
 1540 952 l 1,331,-1
 1541 944 l 1,332,-1
 1530 942 l 1,333,-1
 1552 926 l 1,334,-1
 1541 914 l 1,335,336
 1546 906 1546 906 1558.5 898 c 128,-1,337
 1571 890 1571 890 1580 890 c 1,338,-1
 1611 854 l 1,339,-1
 1603 854 l 1,340,341
 1600 818 1600 818 1600 815 c 0,342,343
 1600 807 1600 807 1601 789.5 c 128,-1,344
 1602 772 1602 772 1602 764 c 1,345,-1
 1612 752 l 1,346,-1
 1615 710 l 1,347,348
 1615 676 1615 676 1603 649 c 1,349,-1
 1612 653 l 1,350,-1
 1612 623 l 2,351,352
 1612 616 1612 616 1612 596 c 128,-1,353
 1612 576 1612 576 1612 567.5 c 128,-1,354
 1612 559 1612 559 1612.5 541 c 128,-1,355
 1613 523 1613 523 1614.5 512 c 128,-1,356
 1616 501 1616 501 1618.5 485.5 c 128,-1,357
 1621 470 1621 470 1625 456.5 c 128,-1,358
 1629 443 1629 443 1634 429 c 1,359,360
 1624 423 1624 423 1600 367.5 c 128,-1,361
 1576 312 1576 312 1576 300 c 1,362,-1
 1586 290 l 1,363,364
 1563 290 1563 290 1553 241 c 1,365,366
 1534 232 1534 232 1528.5 223.5 c 128,-1,367
 1523 215 1523 215 1523 199 c 2,368,-1
 1523 182 l 1,369,-1
 1513 182 l 1,370,-1
 1498 192 l 1,371,372
 1488 178 1488 178 1474 178 c 1,373,-1
 1474 166 l 1,374,-1
 1467 166 l 1,375,376
 1464 152 1464 152 1453 152 c 0,377,378
 1446 152 1446 152 1437 161 c 1,379,-1
 1437 141 l 1,380,-1
 1421 125 l 1,381,382
 1381 135 1381 135 1358 135 c 0,383,384
 1346 135 1346 135 1336.5 170 c 128,-1,385
 1327 205 1327 205 1326 205 c 0,386,387
 1324 205 1324 205 1324 191 c 1,388,-1
 1300 158 l 1,389,390
 1291 158 1291 158 1284.5 168 c 128,-1,391
 1278 178 1278 178 1274.5 189.5 c 128,-1,392
 1271 201 1271 201 1261.5 211 c 128,-1,393
 1252 221 1252 221 1237 221 c 0,394,395
 1197 221 1197 221 1191 207 c 1,396,397
 1191 226 1191 226 1173 248.5 c 128,-1,398
 1155 271 1155 271 1154 292 c 1,399,-1
 1156 290 l 1,400,-1
 1156 296 l 2,401,402
 1156 313 1156 313 1148.5 359.5 c 128,-1,403
 1141 406 1141 406 1148 436.5 c 128,-1,404
 1155 467 1155 467 1186 500 c 1,405,406
 1186 537 1186 537 1199 564 c 1,407,408
 1186 603 1186 603 1186 649 c 0,409,410
 1186 663 1186 663 1187.5 691.5 c 128,-1,411
 1189 720 1189 720 1189 730 c 0,412,413
 1189 731 1189 731 1187 732.5 c 128,-1,414
 1185 734 1185 734 1184 736 c 128,-1,415
 1183 738 1183 738 1183 740 c 0,296,297
1183 740 m 1,416,-1
 1169 740 l 1,417,-1
 1169 752 l 1,418,-1
 1183 740 l 1,416,-1
EndSplineSet
EndChar

StartChar: ampersand
Encoding: 38 38 11
Width: 1071
GlyphClass: 2
Flags: W
LayerCount: 2
Fore
SplineSet
372 590 m 1,0,1
 328 589 328 589 241.5 592.5 c 128,-1,2
 155 596 155 596 137 596 c 1,3,-1
 84 632 l 1,4,-1
 84 954 l 1,5,-1
 379 954 l 1,6,-1
 379 965 l 2,7,8
 379 1023 379 1023 372 1186 c 2,9,-1
 368 1288 l 1,10,-1
 481 1290 l 1,11,-1
 530 1306 l 1,12,-1
 528 1280 l 1,13,-1
 584 1280 l 2,14,15
 588 1280 588 1280 598.5 1281 c 128,-1,16
 609 1282 609 1282 614 1282 c 0,17,18
 647 1282 647 1282 701 1263 c 1,19,-1
 703 1094 l 1,20,21
 691 1094 691 1094 691 1079 c 2,22,-1
 691 942 l 1,23,-1
 731 942 l 2,24,25
 798 942 798 942 889 949 c 1,26,-1
 984 959 l 2,27,28
 984 958 984 958 983 920 c 128,-1,29
 982 882 982 882 982 866 c 0,30,31
 979 644 979 644 961 590 c 1,32,-1
 745 586 l 1,33,-1
 739 602 l 1,34,-1
 700 602 l 1,35,36
 700 587 700 587 699 555.5 c 128,-1,37
 698 524 698 524 698 508 c 0,38,39
 697 477 697 477 697 406 c 1,40,-1
 662 268 l 1,41,-1
 372 268 l 1,42,-1
 372 590 l 1,0,1
EndSplineSet
EndChar

StartChar: quotesingle
Encoding: 39 39 12
Width: 616
GlyphClass: 2
Flags: W
LayerCount: 2
Fore
SplineSet
288 770 m 1,0,1
 285 770 285 770 284 770 c 128,-1,2
 283 770 283 770 280.5 765.5 c 128,-1,3
 278 761 278 761 277 752 c 1,4,-1
 262 770 l 1,5,6
 244 750 244 750 230 748 c 1,7,8
 207 850 207 850 186.5 966 c 128,-1,9
 166 1082 166 1082 143.5 1223.5 c 128,-1,10
 121 1365 121 1365 107 1443 c 1,11,12
 98 1440 98 1440 91 1445.5 c 128,-1,13
 84 1451 84 1451 84 1461 c 2,14,-1
 84 1465 l 1,15,-1
 98 1481 l 1,16,17
 112 1484 112 1484 117 1500 c 1,18,19
 205 1496 205 1496 248 1496 c 0,20,21
 264 1496 264 1496 293 1503.5 c 128,-1,22
 322 1511 322 1511 338 1511 c 0,23,24
 362 1511 362 1511 414 1497 c 128,-1,25
 466 1483 466 1483 494 1485 c 1,26,27
 499 1461 499 1461 499 1410 c 0,28,29
 499 1195 499 1195 478 1188 c 1,30,31
 470 1119 470 1119 456 980 c 128,-1,32
 442 841 442 841 434 772 c 1,33,-1
 402 792 l 1,34,-1
 384 792 l 2,35,36
 375 792 375 792 359 783.5 c 128,-1,37
 343 775 343 775 334 774 c 1,38,-1
 349 796 l 1,39,40
 301 796 301 796 288 770 c 1,0,1
EndSplineSet
EndChar

StartChar: parenleft
Encoding: 40 40 13
Width: 762
GlyphClass: 2
Flags: W
LayerCount: 2
Fore
SplineSet
445 402 m 0,0,1
 444 366 444 366 474.5 304.5 c 128,-1,2
 505 243 505 243 510 211 c 1,3,4
 510 170 510 170 565 170 c 0,5,6
 572 170 572 170 582 141 c 128,-1,7
 592 112 592 112 595 112 c 2,8,-1
 598 113 l 1,9,-1
 600 113 l 1,10,-1
 635 87 l 1,11,-1
 635 3 l 1,12,-1
 649 6 l 1,13,14
 661 -95 661 -95 661 -124 c 1,15,16
 654 -139 654 -139 648.5 -172 c 128,-1,17
 643 -205 643 -205 642 -211 c 1,18,-1
 605 -217 l 1,19,-1
 584 -233 l 1,20,-1
 541 -234 l 2,21,22
 518 -235 518 -235 482 -213 c 128,-1,23
 446 -191 446 -191 431 -188 c 2,24,-1
 445 -190 l 1,25,26
 441 -188 441 -188 425.5 -182 c 128,-1,27
 410 -176 410 -176 402 -173 c 128,-1,28
 394 -170 394 -170 380.5 -163.5 c 128,-1,29
 367 -157 367 -157 360 -151.5 c 128,-1,30
 353 -146 353 -146 345.5 -138.5 c 128,-1,31
 338 -131 338 -131 336 -124 c 1,32,-1
 244 6 l 1,33,34
 224 53 224 53 193 124.5 c 128,-1,35
 162 196 162 196 151.5 221 c 128,-1,36
 141 246 141 246 123.5 295 c 128,-1,37
 106 344 106 344 101 369.5 c 128,-1,38
 96 395 96 395 89 441.5 c 128,-1,39
 82 488 82 488 80.5 533.5 c 128,-1,40
 79 579 79 579 79 645 c 0,41,42
 79 883 79 883 143 1214 c 1,43,44
 155 1259 155 1259 226 1339 c 1,45,-1
 215 1329 l 1,46,47
 225 1381 225 1381 294 1483.5 c 128,-1,48
 363 1586 363 1586 406 1614 c 0,49,50
 458 1648 458 1648 562 1691.5 c 128,-1,51
 666 1735 666 1735 712 1764 c 1,52,53
 726 1731 726 1731 726 1709 c 0,54,55
 726 1608 726 1608 694.5 1401 c 128,-1,56
 663 1194 663 1194 663 1092 c 0,57,58
 663 1062 663 1062 665 1046 c 1,59,-1
 633 1048 l 1,60,61
 587 1048 587 1048 554.5 1033.5 c 128,-1,62
 522 1019 522 1019 502 989 c 128,-1,63
 482 959 482 959 470.5 925 c 128,-1,64
 459 891 459 891 453 841 c 128,-1,65
 447 791 447 791 444.5 747 c 128,-1,66
 442 703 442 703 438.5 642.5 c 128,-1,67
 435 582 435 582 429 538 c 1,68,-1
 442 517 l 1,69,-1
 425 493 l 1,70,71
 447 493 447 493 447 444 c 0,72,73
 447 435 447 435 446 420 c 128,-1,74
 445 405 445 405 445 402 c 0,0,1
EndSplineSet
EndChar

StartChar: parenright
Encoding: 41 41 14
Width: 693
GlyphClass: 2
Flags: W
LayerCount: 2
Fore
SplineSet
52 1612 m 1,0,-1
 70 1652 l 1,1,2
 70 1691 70 1691 72 1714 c 1,3,4
 92 1709 92 1709 142.5 1694.5 c 128,-1,5
 193 1680 193 1680 229.5 1672 c 128,-1,6
 266 1664 266 1664 302 1663 c 1,7,-1
 313 1671 l 1,8,9
 361 1640 361 1640 464.5 1536.5 c 128,-1,10
 568 1433 568 1433 568 1402 c 1,11,-1
 553 1414 l 1,12,13
 594 1365 594 1365 594 1231 c 0,14,15
 594 973 594 973 575.5 679 c 128,-1,16
 557 385 557 385 522 223 c 0,17,18
 521 220 521 220 511 183 c 128,-1,19
 501 146 501 146 497.5 133.5 c 128,-1,20
 494 121 494 121 483.5 88.5 c 128,-1,21
 473 56 473 56 465 39.5 c 128,-1,22
 457 23 457 23 444 1.5 c 128,-1,23
 431 -20 431 -20 418 -33 c 1,24,-1
 417 -35 l 1,25,-1
 409 -30 l 1,26,-1
 358 -107 l 1,27,-1
 273 -214 l 1,28,-1
 253 -236 l 1,29,-1
 267 -236 l 1,30,-1
 212 -262 l 1,31,-1
 192 -236 l 1,32,-1
 153 -282 l 1,33,-1
 114 -239 l 1,34,-1
 91 -264 l 1,35,-1
 52 -260 l 1,36,37
 52 -191 52 -191 42 -170 c 1,38,39
 42 -144 42 -144 50 -98.5 c 128,-1,40
 58 -53 58 -53 59 -41 c 1,41,-1
 72 -43 l 1,42,43
 70 -31 70 -31 75.5 -25 c 128,-1,44
 81 -19 81 -19 93 -20 c 1,45,-1
 93 26 l 1,46,-1
 112 26 l 1,47,-1
 133 3 l 1,48,-1
 153 3 l 1,49,-1
 172 26 l 1,50,51
 195 26 195 26 210 31.5 c 128,-1,52
 225 37 225 37 231 44 c 128,-1,53
 237 51 237 51 238.5 64 c 128,-1,54
 240 77 240 77 238.5 85 c 128,-1,55
 237 93 237 93 233 106 c 128,-1,56
 229 119 229 119 229 120 c 0,57,58
 238 151 238 151 250 189 c 128,-1,59
 262 227 262 227 266.5 243 c 128,-1,60
 271 259 271 259 276 285.5 c 128,-1,61
 281 312 281 312 282.5 340 c 128,-1,62
 284 368 284 368 284 411 c 0,63,64
 284 424 284 424 290.5 435.5 c 128,-1,65
 297 447 297 447 308 447 c 1,66,67
 308 469 308 469 293 470 c 1,68,-1
 308 493 l 1,69,-1
 308 584 l 2,70,71
 308 795 308 795 286 858 c 1,72,73
 286 927 286 927 233 969.5 c 128,-1,74
 180 1012 180 1012 94 996 c 1,75,76
 104 1070 104 1070 83 1371 c 1,77,-1
 77 1452 l 1,78,-1
 77 1456 l 1,79,-1
 74 1518 l 2,80,81
 74 1527 74 1527 64 1540.5 c 128,-1,82
 54 1554 54 1554 54 1561 c 0,83,84
 54 1567 54 1567 53 1580 c 128,-1,85
 52 1593 52 1593 52 1599 c 2,86,-1
 52 1612 l 1,0,-1
EndSplineSet
EndChar

StartChar: asterisk
Encoding: 42 42 15
Width: 1051
GlyphClass: 2
Flags: W
LayerCount: 2
Fore
SplineSet
238 1470 m 1,0,-1
 292 1495 l 1,1,-1
 296 1515 l 1,2,3
 330 1526 330 1526 374 1568 c 1,4,-1
 430 1464 l 2,5,6
 500 1333 500 1333 520 1263 c 1,7,-1
 637 1495 l 1,8,9
 636 1501 636 1501 636 1512 c 0,10,11
 636 1533 636 1533 640 1541 c 1,12,-1
 642 1630 l 1,13,-1
 677 1606 l 1,14,-1
 718 1657 l 1,15,-1
 718 1582 l 1,16,-1
 735 1568 l 2,17,18
 751 1554 751 1554 763 1548 c 1,19,20
 768 1548 768 1548 782 1550 c 2,21,-1
 795 1551 l 1,22,-1
 806 1431 l 1,23,24
 783 1383 783 1383 761.5 1318.5 c 128,-1,25
 740 1254 740 1254 740 1219 c 1,26,-1
 678 1115 l 1,27,28
 748 1115 748 1115 790 1133 c 1,29,30
 829 1122 829 1122 857 1119 c 128,-1,31
 885 1116 885 1116 898.5 1117 c 128,-1,32
 912 1118 912 1118 947 1107 c 128,-1,33
 982 1096 982 1096 1040 1069 c 1,34,-1
 971 1031 l 1,35,-1
 961 1003 l 1,36,-1
 983 979 l 1,37,-1
 950 904 l 1,38,39
 939 905 939 905 925 906.5 c 128,-1,40
 911 908 911 908 901.5 909.5 c 128,-1,41
 892 911 892 911 889 911 c 0,42,43
 859 911 859 911 795.5 904.5 c 128,-1,44
 732 898 732 898 700 898 c 2,45,-1
 678 898 l 1,46,-1
 691 876 l 1,47,48
 713 833 713 833 727 817 c 1,49,50
 728 809 728 809 731.5 790 c 128,-1,51
 735 771 735 771 737 758 c 128,-1,52
 739 745 739 745 740 745 c 1,53,-1
 740 746 l 1,54,55
 811 679 811 679 811 529 c 1,56,57
 752 523 752 523 729 508 c 128,-1,58
 706 493 706 493 691 493 c 0,59,60
 624 493 624 493 524 762 c 1,61,62
 522 746 522 746 515.5 710.5 c 128,-1,63
 509 675 509 675 506 653 c 1,64,65
 495 632 495 632 476 565 c 128,-1,66
 457 498 457 498 415 431 c 1,67,68
 391 469 391 469 378 486 c 128,-1,69
 365 503 365 503 362.5 502.5 c 128,-1,70
 360 502 360 502 356 504.5 c 128,-1,71
 352 507 352 507 344 519 c 1,72,-1
 330 513 l 1,73,-1
 317 515 l 1,74,-1
 245 478 l 1,75,76
 280 643 280 643 321 700 c 1,77,78
 319 707 319 707 319 714 c 1,79,-1
 339 736 l 1,80,81
 342 816 342 816 376 901 c 1,82,83
 347 898 347 898 290 898 c 0,84,85
 267 898 267 898 83 906 c 1,86,-1
 85 945 l 1,87,-1
 39 979 l 1,88,-1
 72 1015 l 1,89,-1
 72 1031 l 1,90,91
 61 1036 61 1036 61 1043 c 2,92,-1
 63 1064 l 1,93,-1
 52 1147 l 1,94,95
 74 1144 74 1144 147.5 1133 c 128,-1,96
 221 1122 221 1122 264 1117 c 128,-1,97
 307 1112 307 1112 340 1112 c 2,98,-1
 350 1112 l 1,99,100
 333 1149 333 1149 296 1260 c 1,101,-1
 296 1257 l 1,102,103
 264 1352 264 1352 238 1397 c 1,104,-1
 238 1470 l 1,0,-1
EndSplineSet
EndChar

StartChar: plus
Encoding: 43 43 16
Width: 940
GlyphClass: 2
Flags: W
LayerCount: 2
Fore
SplineSet
706 638 m 2,0,-1
 698 638 l 1,1,-1
 720 635 l 1,2,3
 688 627 688 627 634 627 c 2,4,-1
 608 627 l 1,5,-1
 608 592 l 2,6,7
 608 558 608 558 606 489 c 128,-1,8
 604 420 604 420 604 385 c 1,9,-1
 583 353 l 1,10,-1
 328 353 l 1,11,-1
 328 615 l 1,12,13
 293 615 293 615 224.5 617.5 c 128,-1,14
 156 620 156 620 121 620 c 1,15,-1
 92 642 l 1,16,-1
 92 924 l 1,17,-1
 335 924 l 1,18,-1
 335 979 l 2,19,20
 335 999 335 999 324 1178 c 1,21,-1
 402 1181 l 1,22,-1
 398 1176 l 1,23,-1
 425 1186 l 1,24,-1
 423 1176 l 1,25,26
 451 1168 451 1168 488 1168 c 0,27,28
 500 1168 500 1168 521 1169 c 128,-1,29
 542 1170 542 1170 553 1170 c 0,30,31
 589 1170 589 1170 610 1162 c 1,32,-1
 613 1050 l 1,33,34
 599 1050 599 1050 599 992 c 2,35,-1
 599 914 l 1,36,37
 614 914 614 914 641.5 913.5 c 128,-1,38
 669 913 669 913 683 913 c 0,39,40
 712 913 712 913 769.5 920 c 128,-1,41
 827 927 827 927 842 928 c 1,42,43
 842 921 842 921 840 844.5 c 128,-1,44
 838 768 838 768 835 699 c 128,-1,45
 832 630 832 630 827 615 c 1,46,-1
 726 610 l 1,47,-1
 720 635 l 1,48,49
 717 638 717 638 706 638 c 2,0,-1
EndSplineSet
EndChar

StartChar: comma
Encoding: 44 44 17
Width: 740
GlyphClass: 2
Flags: W
LayerCount: 2
Fore
SplineSet
570 -290 m 1,0,-1
 378 -298 l 1,1,2
 372 -260 372 -260 372 -241 c 0,3,4
 372 -223 372 -223 375 -187.5 c 128,-1,5
 378 -152 378 -152 378 -135 c 1,6,-1
 386 -140 l 1,7,8
 386 -99 386 -99 389.5 -77 c 128,-1,9
 393 -55 393 -55 406 -12 c 1,10,-1
 404 -14 l 1,11,-1
 422 85 l 1,12,13
 416 85 416 85 386 85.5 c 128,-1,14
 356 86 356 86 342 87.5 c 128,-1,15
 328 89 328 89 305.5 94.5 c 128,-1,16
 283 100 283 100 268 110 c 1,17,-1
 132 89 l 1,18,19
 132 107 132 107 122 112 c 1,20,-1
 116 108 l 1,21,-1
 98 125 l 1,22,23
 98 131 98 131 96 144.5 c 128,-1,24
 94 158 94 158 94 166 c 0,25,26
 94 254 94 254 104 433.5 c 128,-1,27
 114 613 114 613 114 702 c 1,28,29
 133 702 133 702 148 679 c 1,30,31
 154 679 154 679 169.5 691.5 c 128,-1,32
 185 704 185 704 206 704 c 0,33,34
 250 704 250 704 339 688.5 c 128,-1,35
 428 673 428 673 474 673 c 0,36,37
 499 673 499 673 509.5 683.5 c 128,-1,38
 520 694 520 694 534 694 c 0,39,40
 542 694 542 694 558 685 c 128,-1,41
 574 676 574 676 582 676 c 2,42,-1
 602 676 l 1,43,-1
 618 697 l 1,44,-1
 632 460 l 1,45,-1
 632 447 l 2,46,47
 632 430 632 430 635 400.5 c 128,-1,48
 638 371 638 371 638 358 c 1,49,-1
 632 358 l 1,50,-1
 632 339 l 1,51,-1
 620 334 l 1,52,53
 620 326 620 326 626 310.5 c 128,-1,54
 632 295 632 295 632 294 c 0,55,56
 632 276 632 276 630 240.5 c 128,-1,57
 628 205 628 205 628 187 c 1,58,-1
 626 166 l 1,59,60
 632 148 632 148 632 125 c 1,61,-1
 570 -290 l 1,0,-1
EndSplineSet
EndChar

StartChar: hyphen
Encoding: 45 45 18
Width: 979
GlyphClass: 2
Flags: W
LayerCount: 2
Fore
SplineSet
265 596 m 1,0,-1
 199 642 l 1,1,2
 199 613 199 613 176 613 c 0,3,4
 149 613 149 613 112 642 c 1,5,-1
 125 986 l 1,6,-1
 388 986 l 1,7,8
 388 967 388 967 408 967 c 0,9,10
 419 967 419 967 443 973 c 128,-1,11
 467 979 467 979 479 979 c 0,12,13
 494 979 494 979 526 980 c 128,-1,14
 558 981 558 981 575 981 c 0,15,16
 641 981 641 981 687 964 c 1,17,-1
 691 979 l 1,18,-1
 878 979 l 1,19,-1
 827 844 l 1,20,-1
 821 847 l 1,21,-1
 830 817 l 1,22,-1
 821 820 l 1,23,24
 814 784 814 784 814 740 c 0,25,26
 814 728 814 728 815 702 c 128,-1,27
 816 676 816 676 816 663 c 0,28,29
 816 626 816 626 809 594 c 1,30,-1
 707 590 l 1,31,-1
 709 605 l 1,32,33
 709 640 709 640 688 640 c 1,34,-1
 682 638 l 1,35,-1
 705 615 l 1,36,37
 664 607 664 607 601 607 c 1,38,-1
 590 608 l 2,39,40
 579 608 579 608 571 608 c 0,41,42
 536 608 536 608 536 596 c 0,43,44
 536 592 536 592 538 590 c 1,45,-1
 514 587 l 1,46,-1
 511 596 l 2,47,48
 510 596 510 596 508 596 c 0,49,50
 501 596 501 596 497.5 596.5 c 128,-1,51
 494 597 494 597 491 601.5 c 128,-1,52
 488 606 488 606 488 615 c 2,53,-1
 488 623 l 1,54,-1
 511 600 l 1,55,-1
 514 623 l 1,56,-1
 488 623 l 1,57,-1
 490 632 l 1,58,-1
 465 628 l 1,59,-1
 461 600 l 1,60,61
 437 594 437 594 433 594 c 2,62,-1
 265 596 l 1,0,-1
EndSplineSet
EndChar

StartChar: period
Encoding: 46 46 19
Width: 767
GlyphClass: 2
Flags: W
LayerCount: 2
Fore
SplineSet
332 103 m 1,0,-1
 291 103 l 2,1,2
 289 103 289 103 280.5 103 c 128,-1,3
 272 103 272 103 268.5 103 c 128,-1,4
 265 103 265 103 257 102.5 c 128,-1,5
 249 102 249 102 244.5 101 c 128,-1,6
 240 100 240 100 234 98 c 128,-1,7
 228 96 228 96 223 92.5 c 128,-1,8
 218 89 218 89 214 85 c 1,9,10
 214 103 214 103 195 103 c 1,11,12
 192 101 192 101 185.5 94 c 128,-1,13
 179 87 179 87 174 84 c 128,-1,14
 169 81 169 81 162 81 c 1,15,16
 162 307 162 307 123 617 c 0,17,18
 122 618 122 618 113 628 c 128,-1,19
 104 638 104 638 100 642.5 c 128,-1,20
 96 647 96 647 87.5 652 c 128,-1,21
 79 657 79 657 72 657 c 1,22,-1
 90 675 l 1,23,24
 96 675 96 675 108 673 c 128,-1,25
 120 671 120 671 125 671 c 0,26,27
 149 671 149 671 160 694 c 1,28,-1
 297 694 l 1,29,30
 341 722 341 722 499 722 c 0,31,32
 526 722 526 722 579.5 709.5 c 128,-1,33
 633 697 633 697 656 697 c 1,34,35
 656 464 656 464 633 464 c 1,36,37
 652 447 652 447 667 447 c 1,38,-1
 647 106 l 1,39,-1
 631 125 l 1,40,-1
 612 125 l 2,41,42
 606 125 606 125 588 117.5 c 128,-1,43
 570 110 570 110 564 110 c 0,44,45
 549 110 549 110 539 120 c 128,-1,46
 529 130 529 130 503 130 c 0,47,48
 461 130 461 130 403 123.5 c 128,-1,49
 345 117 345 117 332 103 c 1,0,-1
EndSplineSet
EndChar

StartChar: slash
Encoding: 47 47 20
Width: 597
GlyphClass: 2
Flags: W
LayerCount: 2
Fore
SplineSet
283 459 m 1,0,1
 281 454 281 454 279.5 408 c 128,-1,2
 278 362 278 362 272 358 c 1,3,4
 259 358 259 358 241.5 291.5 c 128,-1,5
 224 225 224 225 200.5 135.5 c 128,-1,6
 177 46 177 46 152 8 c 1,7,8
 156 2 156 2 156 -7 c 0,9,10
 156 -32 156 -32 146 -46 c 1,11,-1
 146 -60 l 2,12,13
 146 -84 146 -84 139 -107 c 128,-1,14
 132 -130 132 -130 120.5 -158.5 c 128,-1,15
 109 -187 109 -187 104 -205 c 1,16,-1
 91 -178 l 1,17,18
 70 -178 70 -178 70 -165 c 0,19,20
 70 -158 70 -158 76 -143 c 128,-1,21
 82 -128 82 -128 82 -122 c 0,22,23
 82 -113 82 -113 78 -113 c 0,24,25
 71 -113 71 -113 45 -138 c 128,-1,26
 19 -163 19 -163 14 -166 c 1,27,28
 15 -163 15 -163 20.5 -149.5 c 128,-1,29
 26 -136 26 -136 26 -130 c 1,30,-1
 15 -155 l 1,31,-1
 8 -158 l 1,32,33
 -16 -158 -16 -158 -16 -130 c 0,34,35
 -16 -59 -16 -59 19.5 40 c 128,-1,36
 55 139 55 139 90.5 230.5 c 128,-1,37
 126 322 126 322 126 375 c 1,38,-1
 107 406 l 1,39,-1
 223 884 l 1,40,41
 262 917 262 917 291 998 c 128,-1,42
 320 1079 320 1079 320 1140 c 1,43,-1
 346 1164 l 1,44,-1
 342 1300 l 1,45,46
 362 1339 362 1339 394.5 1434.5 c 128,-1,47
 427 1530 427 1530 429 1536 c 1,48,-1
 432 1555 l 1,49,-1
 483 1614 l 1,50,-1
 499 1596 l 1,51,-1
 464 1582 l 1,52,53
 467 1580 467 1580 474 1580 c 0,54,55
 486 1580 486 1580 524 1594 c 1,56,-1
 536 1584 l 1,57,-1
 554 1594 l 1,58,-1
 600 1586 l 1,59,60
 595 1568 595 1568 586 1542 c 128,-1,61
 577 1516 577 1516 574 1505 c 128,-1,62
 571 1494 571 1494 568.5 1471.5 c 128,-1,63
 566 1449 566 1449 566 1419 c 0,64,65
 566 1406 566 1406 560.5 1386.5 c 128,-1,66
 555 1367 555 1367 545 1343 c 128,-1,67
 535 1319 535 1319 526.5 1300.5 c 128,-1,68
 518 1282 518 1282 506 1257.5 c 128,-1,69
 494 1233 494 1233 491 1226 c 1,70,-1
 520 1219 l 1,71,72
 511 1162 511 1162 332 602 c 1,73,-1
 336 618 l 1,74,-1
 323 592 l 1,75,76
 329 570 329 570 329 551 c 0,77,78
 329 525 329 525 309.5 490 c 128,-1,79
 290 455 290 455 285 440 c 1,80,-1
 286 447 l 1,81,-1
 283 459 l 1,0,1
EndSplineSet
EndChar

StartChar: zero
Encoding: 48 48 21
Width: 1083
GlyphClass: 2
Flags: W
LayerCount: 2
Fore
SplineSet
618 402 m 1,0,-1
 598 424 l 1,1,-1
 598 449 l 2,2,3
 598 470 598 470 618 493 c 1,4,-1
 618 564 l 2,5,6
 618 611 618 611 598 632 c 1,7,-1
 598 683 l 2,8,9
 598 720 598 720 594 756 c 128,-1,10
 590 792 590 792 572 829 c 128,-1,11
 554 866 554 866 524 866 c 2,12,-1
 489 866 l 1,13,-1
 489 842 l 1,14,-1
 470 842 l 1,15,16
 414 766 414 766 414 679 c 2,17,-1
 414 493 l 2,18,19
 414 477 414 477 425 470 c 1,20,-1
 414 470 l 1,21,-1
 414 402 l 2,22,23
 414 376 414 376 435 355 c 1,24,25
 435 320 435 320 452 269 c 128,-1,26
 469 218 469 218 489 192 c 1,27,-1
 507 192 l 2,28,29
 546 192 546 192 563 230.5 c 128,-1,30
 580 269 580 269 580 322 c 0,31,32
 580 344 580 344 578 355 c 1,33,-1
 598 355 l 1,34,-1
 598 402 l 1,35,-1
 618 402 l 1,0,-1
108 981 m 1,36,-1
 87 981 l 1,37,-1
 91 992 l 1,38,-1
 108 981 l 1,36,-1
108 981 m 1,39,-1
 108 1003 l 1,40,-1
 87 1003 l 1,41,-1
 87 1026 l 1,42,-1
 108 1003 l 1,43,-1
 102 1050 l 1,44,-1
 94 1046 l 1,45,-1
 87 1048 l 1,46,-1
 108 1072 l 1,47,-1
 87 1072 l 1,48,-1
 87 1097 l 1,49,-1
 91 1097 l 1,50,-1
 87 1120 l 1,51,-1
 96 1118 l 1,52,53
 110 1144 110 1144 110 1172 c 0,54,55
 110 1176 110 1176 109 1181 c 128,-1,56
 108 1186 108 1186 108 1188 c 1,57,-1
 89 1188 l 1,58,59
 97 1191 97 1191 111 1216.5 c 128,-1,60
 125 1242 125 1242 141.5 1277.5 c 128,-1,61
 158 1313 158 1313 190.5 1354.5 c 128,-1,62
 223 1396 223 1396 262.5 1431 c 128,-1,63
 302 1466 302 1466 366.5 1489 c 128,-1,64
 431 1512 431 1512 507 1512 c 1,65,-1
 507 1490 l 1,66,-1
 525 1512 l 1,67,68
 543 1512 543 1512 580.5 1501 c 128,-1,69
 618 1490 618 1490 639 1490 c 1,70,-1
 639 1512 l 1,71,72
 717 1512 717 1512 843 1375 c 1,73,-1
 864 1397 l 1,74,-1
 866 1379 l 1,75,-1
 847 1375 l 1,76,-1
 884 1350 l 1,77,-1
 866 1329 l 1,78,79
 872 1317 872 1317 892.5 1299.5 c 128,-1,80
 913 1282 913 1282 926 1282 c 2,81,-1
 931 1282 l 1,82,-1
 984 1212 l 1,83,-1
 969 1212 l 1,84,85
 963 1186 963 1186 963 1130 c 0,86,87
 963 1072 963 1072 965 1048 c 1,88,-1
 984 1026 l 1,89,90
 984 911 984 911 965 842 c 1,91,-1
 984 842 l 1,92,93
 961 473 961 473 941 424 c 0,94,95
 935 410 935 410 917.5 372 c 128,-1,96
 900 334 900 334 889.5 309.5 c 128,-1,97
 879 285 879 285 869.5 251.5 c 128,-1,98
 860 218 860 218 860 192 c 1,99,-1
 880 170 l 1,100,101
 858 170 858 170 842.5 139 c 128,-1,102
 827 108 827 108 822 77 c 1,103,104
 815 72 815 72 809.5 67 c 128,-1,105
 804 62 804 62 799.5 58 c 128,-1,106
 795 54 795 54 792 48 c 128,-1,107
 789 42 789 42 786.5 39.5 c 128,-1,108
 784 37 784 37 782.5 29 c 128,-1,109
 781 21 781 21 780.5 19 c 128,-1,110
 780 17 780 17 779.5 7 c 128,-1,111
 779 -3 779 -3 779 -5 c 128,-1,112
 779 -7 779 -7 779 -19.5 c 128,-1,113
 779 -32 779 -32 779 -35 c 1,114,-1
 759 -35 l 1,115,-1
 734 -12 l 1,116,117
 725 -38 725 -38 700 -38 c 1,118,-1
 700 -60 l 1,119,-1
 687 -58 l 1,120,-1
 659 -86 l 1,121,-1
 639 -68 l 1,122,-1
 639 -109 l 1,123,-1
 611 -134 l 1,124,125
 545 -116 545 -116 507 -116 c 0,126,127
 488 -116 488 -116 474.5 -51.5 c 128,-1,128
 461 13 461 13 460 13 c 0,129,130
 448 13 448 13 440.5 -3 c 128,-1,131
 433 -19 433 -19 426 -41.5 c 128,-1,132
 419 -64 419 -64 410 -73 c 1,133,134
 395 -72 395 -72 385 -53.5 c 128,-1,135
 375 -35 375 -35 369.5 -13.5 c 128,-1,136
 364 8 364 8 349 25.5 c 128,-1,137
 334 43 334 43 310 43 c 0,138,139
 302 43 302 43 235 16 c 1,140,141
 232 47 232 47 202.5 87.5 c 128,-1,142
 173 128 173 128 173 170 c 1,143,-1
 175 170 l 1,144,145
 175 201 175 201 163.5 275 c 128,-1,146
 152 349 152 349 143 377 c 0,147,148
 122 439 122 439 108 981 c 1,39,-1
EndSplineSet
EndChar

StartChar: one
Encoding: 49 49 22
Width: 751
GlyphClass: 2
Flags: W
LayerCount: 2
Fore
SplineSet
525 13 m 1,0,-1
 525 24 l 1,1,-1
 516 14 l 2,2,3
 517 14 517 14 520 13.5 c 128,-1,4
 523 13 523 13 525 13 c 1,0,-1
486 -20 m 1,5,-1
 446 3 l 1,6,7
 444 10 444 10 444 26 c 0,8,9
 444 65 444 65 456 82 c 1,10,-1
 425 55 l 1,11,-1
 370 55 l 1,12,-1
 353 19 l 1,13,14
 353 3 353 3 333 3 c 1,15,-1
 316 24 l 1,16,17
 313 48 313 48 289 343.5 c 128,-1,18
 265 639 265 639 240.5 904 c 128,-1,19
 216 1169 216 1169 208 1186 c 1,20,21
 156 1157 156 1157 64 1135 c 1,22,-1
 45 1181 l 1,23,-1
 64 1207 l 1,24,-1
 45 1204 l 2,25,26
 39 1204 39 1204 34.5 1209 c 128,-1,27
 30 1214 30 1214 26 1222.5 c 128,-1,28
 22 1231 22 1231 19 1241 c 128,-1,29
 16 1251 16 1251 14 1263 c 128,-1,30
 12 1275 12 1275 10.5 1283.5 c 128,-1,31
 9 1292 9 1292 7.5 1301.5 c 128,-1,32
 6 1311 6 1311 6 1313 c 1,33,-1
 -15 1313 l 1,34,35
 -15 1319 -15 1319 29 1337.5 c 128,-1,36
 73 1356 73 1356 87 1360 c 2,37,-1
 353 1445 l 1,38,-1
 353 1421 l 1,39,40
 360 1447 360 1447 378.5 1464.5 c 128,-1,41
 397 1482 397 1482 413 1488 c 128,-1,42
 429 1494 429 1494 461.5 1502.5 c 128,-1,43
 494 1511 494 1511 506 1515 c 1,44,-1
 525 1497 l 1,45,-1
 545 1515 l 1,46,47
 602 1515 602 1515 634 1490 c 1,48,-1
 634 1399 l 1,49,-1
 611 1399 l 1,50,-1
 611 1375 l 1,51,-1
 634 1375 l 1,52,-1
 626 1212 l 1,53,54
 645 1212 645 1212 666 1188 c 1,55,56
 658 1143 658 1143 641.5 991.5 c 128,-1,57
 625 840 625 840 606 773 c 1,58,-1
 585 773 l 1,59,60
 585 726 585 726 606 704 c 1,61,-1
 606 517 l 1,62,-1
 571 517 l 1,63,64
 587 510 587 510 587 469 c 1,65,-1
 585 449 l 1,66,-1
 567 426 l 1,67,-1
 567 402 l 1,68,69
 589 402 589 402 589 332 c 0,70,71
 589 288 589 288 578 204.5 c 128,-1,72
 567 121 567 121 567 79 c 1,73,-1
 585 31 l 1,74,-1
 567 8 l 1,75,-1
 585 8 l 1,76,77
 585 -15 585 -15 606 -38 c 1,78,-1
 567 -38 l 1,79,-1
 545 -16 l 1,80,-1
 525 -16 l 1,81,-1
 510 8 l 1,82,-1
 486 -20 l 1,5,-1
EndSplineSet
EndChar

StartChar: two
Encoding: 50 50 23
Width: 1179
GlyphClass: 2
Flags: W
LayerCount: 2
Fore
SplineSet
88 -103 m 1,0,-1
 77 -70 l 1,1,-1
 94 -87 l 1,2,3
 97 -40 97 -40 102.5 -16 c 128,-1,4
 108 8 108 8 125 57 c 1,5,-1
 119 82 l 1,6,7
 119 98 119 98 124 118.5 c 128,-1,8
 129 139 129 139 133 150.5 c 128,-1,9
 137 162 137 162 147.5 187.5 c 128,-1,10
 158 213 158 213 160 217 c 1,11,-1
 197 197 l 1,12,-1
 223 209 l 1,13,-1
 280 183 l 1,14,-1
 288 205 l 1,15,-1
 304 195 l 1,16,-1
 455 339 l 1,17,-1
 454 361 l 1,18,-1
 471 361 l 1,19,-1
 505 408 l 1,20,-1
 505 452 l 1,21,-1
 525 452 l 1,22,-1
 525 497 l 1,23,-1
 544 477 l 1,24,-1
 544 543 l 2,25,26
 544 547 544 547 540 561.5 c 128,-1,27
 536 576 536 576 531 592 c 128,-1,28
 526 608 526 608 525 613 c 1,29,-1
 618 727 l 1,30,-1
 637 727 l 1,31,-1
 637 752 l 1,32,-1
 618 752 l 1,33,-1
 618 760 l 2,34,35
 618 783 618 783 599 824 c 1,36,-1
 563 824 l 1,37,-1
 545 845 l 1,38,-1
 527 845 l 1,39,-1
 527 868 l 1,40,-1
 509 868 l 1,41,42
 509 867 509 867 510 863.5 c 128,-1,43
 511 860 511 860 511 858 c 0,44,45
 511 837 511 837 492 799 c 1,46,-1
 472 799 l 1,47,48
 472 774 472 774 455 737 c 128,-1,49
 438 700 438 700 438 659 c 1,50,-1
 455 637 l 1,51,-1
 438 613 l 1,52,-1
 419 637 l 1,53,54
 417 637 417 637 411.5 637.5 c 128,-1,55
 406 638 406 638 404 638 c 0,56,57
 374 638 374 638 356 620 c 1,58,59
 341 638 341 638 274 638 c 0,60,61
 228 638 228 638 207.5 634 c 128,-1,62
 187 630 187 630 149 613 c 1,63,-1
 149 637 l 1,64,65
 137 650 137 650 123 790.5 c 128,-1,66
 109 931 109 931 109 983 c 2,67,-1
 109 1145 l 1,68,-1
 127 1170 l 1,69,-1
 109 1170 l 1,70,-1
 109 1261 l 1,71,72
 123 1261 123 1261 133.5 1272 c 128,-1,73
 144 1283 144 1283 149 1296.5 c 128,-1,74
 154 1310 154 1310 164 1321 c 128,-1,75
 174 1332 174 1332 188 1332 c 1,76,-1
 170 1354 l 1,77,-1
 208 1400 l 1,78,-1
 228 1400 l 1,79,-1
 228 1377 l 1,80,-1
 249 1377 l 1,81,-1
 249 1423 l 1,82,83
 268 1443 268 1443 316 1466.5 c 128,-1,84
 364 1490 364 1490 382 1517 c 1,85,-1
 618 1517 l 2,86,87
 631 1517 631 1517 660.5 1505 c 128,-1,88
 690 1493 690 1493 708 1493 c 0,89,90
 720 1493 720 1493 726 1495 c 1,91,92
 745 1474 745 1474 779 1470 c 1,93,-1
 834 1400 l 1,94,-1
 852 1400 l 1,95,-1
 870 1377 l 1,96,-1
 862 1354 l 1,97,-1
 889 1377 l 1,98,99
 946 1328 946 1328 980.5 1231 c 128,-1,100
 1015 1134 1015 1134 1015 1046 c 0,101,102
 1015 971 1015 971 991.5 827 c 128,-1,103
 968 683 968 683 965 659 c 1,104,-1
 946 671 l 1,105,-1
 965 637 l 1,106,107
 958 624 958 624 929.5 553 c 128,-1,108
 901 482 901 482 874 433.5 c 128,-1,109
 847 385 847 385 822 381 c 1,110,-1
 830 381 l 1,111,112
 812 342 812 342 812 322 c 0,113,114
 812 314 812 314 814 312 c 1,115,-1
 795 290 l 1,116,-1
 802 280 l 1,117,118
 835 280 835 280 907 267.5 c 128,-1,119
 979 255 979 255 1016 255 c 0,120,121
 1032 255 1032 255 1051.5 267.5 c 128,-1,122
 1071 280 1071 280 1081 280 c 2,123,-1
 1113 280 l 2,124,125
 1118 280 1118 280 1153 301 c 1,126,-1
 1153 255 l 1,127,-1
 1133 255 l 1,128,-1
 1133 185 l 1,129,-1
 1113 185 l 1,130,-1
 1133 164 l 1,131,132
 1094 75 1094 75 1094 -68 c 1,133,-1
 1072 -68 l 1,134,-1
 1034 -113 l 1,135,-1
 1034 -120 l 2,136,137
 1034 -139 1034 -139 1019.5 -175.5 c 128,-1,138
 1005 -212 1005 -212 993 -219 c 1,139,-1
 953 -173 l 1,140,141
 951 -163 951 -163 951 -138 c 0,142,143
 951 -91 951 -91 962 -68 c 1,144,-1
 953 -68 l 1,145,-1
 912 -22 l 1,146,-1
 895 -46 l 1,147,-1
 897 -97 l 1,148,149
 897 -133 897 -133 877 -163 c 1,150,-1
 857 -138 l 1,151,152
 857 -93 857 -93 848.5 -52 c 128,-1,153
 840 -11 840 -11 831 14.5 c 128,-1,154
 822 40 822 40 822 46 c 1,155,156
 781 44 781 44 781 -76 c 0,157,158
 781 -93 781 -93 782.5 -117.5 c 128,-1,159
 784 -142 784 -142 784 -145 c 1,160,161
 782 -133 782 -133 777 -103.5 c 128,-1,162
 772 -74 772 -74 769.5 -51.5 c 128,-1,163
 767 -29 767 -29 767 -8 c 1,164,-1
 751 -8 l 1,165,-1
 730 14 l 1,166,-1
 730 -22 l 1,167,-1
 714 -22 l 1,168,-1
 696 -7 l 1,169,-1
 690 -8 l 1,170,-1
 690 -58 l 1,171,-1
 653 -81 l 1,172,-1
 653 -58 l 1,173,-1
 637 -36 l 1,174,-1
 626 -36 l 1,175,176
 605 -54 605 -54 605 -124 c 1,177,-1
 563 -35 l 2,178,179
 563 -36 563 -36 564 -41 c 128,-1,180
 565 -46 565 -46 565 -48 c 0,181,182
 565 -88 565 -88 545 -130 c 1,183,-1
 545 -124 l 1,184,-1
 527 -124 l 1,185,-1
 509 -77 l 1,186,-1
 517 -12 l 1,187,-1
 509 -12 l 1,188,189
 509 -31 509 -31 492 -57 c 128,-1,190
 475 -83 475 -83 472 -96 c 1,191,-1
 472 -84 l 1,192,193
 468 -89 468 -89 459 -107.5 c 128,-1,194
 450 -126 450 -126 442.5 -142 c 128,-1,195
 435 -158 435 -158 434 -158 c 2,196,-1
 438 -81 l 1,197,-1
 432 -81 l 2,198,199
 427 -81 427 -81 421 -82.5 c 128,-1,200
 415 -84 415 -84 411 -84 c 0,201,202
 401 -84 401 -84 394 -79 c 1,203,-1
 387 -99 l 1,204,-1
 371 -91 l 1,205,-1
 379 -122 l 1,206,207
 374 -125 374 -125 365 -125 c 0,208,209
 352 -125 352 -125 325 -113 c 1,210,-1
 315 -135 l 1,211,-1
 289 -150 l 1,212,-1
 253 -132 l 1,213,-1
 219 -142 l 1,214,-1
 179 -120 l 1,215,-1
 144 -130 l 1,216,-1
 107 -111 l 1,217,-1
 81 -124 l 1,218,-1
 88 -103 l 1,0,-1
EndSplineSet
EndChar

StartChar: three
Encoding: 51 51 24
Width: 1060
GlyphClass: 2
Flags: W
LayerCount: 2
Fore
SplineSet
419 485 m 1,0,-1
 419 582 l 1,1,-1
 433 605 l 1,2,-1
 500 605 l 1,3,-1
 518 587 l 1,4,-1
 518 605 l 1,5,6
 547 655 547 655 559 688.5 c 128,-1,7
 571 722 571 722 571 770 c 2,8,-1
 571 817 l 1,9,-1
 536 865 l 1,10,-1
 500 842 l 1,11,-1
 500 865 l 1,12,-1
 481 842 l 1,13,-1
 496 842 l 1,14,15
 488 838 488 838 484 833 c 128,-1,16
 480 828 480 828 478.5 825 c 128,-1,17
 477 822 477 822 469 819.5 c 128,-1,18
 461 817 461 817 445 817 c 1,19,-1
 463 795 l 1,20,21
 454 782 454 782 438 750 c 128,-1,22
 422 718 422 718 410 702 c 1,23,-1
 282 702 l 1,24,-1
 282 726 l 1,25,-1
 242 679 l 1,26,-1
 200 702 l 1,27,-1
 200 679 l 1,28,-1
 180 656 l 1,29,-1
 100 656 l 1,30,-1
 100 679 l 1,31,-1
 142 679 l 1,32,-1
 120 702 l 1,33,-1
 80 1211 l 1,34,-1
 60 1211 l 1,35,36
 58 1212 58 1212 58 1221 c 0,37,38
 58 1240 58 1240 72.5 1267 c 128,-1,39
 87 1294 87 1294 100 1304 c 1,40,41
 100 1323 100 1323 130 1338.5 c 128,-1,42
 160 1354 160 1354 160 1375 c 1,43,44
 168 1375 168 1375 191 1396.5 c 128,-1,45
 214 1418 214 1418 245 1443.5 c 128,-1,46
 276 1469 276 1469 339.5 1490.5 c 128,-1,47
 403 1512 403 1512 481 1512 c 0,48,49
 490 1512 490 1512 518 1490 c 1,50,-1
 536 1512 l 1,51,52
 557 1512 557 1512 599 1501 c 128,-1,53
 641 1490 641 1490 663 1490 c 1,54,55
 725 1445 725 1445 772.5 1400.5 c 128,-1,56
 820 1356 820 1356 864 1297.5 c 128,-1,57
 908 1239 908 1239 932 1168 c 128,-1,58
 956 1097 956 1097 956 1018 c 2,59,-1
 956 817 l 2,60,61
 956 768 956 768 927 684 c 128,-1,62
 898 600 898 600 898 564 c 1,63,-1
 874 531 l 1,64,65
 883 517 883 517 913.5 451 c 128,-1,66
 944 385 944 385 944 377 c 2,67,-1
 944 238 l 1,68,-1
 924 238 l 1,69,70
 924 208 924 208 919 185.5 c 128,-1,71
 914 163 914 163 908.5 152 c 128,-1,72
 903 141 903 141 887.5 117.5 c 128,-1,73
 872 94 872 94 863 77 c 1,74,75
 863 60 863 60 848 37.5 c 128,-1,76
 833 15 833 15 818 -16.5 c 128,-1,77
 803 -48 803 -48 803 -86 c 1,78,-1
 782 -73 l 1,79,-1
 782 -86 l 1,80,81
 747 -63 747 -63 743 -63 c 0,82,83
 729 -63 729 -63 705 -74.5 c 128,-1,84
 681 -86 681 -86 669 -86 c 1,85,-1
 669 -63 l 1,86,-1
 614 -63 l 1,87,-1
 614 -86 l 1,88,-1
 596 -86 l 1,89,-1
 577 -63 l 1,90,-1
 577 -86 l 1,91,-1
 504 -86 l 1,92,-1
 466 -113 l 1,93,-1
 414 -109 l 1,94,-1
 343 -16 l 1,95,96
 343 7 343 7 331 34 c 128,-1,97
 319 61 319 61 294 98.5 c 128,-1,98
 269 136 269 136 266 142 c 1,99,-1
 266 192 l 1,100,-1
 252 205 l 1,101,-1
 246 192 l 1,102,-1
 226 192 l 1,103,104
 226 206 226 206 246 225 c 128,-1,105
 266 244 266 244 266 261 c 1,106,107
 314 261 314 261 343 284 c 1,108,-1
 523 284 l 1,109,-1
 523 309 l 1,110,-1
 543 309 l 1,111,-1
 543 238 l 1,112,-1
 559 217 l 1,113,-1
 543 192 l 1,114,115
 543 168 543 168 574 168 c 2,116,-1
 577 168 l 1,117,-1
 600 146 l 1,118,-1
 632 146 l 1,119,-1
 669 217 l 1,120,-1
 669 261 l 1,121,-1
 648 284 l 1,122,-1
 648 406 l 1,123,-1
 632 383 l 1,124,-1
 614 406 l 1,125,126
 524 406 524 406 443 416 c 1,127,-1
 449 428 l 1,128,-1
 441 418 l 1,129,-1
 419 485 l 1,0,-1
EndSplineSet
EndChar

StartChar: four
Encoding: 52 52 25
Width: 955
GlyphClass: 2
Flags: W
LayerCount: 2
Fore
SplineSet
514 -55 m 1,0,-1
 519 -58 l 1,1,2
 514 -58 514 -58 514 -55 c 1,0,-1
152 -26 m 1,3,4
 128 -27 128 -27 126 -16 c 1,5,-1
 96 -43 l 1,6,-1
 67 -16 l 1,7,-1
 127 394 l 1,8,-1
 152 416 l 1,9,-1
 133 416 l 1,10,-1
 120 440 l 1,11,-1
 152 485 l 1,12,-1
 131 485 l 1,13,14
 145 528 145 528 158.5 622 c 128,-1,15
 172 716 172 716 187 762 c 1,16,-1
 166 762 l 1,17,-1
 168 770 l 1,18,-1
 133 786 l 1,19,-1
 171 855 l 1,20,-1
 153 855 l 1,21,-1
 136 878 l 1,22,23
 145 910 145 910 156.5 999 c 128,-1,24
 168 1088 168 1088 187 1133 c 1,25,-1
 171 1156 l 1,26,-1
 180 1180 l 1,27,-1
 166 1204 l 1,28,29
 179 1267 179 1267 210 1296 c 1,30,-1
 190 1296 l 1,31,-1
 178 1320 l 1,32,-1
 194 1320 l 1,33,-1
 218 1342 l 1,34,-1
 238 1342 l 1,35,-1
 245 1367 l 1,36,-1
 205 1367 l 1,37,-1
 208 1387 l 1,38,-1
 198 1411 l 1,39,40
 177 1411 177 1411 161.5 1422.5 c 128,-1,41
 146 1434 146 1434 140 1445.5 c 128,-1,42
 134 1457 134 1457 123.5 1482.5 c 128,-1,43
 113 1508 113 1508 109 1517 c 1,44,45
 192 1517 192 1517 341 1511 c 128,-1,46
 490 1505 490 1505 560 1505 c 1,47,-1
 575 1486 l 1,48,-1
 579 1505 l 1,49,-1
 600 1515 l 1,50,-1
 597 1505 l 1,51,-1
 615 1505 l 1,52,-1
 620 1527 l 1,53,-1
 638 1527 l 1,54,-1
 650 1505 l 1,55,-1
 706 1505 l 1,56,-1
 694 1527 l 1,57,-1
 913 1527 l 1,58,59
 907 1511 907 1511 896 1500 c 128,-1,60
 885 1489 885 1489 860 1474.5 c 128,-1,61
 835 1460 835 1460 834 1459 c 1,62,63
 813 1459 813 1459 778 1435 c 128,-1,64
 743 1411 743 1411 722 1411 c 1,65,-1
 727 1395 l 1,66,-1
 625 1250 l 1,67,-1
 607 1250 l 1,68,-1
 600 1226 l 1,69,-1
 619 1226 l 1,70,71
 620 1223 620 1223 622 1217 c 128,-1,72
 624 1211 624 1211 625.5 1205 c 128,-1,73
 627 1199 627 1199 627 1195 c 0,74,75
 627 1093 627 1093 574 1041 c 1,76,77
 569 1020 569 1020 558 981.5 c 128,-1,78
 547 943 547 943 539.5 911 c 128,-1,79
 532 879 532 879 529 849 c 1,80,-1
 541 834 l 1,81,-1
 449 462 l 1,82,-1
 464 440 l 1,83,-1
 433 431 l 1,84,-1
 452 394 l 1,85,-1
 426 344 l 1,86,-1
 433 309 l 1,87,-1
 449 322 l 1,88,89
 496 285 496 285 546 282 c 1,90,-1
 550 387 l 1,91,-1
 560 387 l 1,92,93
 533 467 533 467 533 513 c 0,94,95
 533 522 533 522 534.5 551.5 c 128,-1,96
 536 581 536 581 536 605 c 1,97,-1
 516 623 l 1,98,-1
 522 638 l 1,99,-1
 508 623 l 1,100,-1
 499 638 l 1,101,102
 520 638 520 638 559 655.5 c 128,-1,103
 598 673 598 673 620 673 c 1,104,-1
 630 656 l 1,105,106
 642 656 642 656 670 664.5 c 128,-1,107
 698 673 698 673 713 673 c 1,108,109
 725 655 725 655 751.5 649.5 c 128,-1,110
 778 644 778 644 810.5 643.5 c 128,-1,111
 843 643 843 643 858 638 c 1,112,-1
 813 556 l 1,113,-1
 825 556 l 1,114,115
 804 527 804 527 778 439 c 1,116,-1
 790 421 l 1,117,-1
 766 274 l 1,118,-1
 790 278 l 1,119,-1
 930 278 l 1,120,-1
 908 230 l 1,121,-1
 885 230 l 1,122,-1
 906 207 l 1,123,-1
 885 207 l 1,124,-1
 885 -94 l 1,125,-1
 841 -94 l 1,126,-1
 827 -58 l 1,127,-1
 797 -58 l 1,128,-1
 780 -94 l 1,129,-1
 738 -94 l 1,130,-1
 747 -134 l 1,131,-1
 723 -150 l 1,132,133
 736 -170 736 -170 736 -176 c 0,134,135
 736 -212 736 -212 731.5 -281.5 c 128,-1,136
 727 -351 727 -351 727 -387 c 0,137,138
 727 -440 727 -440 734 -482 c 1,139,-1
 713 -462 l 1,140,-1
 713 -471 l 1,141,142
 665 -441 665 -441 650 -403 c 1,143,-1
 610 -452 l 1,144,145
 585 -419 585 -419 585 -323 c 0,146,147
 585 -308 585 -308 586 -281.5 c 128,-1,148
 587 -255 587 -255 587 -245 c 0,149,150
 587 -176 587 -176 560 -24 c 1,151,-1
 554 -24 l 1,152,-1
 552 -48 l 1,153,154
 538 -55 538 -55 529 -55 c 0,155,156
 516 -55 516 -55 491 -44 c 128,-1,157
 466 -33 466 -33 452 -33 c 1,158,-1
 435 -35 l 1,159,-1
 414 -58 l 1,160,-1
 414 -24 l 1,161,-1
 358 -24 l 1,162,-1
 359 -2 l 1,163,-1
 305 -2 l 2,164,165
 279 -2 279 -2 228 -14 c 128,-1,166
 177 -26 177 -26 152 -26 c 1,3,4
EndSplineSet
EndChar

StartChar: five
Encoding: 53 53 26
Width: 1195
GlyphClass: 2
Flags: W
LayerCount: 2
Fore
SplineSet
542 632 m 1,0,-1
 898 632 l 1,1,2
 887 594 887 594 887 564 c 1,3,-1
 865 531 l 1,4,5
 874 516 874 516 902.5 450.5 c 128,-1,6
 931 385 931 385 931 377 c 2,7,-1
 931 238 l 1,8,-1
 911 238 l 1,9,10
 911 208 911 208 906.5 186 c 128,-1,11
 902 164 902 164 896.5 152.5 c 128,-1,12
 891 141 891 141 877.5 117.5 c 128,-1,13
 864 94 864 94 855 77 c 1,14,15
 855 60 855 60 841.5 37.5 c 128,-1,16
 828 15 828 15 814.5 -16.5 c 128,-1,17
 801 -48 801 -48 801 -86 c 1,18,-1
 782 -73 l 1,19,-1
 782 -86 l 1,20,21
 753 -63 753 -63 747 -63 c 0,22,23
 734 -63 734 -63 711 -74.5 c 128,-1,24
 688 -86 688 -86 676 -86 c 1,25,-1
 676 -63 l 1,26,-1
 621 -63 l 1,27,-1
 621 -86 l 1,28,-1
 603 -86 l 1,29,-1
 584 -63 l 1,30,-1
 584 -86 l 1,31,-1
 511 -86 l 1,32,-1
 474 -113 l 1,33,-1
 421 -109 l 1,34,-1
 350 -16 l 1,35,36
 350 7 350 7 337.5 34 c 128,-1,37
 325 61 325 61 300.5 98 c 128,-1,38
 276 135 276 135 272 142 c 1,39,-1
 272 192 l 1,40,-1
 258 205 l 1,41,-1
 252 192 l 1,42,-1
 232 192 l 1,43,44
 232 206 232 206 252 225 c 128,-1,45
 272 244 272 244 272 261 c 1,46,47
 321 261 321 261 350 284 c 1,48,-1
 530 284 l 1,49,-1
 530 309 l 1,50,-1
 550 309 l 1,51,-1
 550 238 l 1,52,-1
 566 217 l 1,53,-1
 550 192 l 1,54,55
 550 168 550 168 582 168 c 2,56,-1
 584 168 l 1,57,-1
 607 146 l 1,58,-1
 639 146 l 1,59,-1
 676 217 l 1,60,-1
 676 261 l 1,61,-1
 655 284 l 1,62,-1
 655 406 l 1,63,-1
 639 383 l 1,64,-1
 621 406 l 1,65,66
 531 406 531 406 450 416 c 1,67,-1
 457 428 l 1,68,-1
 448 418 l 1,69,-1
 426 404 l 1,70,-1
 426 428 l 1,71,-1
 182 428 l 1,72,73
 181 434 181 434 177 444 c 128,-1,74
 173 454 173 454 172 459 c 1,75,-1
 186 503 l 1,76,-1
 141 515 l 1,77,-1
 140 517 l 1,78,-1
 144 531 l 1,79,-1
 140 531 l 1,80,81
 132 569 132 569 136 597 c 0,82,83
 136 602 136 602 138 605 c 1,84,-1
 120 712 l 1,85,86
 107 706 107 706 96 706 c 0,87,88
 94 706 94 706 91 706.5 c 128,-1,89
 88 707 88 707 86 707 c 1,90,-1
 110 795 l 1,91,-1
 124 795 l 1,92,93
 134 851 134 851 123 926 c 128,-1,94
 112 1001 112 1001 104 1051.5 c 128,-1,95
 96 1102 96 1102 116 1188 c 1,96,-1
 134 1188 l 1,97,-1
 142 1212 l 1,98,99
 140 1211 140 1211 136 1211 c 0,100,101
 128 1211 128 1211 122 1224 c 128,-1,102
 116 1237 116 1237 110.5 1258 c 128,-1,103
 105 1279 105 1279 104 1280 c 1,104,105
 114 1313 114 1313 110 1396 c 128,-1,106
 106 1479 106 1479 110 1512 c 1,107,108
 142 1513 142 1513 281 1519 c 128,-1,109
 420 1525 420 1525 488 1525 c 128,-1,110
 556 1525 556 1525 685 1507.5 c 128,-1,111
 814 1490 814 1490 880 1490 c 0,112,113
 918 1490 918 1490 1003 1484 c 128,-1,114
 1088 1478 1088 1478 1133 1478 c 2,115,-1
 1149 1478 l 1,116,117
 1091 1151 1091 1151 1045 760 c 1,118,-1
 929 768 l 1,119,-1
 936 793 l 1,120,-1
 913 768 l 1,121,122
 882 777 882 777 766 783 c 128,-1,123
 650 789 650 789 553.5 801 c 128,-1,124
 457 813 457 813 445 837 c 1,125,126
 446 832 446 832 449.5 814 c 128,-1,127
 453 796 453 796 454 786.5 c 128,-1,128
 455 777 455 777 455 763 c 128,-1,129
 455 749 455 749 452 738 c 1,130,131
 452 733 452 733 447 726 c 1,132,133
 451 715 451 715 453 694 c 1,134,-1
 448 683 l 1,135,-1
 453 647 l 1,136,-1
 457 635 l 1,137,-1
 472 630 l 1,138,-1
 462 610 l 2,139,140
 462 609 462 609 463 607.5 c 128,-1,141
 464 606 464 606 464 605 c 1,142,-1
 507 605 l 1,143,-1
 525 587 l 1,144,-1
 525 605 l 1,145,-1
 542 632 l 1,0,-1
EndSplineSet
EndChar

StartChar: six
Encoding: 54 54 27
Width: 1193
GlyphClass: 2
Flags: W
LayerCount: 2
Fore
SplineSet
514 255 m 1,0,-1
 514 233 l 1,1,2
 527 233 527 233 533 245 c 1,3,4
 533 225 533 225 549 209 c 1,5,6
 541 209 541 209 537.5 207 c 128,-1,7
 534 205 534 205 533.5 201 c 128,-1,8
 533 197 533 197 533 187 c 1,9,-1
 549 187 l 1,10,11
 552 155 552 155 589 141 c 1,12,-1
 586 118 l 1,13,-1
 604 141 l 1,14,-1
 622 141 l 1,15,16
 622 131 622 131 627.5 124.5 c 128,-1,17
 633 118 633 118 641 118 c 1,18,-1
 641 141 l 1,19,20
 665 141 665 141 689.5 153.5 c 128,-1,21
 714 166 714 166 727 187 c 1,22,-1
 742 187 l 1,23,24
 730 194 730 194 730 226 c 0,25,26
 730 237 730 237 731.5 255 c 128,-1,27
 733 273 733 273 733 278 c 2,28,-1
 730 365 l 1,29,30
 711 365 711 365 674 377 c 128,-1,31
 637 389 637 389 618 389 c 0,32,33
 613 389 613 389 610 387 c 1,34,-1
 595 387 l 2,35,36
 547 387 547 387 508 363 c 1,37,38
 509 355 509 355 511 336 c 128,-1,39
 513 317 513 317 515 306 c 128,-1,40
 517 295 517 295 520.5 280 c 128,-1,41
 524 265 524 265 530 253 c 1,42,-1
 514 255 l 1,0,-1
814 -113 m 1,43,-1
 811 -113 l 1,44,-1
 811 -91 l 1,45,-1
 791 -81 l 1,46,-1
 770 -113 l 1,47,-1
 745 -125 l 1,48,-1
 730 -113 l 1,49,-1
 714 -138 l 1,50,-1
 695 -138 l 1,51,-1
 695 -161 l 1,52,-1
 676 -176 l 1,53,-1
 676 -138 l 1,54,-1
 659 -161 l 1,55,-1
 622 -113 l 1,56,-1
 586 -113 l 1,57,-1
 586 -91 l 1,58,-1
 570 -91 l 1,59,-1
 570 -113 l 1,60,61
 548 -141 548 -141 547 -185 c 1,62,63
 538 -185 538 -185 531 -179 c 128,-1,64
 524 -173 524 -173 520.5 -158.5 c 128,-1,65
 517 -144 517 -144 516 -138 c 128,-1,66
 515 -132 515 -132 513 -116 c 1,67,-1
 496 -91 l 1,68,-1
 478 -91 l 1,69,70
 478 -116 478 -116 466.5 -137 c 128,-1,71
 455 -158 455 -158 435 -158 c 2,72,-1
 425 -158 l 1,73,-1
 405 -138 l 1,74,-1
 423 -138 l 1,75,-1
 423 -113 l 1,76,-1
 388 -113 l 1,77,-1
 370 -91 l 1,78,79
 343 -89 343 -89 337 -24 c 1,80,-1
 319 -35 l 1,81,82
 301 -31 301 -31 272 60 c 128,-1,83
 243 151 243 151 224 168 c 1,84,85
 218 233 218 233 216 298 c 128,-1,86
 214 363 214 363 210.5 388 c 128,-1,87
 207 413 207 413 191 469.5 c 128,-1,88
 175 526 175 526 136 632 c 1,89,-1
 154 627 l 1,90,91
 131 649 131 649 105.5 847 c 128,-1,92
 80 1045 80 1045 80 1118 c 0,93,94
 80 1126 80 1126 79 1139 c 128,-1,95
 78 1152 78 1152 78 1158 c 0,96,97
 78 1182 78 1182 95 1204 c 1,98,-1
 91 1296 l 1,99,-1
 168 1367 l 1,100,-1
 213 1367 l 1,101,102
 213 1419 213 1419 267.5 1453.5 c 128,-1,103
 322 1488 322 1488 376 1488 c 0,104,105
 389 1488 389 1488 405 1484 c 1,106,107
 411 1491 411 1491 417.5 1495.5 c 128,-1,108
 424 1500 424 1500 433 1502 c 128,-1,109
 442 1504 442 1504 447 1505 c 128,-1,110
 452 1506 452 1506 464.5 1506.5 c 128,-1,111
 477 1507 477 1507 480 1507 c 1,112,-1
 478 1484 l 1,113,-1
 496 1484 l 1,114,115
 496 1508 496 1508 510 1508 c 2,116,-1
 533 1507 l 1,117,-1
 496 1438 l 1,118,-1
 535 1484 l 1,119,-1
 570 1462 l 1,120,-1
 549 1484 l 1,121,-1
 549 1507 l 1,122,-1
 586 1484 l 1,123,124
 616 1495 616 1495 626 1495 c 0,125,126
 745 1495 745 1495 837.5 1451.5 c 128,-1,127
 930 1408 930 1408 998 1328.5 c 128,-1,128
 1066 1249 1066 1249 1128 1122 c 1,129,130
 1093 1017 1093 1017 1093 979 c 0,131,132
 1093 949 1093 949 1088.5 920.5 c 128,-1,133
 1084 892 1084 892 1073.5 859.5 c 128,-1,134
 1063 827 1063 827 1056 808 c 128,-1,135
 1049 789 1049 789 1032 749.5 c 128,-1,136
 1015 710 1015 710 1010 697 c 1,137,-1
 1026 578 l 1,138,-1
 1045 558 l 1,139,-1
 973 556 l 1,140,141
 833 551 833 551 797 597 c 1,142,-1
 695 600 l 1,143,144
 676 628 676 628 676 659 c 2,145,-1
 676 673 l 1,146,-1
 695 673 l 1,147,-1
 657 717 l 1,148,-1
 676 742 l 1,149,-1
 659 742 l 1,150,-1
 641 766 l 1,151,-1
 641 801 l 1,152,-1
 622 789 l 1,153,154
 606 832 606 832 571 832 c 1,155,-1
 549 858 l 1,156,-1
 533 834 l 1,157,-1
 496 834 l 1,158,159
 496 830 496 830 497 820 c 128,-1,160
 498 810 498 810 498 805 c 0,161,162
 498 776 498 776 488 717.5 c 128,-1,163
 478 659 478 659 478 628 c 1,164,-1
 459 627 l 1,165,-1
 459 602 l 1,166,-1
 478 580 l 2,167,168
 478 579 478 579 479 574.5 c 128,-1,169
 480 570 480 570 480 568 c 0,170,171
 480 546 480 546 468 526 c 1,172,173
 481 528 481 528 526.5 538 c 128,-1,174
 572 548 572 548 595 548 c 0,175,176
 640 548 640 548 724.5 521.5 c 128,-1,177
 809 495 809 495 856 495 c 0,178,179
 952 495 952 495 993 455 c 128,-1,180
 1034 415 1034 415 1034 317 c 0,181,182
 1034 260 1034 260 1011 211 c 1,183,184
 1020 76 1020 76 1020 75 c 0,185,186
 1020 17 1020 17 1013.5 -16.5 c 128,-1,187
 1007 -50 1007 -50 989.5 -68.5 c 128,-1,188
 972 -87 972 -87 953.5 -95.5 c 128,-1,189
 935 -104 935 -104 899 -121 c 128,-1,190
 863 -138 863 -138 832 -161 c 1,191,-1
 814 -113 l 1,43,-1
676 -138 m 1,192,-1
 695 -138 l 1,193,-1
 695 -113 l 1,194,-1
 676 -138 l 1,192,-1
EndSplineSet
EndChar

StartChar: seven
Encoding: 55 55 28
Width: 1278
GlyphClass: 2
Flags: W
LayerCount: 2
Fore
SplineSet
1272 1512 m 1,0,1
 1258 1476 1258 1476 1243 1407.5 c 128,-1,2
 1228 1339 1228 1339 1209.5 1288.5 c 128,-1,3
 1191 1238 1191 1238 1159 1211 c 1,4,5
 1156 1211 1156 1211 1154 1212 c 1,6,-1
 1154 1188 l 1,7,-1
 1173 1188 l 1,8,9
 1173 1125 1173 1125 1146.5 1057.5 c 128,-1,10
 1120 990 1120 990 1088.5 920.5 c 128,-1,11
 1057 851 1057 851 1050 795 c 1,12,-1
 1066 795 l 1,13,-1
 1095 748 l 1,14,15
 1093 748 1093 748 1090 747 c 128,-1,16
 1087 746 1087 746 1086 746 c 0,17,18
 1072 746 1072 746 1062 752 c 1,19,-1
 1038 726 l 1,20,-1
 1038 719 l 2,21,22
 1038 706 1038 706 1031.5 684 c 128,-1,23
 1025 662 1025 662 1016 640.5 c 128,-1,24
 1007 619 1007 619 993 588 c 128,-1,25
 979 557 979 557 970.5 540.5 c 128,-1,26
 962 524 962 524 948.5 497.5 c 128,-1,27
 935 471 935 471 935 470 c 2,28,-1
 927 472 l 2,29,30
 933 470 933 470 933 456 c 0,31,32
 933 438 933 438 909.5 394.5 c 128,-1,33
 886 351 886 351 855 302 c 128,-1,34
 824 253 824 253 818 240 c 1,35,-1
 818 195 l 1,36,37
 772 107 772 107 728 -1.5 c 128,-1,38
 684 -110 684 -110 677 -178 c 1,39,40
 668 -181 668 -181 650.5 -187 c 128,-1,41
 633 -193 633 -193 624 -196 c 128,-1,42
 615 -199 615 -199 600.5 -201.5 c 128,-1,43
 586 -204 586 -204 573 -204 c 0,44,45
 570 -204 570 -204 564 -202.5 c 128,-1,46
 558 -201 558 -201 554 -201 c 1,47,-1
 599 -186 l 1,48,-1
 564 -186 l 1,49,-1
 576 -183 l 1,50,51
 576 -180 576 -180 573 -180 c 2,52,-1
 568 -180 l 1,53,-1
 530 -176 l 1,54,-1
 405 -176 l 1,55,-1
 393 -154 l 1,56,57
 469 -41 469 -41 476 55 c 1,58,-1
 475 31 l 1,59,-1
 543 195 l 1,60,-1
 530 195 l 1,61,62
 552 244 552 244 584.5 337.5 c 128,-1,63
 617 431 617 431 632 469 c 1,64,-1
 627 488 l 1,65,-1
 643 493 l 1,66,-1
 664 541 l 1,67,-1
 657 564 l 1,68,69
 672 594 672 594 700 630 c 1,70,71
 703 682 703 682 730 726 c 1,72,73
 727 731 727 731 727 738 c 0,74,75
 727 749 727 749 731 763 c 128,-1,76
 735 777 735 777 738.5 786 c 128,-1,77
 742 795 742 795 750 814 c 128,-1,78
 758 833 758 833 760 837 c 1,79,80
 742 813 742 813 642.5 801 c 128,-1,81
 543 789 543 789 425.5 783 c 128,-1,82
 308 777 308 777 275 768 c 1,83,-1
 259 793 l 1,84,-1
 259 768 l 1,85,-1
 141 760 l 1,86,87
 109 1135 109 1135 34 1459 c 1,88,-1
 48 1459 l 2,89,90
 93 1459 93 1459 183 1474.5 c 128,-1,91
 273 1490 273 1490 311 1490 c 0,92,93
 403 1490 403 1490 600.5 1507.5 c 128,-1,94
 798 1525 798 1525 894 1525 c 0,95,96
 962 1525 962 1525 1101 1519 c 128,-1,97
 1240 1513 1240 1513 1272 1512 c 1,0,1
EndSplineSet
EndChar

StartChar: eight
Encoding: 56 56 29
Width: 941
GlyphClass: 2
Flags: W
LayerCount: 2
Fore
SplineSet
501 623 m 1,0,-1
 501 637 l 1,1,-1
 522 632 l 1,2,-1
 516 620 l 1,3,-1
 520 615 l 1,4,5
 520 624 520 624 522.5 627.5 c 128,-1,6
 525 631 525 631 528 632 c 128,-1,7
 531 633 531 633 534 635.5 c 128,-1,8
 537 638 537 638 539.5 649 c 128,-1,9
 542 660 542 660 542 679 c 0,10,11
 542 694 542 694 539 726 c 128,-1,12
 536 758 536 758 536 773 c 0,13,14
 536 790 536 790 548 796 c 1,15,16
 538 805 538 805 538 832 c 0,17,18
 538 834 538 834 539 839 c 128,-1,19
 540 844 540 844 540 845 c 0,20,21
 523 865 523 865 485.5 868 c 128,-1,22
 448 871 448 871 428 892 c 1,23,-1
 428 868 l 1,24,-1
 394 868 l 1,25,-1
 411 845 l 1,26,-1
 394 845 l 1,27,-1
 394 837 l 2,28,29
 394 825 394 825 396 822 c 1,30,-1
 400 824 l 1,31,32
 411 824 411 824 411 740 c 2,33,-1
 411 706 l 1,34,-1
 394 685 l 1,35,-1
 411 685 l 1,36,-1
 411 661 l 1,37,38
 417 661 417 661 458.5 645 c 128,-1,39
 500 629 500 629 501 623 c 1,0,-1
520 360 m 1,40,41
 507 377 507 377 472.5 379.5 c 128,-1,42
 438 382 438 382 428 406 c 1,43,44
 428 391 428 391 422.5 387.5 c 128,-1,45
 417 384 417 384 411 386 c 128,-1,46
 405 388 405 388 399.5 377 c 128,-1,47
 394 366 394 366 394 337 c 1,48,-1
 374 337 l 1,49,-1
 374 312 l 1,50,51
 394 312 394 312 394 253 c 2,52,-1
 394 152 l 1,53,54
 398 152 398 152 404 152 c 0,55,56
 439 152 439 152 455.5 148.5 c 128,-1,57
 472 145 472 145 501 128 c 1,58,-1
 494 128 l 1,59,-1
 501 116 l 1,60,61
 501 150 501 150 520 174 c 1,62,-1
 520 255 l 2,63,64
 520 268 520 268 528 268 c 2,65,-1
 540 268 l 1,66,67
 540 277 540 277 529 290.5 c 128,-1,68
 518 304 518 304 518 329 c 0,69,70
 518 347 518 347 520 360 c 1,40,41
394 1517 m 0,71,72
 429 1517 429 1517 446 1517 c 128,-1,73
 463 1517 463 1517 506.5 1515 c 128,-1,74
 550 1513 550 1513 576 1509.5 c 128,-1,75
 602 1506 602 1506 643.5 1498 c 128,-1,76
 685 1490 685 1490 711 1479 c 128,-1,77
 737 1468 737 1468 768.5 1450 c 128,-1,78
 800 1432 800 1432 817.5 1409.5 c 128,-1,79
 835 1387 835 1387 847.5 1355.5 c 128,-1,80
 860 1324 860 1324 860 1286 c 0,81,82
 860 1193 860 1193 833.5 1018 c 128,-1,83
 807 843 807 843 782 715 c 2,84,-1
 756 587 l 1,85,86
 744 587 744 587 740 600 c 1,87,88
 740 559 740 559 721 539 c 128,-1,89
 702 519 702 519 660 498 c 1,90,91
 704 498 704 498 722 456 c 128,-1,92
 740 414 740 414 740 360 c 0,93,94
 740 313 740 313 730 220 c 128,-1,95
 720 127 720 127 720 81 c 1,96,97
 715 74 715 74 697 33 c 128,-1,98
 679 -8 679 -8 660 -35.5 c 128,-1,99
 641 -63 641 -63 622 -63 c 2,100,-1
 616 -63 l 1,101,-1
 624 -70 l 1,102,103
 588 -84 588 -84 570 -84 c 0,104,105
 568 -84 568 -84 563.5 -82.5 c 128,-1,106
 559 -81 559 -81 558 -81 c 1,107,-1
 558 -58 l 1,108,-1
 542 -77 l 1,109,-1
 556 -81 l 1,110,-1
 540 -81 l 1,111,-1
 542 -77 l 1,112,113
 534 -73 534 -73 513.5 -61 c 128,-1,114
 493 -49 493 -49 477 -42 c 128,-1,115
 461 -35 461 -35 448 -35 c 0,116,117
 434 -35 434 -35 422.5 -100.5 c 128,-1,118
 411 -166 411 -166 411 -196 c 1,119,120
 390 -196 390 -196 390 -132 c 0,121,122
 390 -92 390 -92 394 -70 c 1,123,-1
 376 -53 l 1,124,-1
 376 -76 l 1,125,-1
 356 -76 l 2,126,127
 348 -76 348 -76 332.5 -71 c 128,-1,128
 317 -66 317 -66 314 -65 c 1,129,-1
 318 -58 l 1,130,131
 299 -58 299 -58 279.5 -31 c 128,-1,132
 260 -4 260 -4 240 38.5 c 128,-1,133
 220 81 220 81 216 87 c 1,134,135
 216 135 216 135 206 226.5 c 128,-1,136
 196 318 196 318 196 365 c 0,137,138
 196 398 196 398 202 427 c 128,-1,139
 208 456 208 456 227.5 480.5 c 128,-1,140
 247 505 247 505 278 505 c 1,141,142
 236 522 236 522 216 542.5 c 128,-1,143
 196 563 196 563 196 605 c 1,144,-1
 188 594 l 1,145,-1
 176 596 l 1,146,147
 176 609 176 609 151 740.5 c 128,-1,148
 126 872 126 872 101 1035.5 c 128,-1,149
 76 1199 76 1199 76 1291 c 0,150,151
 76 1353 76 1353 107.5 1399.5 c 128,-1,152
 139 1446 139 1446 189 1470 c 128,-1,153
 239 1494 239 1494 290.5 1505.5 c 128,-1,154
 342 1517 342 1517 394 1517 c 0,71,72
EndSplineSet
EndChar

StartChar: nine
Encoding: 57 57 30
Width: 1198
GlyphClass: 2
Flags: W
LayerCount: 2
Fore
SplineSet
689 742 m 0,0,1
 690 763 690 763 673 786 c 128,-1,2
 656 809 656 809 654 813 c 2,3,-1
 643 837 l 1,4,5
 640 837 640 837 637.5 830.5 c 128,-1,6
 635 824 635 824 635 820 c 1,7,-1
 594 865 l 1,8,-1
 562 865 l 2,9,10
 549 865 549 865 543 861.5 c 128,-1,11
 537 858 537 858 527 845 c 1,12,-1
 525 817 l 1,13,14
 505 817 505 817 505 781 c 0,15,16
 505 752 505 752 528.5 710 c 128,-1,17
 552 668 552 668 575 666 c 1,18,-1
 580 656 l 1,19,-1
 599 679 l 1,20,21
 638 668 638 668 682 666 c 1,22,23
 683 673 683 673 686 700.5 c 128,-1,24
 689 728 689 728 689 742 c 0,0,1
651 -168 m 1,25,-1
 635 -158 l 1,26,27
 635 -87 635 -87 643 -55 c 1,28,-1
 636 -43 l 1,29,-1
 615 -38 l 1,30,31
 580 -38 580 -38 580 -120 c 0,32,33
 580 -148 580 -148 585 -193 c 128,-1,34
 590 -238 590 -238 590 -241 c 0,35,36
 590 -250 590 -250 582 -290 c 1,37,-1
 559 -272 l 1,38,-1
 546 -18 l 1,39,-1
 500 -33 l 1,40,-1
 503 2 l 1,41,42
 494 -9 494 -9 477 -37.5 c 128,-1,43
 460 -66 460 -66 452 -76 c 1,44,-1
 448 -43 l 1,45,-1
 428 -43 l 1,46,-1
 403 -20 l 1,47,-1
 391 -36 l 1,48,-1
 393 -51 l 1,49,50
 393 -71 393 -71 374 -84 c 1,51,52
 362 -82 362 -82 342 -59 c 128,-1,53
 322 -36 322 -36 301 -33 c 1,54,55
 256 3 256 3 234.5 37.5 c 128,-1,56
 213 72 213 72 196.5 119.5 c 128,-1,57
 180 167 180 167 164 197 c 1,58,-1
 166 226 l 2,59,60
 166 240 166 240 150 240 c 0,61,62
 144 240 144 240 136 239 c 128,-1,63
 128 238 128 238 125 238 c 1,64,65
 133 267 133 267 169.5 287 c 128,-1,66
 206 307 206 307 259 315.5 c 128,-1,67
 312 324 312 324 356.5 327.5 c 128,-1,68
 401 331 401 331 449 331.5 c 128,-1,69
 497 332 497 332 500 332 c 1,70,-1
 494 329 l 1,71,-1
 509 329 l 1,72,73
 507 325 507 325 507 312 c 0,74,75
 507 284 507 284 528 284 c 1,76,-1
 523 192 l 1,77,-1
 542 192 l 2,78,79
 558 192 558 192 558 178 c 2,80,-1
 558 170 l 1,81,-1
 580 168 l 1,82,-1
 640 207 l 1,83,84
 642 222 642 222 648.5 235 c 128,-1,85
 655 248 655 248 667 263.5 c 128,-1,86
 679 279 679 279 684 286 c 1,87,-1
 684 434 l 1,88,-1
 503 434 l 1,89,-1
 442 406 l 1,90,-1
 405 419 l 1,91,-1
 387 447 l 1,92,-1
 367 424 l 1,93,94
 350 439 350 439 312.5 448.5 c 128,-1,95
 275 458 275 458 262 469 c 0,96,97
 161 554 161 554 121 662.5 c 128,-1,98
 81 771 81 771 81 923 c 0,99,100
 81 956 81 956 96 1005 c 1,101,102
 87 1020 87 1020 87 1043 c 128,-1,103
 87 1066 87 1066 98 1098 c 128,-1,104
 109 1130 109 1130 120 1151.5 c 128,-1,105
 131 1173 131 1173 149.5 1205.5 c 128,-1,106
 168 1238 168 1238 169 1241 c 1,107,-1
 169 1251 l 2,108,109
 169 1275 169 1275 189 1293 c 128,-1,110
 209 1311 209 1311 232 1316 c 1,111,112
 270 1388 270 1388 319.5 1428 c 128,-1,113
 369 1468 369 1468 415.5 1477.5 c 128,-1,114
 462 1487 462 1487 504.5 1488.5 c 128,-1,115
 547 1490 547 1490 581.5 1495.5 c 128,-1,116
 616 1501 616 1501 630 1522 c 1,117,118
 660 1508 660 1508 700 1506 c 128,-1,119
 740 1504 740 1504 780.5 1498 c 128,-1,120
 821 1492 821 1492 858 1468 c 1,121,122
 851 1461 851 1461 851 1456 c 0,123,124
 851 1443 851 1443 866 1426 c 128,-1,125
 881 1409 881 1409 895 1399 c 1,126,-1
 909 1419 l 1,127,128
 954 1395 954 1395 992.5 1359.5 c 128,-1,129
 1031 1324 1031 1324 1078 1270 c 1,130,-1
 1069 1234 l 1,131,-1
 1049 1234 l 1,132,133
 1110 1047 1110 1047 1110 766 c 0,134,135
 1110 691 1110 691 1091.5 615 c 128,-1,136
 1073 539 1073 539 1051 489.5 c 128,-1,137
 1029 440 1029 440 1010.5 392 c 128,-1,138
 992 344 992 344 992 319 c 0,139,140
 992 306 992 306 997 294 c 1,141,-1
 948 261 l 1,142,-1
 968 238 l 1,143,144
 960 208 960 208 945.5 186.5 c 128,-1,145
 931 165 931 165 915 149 c 128,-1,146
 899 133 899 133 883 112.5 c 128,-1,147
 867 92 867 92 852 52 c 128,-1,148
 837 12 837 12 828 -46 c 1,149,150
 837 -53 837 -53 837 -66 c 0,151,152
 837 -76 837 -76 822 -86 c 128,-1,153
 807 -96 807 -96 798 -97 c 1,154,-1
 806 -66 l 1,155,-1
 770 -91 l 1,156,-1
 747 -43 l 1,157,-1
 823 -60 l 1,158,-1
 752 -22 l 1,159,-1
 664 -55 l 1,160,-1
 649 -35 l 1,161,162
 651 -77 651 -77 651 -168 c 1,25,-1
EndSplineSet
EndChar

StartChar: colon
Encoding: 58 58 31
Width: 791
GlyphClass: 2
Flags: W
LayerCount: 2
Fore
SplineSet
176 201 m 1,0,1
 149 268 149 268 137 394 c 128,-1,2
 125 520 125 520 118 556 c 1,3,4
 118 563 118 563 120 578.5 c 128,-1,5
 122 594 122 594 122 600 c 0,6,7
 122 618 122 618 113 631.5 c 128,-1,8
 104 645 104 645 96.5 649.5 c 128,-1,9
 89 654 89 654 69 666 c 1,10,11
 75 669 75 669 110.5 674 c 128,-1,12
 146 679 146 679 153 694 c 1,13,14
 166 694 166 694 272 707 c 128,-1,15
 378 720 378 720 387 727 c 1,16,17
 405 724 405 724 480.5 723.5 c 128,-1,18
 556 723 556 723 596 707 c 1,19,-1
 603 712 l 1,20,21
 626 694 626 694 647 694 c 0,22,23
 656 694 656 694 660 696 c 1,24,25
 658 687 658 687 653 666.5 c 128,-1,26
 648 646 648 646 645.5 634.5 c 128,-1,27
 643 623 643 623 640.5 605.5 c 128,-1,28
 638 588 638 588 638 574 c 0,29,30
 638 532 638 532 664 464 c 1,31,-1
 653 469 l 1,32,33
 641 462 641 462 629 462 c 1,34,35
 653 447 653 447 668 447 c 1,36,-1
 642 113 l 1,37,-1
 631 123 l 1,38,-1
 610 125 l 2,39,40
 609 125 609 125 599.5 121 c 128,-1,41
 590 117 590 117 579 113 c 128,-1,42
 568 109 568 109 566 108 c 1,43,44
 555 112 555 112 541.5 125 c 128,-1,45
 528 138 528 138 511 138 c 0,46,47
 490 138 490 138 449.5 132 c 128,-1,48
 409 126 409 126 404 125 c 1,49,-1
 415 122 l 1,50,51
 409 122 409 122 397 122.5 c 128,-1,52
 385 123 385 123 378 123 c 0,53,54
 365 123 365 123 346 107 c 128,-1,55
 327 91 327 91 315 91 c 0,56,57
 304 91 304 91 281 94.5 c 128,-1,58
 258 98 258 98 246 98 c 0,59,60
 213 98 213 98 205 75 c 1,61,-1
 209 91 l 1,62,-1
 192 106 l 1,63,64
 179 81 179 81 159 81 c 1,65,-1
 176 201 l 1,0,1
410 1150 m 1,66,-1
 415 1135 l 1,67,68
 410 1135 410 1135 398 1136 c 128,-1,69
 386 1137 386 1137 380 1137 c 0,70,71
 341 1137 341 1137 329 1120 c 1,72,73
 239 1112 239 1112 201 1092 c 1,74,-1
 209 1109 l 1,75,-1
 197 1118 l 1,76,77
 178 1094 178 1094 162 1091 c 1,78,-1
 165 1226 l 2,79,80
 165 1251 165 1251 153.5 1306 c 128,-1,81
 142 1361 142 1361 142 1389 c 0,82,83
 142 1470 142 1470 169 1512 c 1,84,85
 150 1513 150 1513 137 1565.5 c 128,-1,86
 124 1618 124 1618 113 1618 c 0,87,88
 109 1618 109 1618 107 1616 c 1,89,90
 106 1638 106 1638 95 1655 c 128,-1,91
 84 1672 84 1672 65 1676 c 1,92,-1
 87 1688 l 1,93,94
 117 1681 117 1681 128 1681 c 0,95,96
 155 1681 155 1681 162 1709 c 1,97,98
 221 1706 221 1706 281 1706 c 0,99,100
 291 1706 291 1706 339 1720 c 128,-1,101
 387 1734 387 1734 395 1741 c 1,102,103
 463 1738 463 1738 499.5 1734.5 c 128,-1,104
 536 1731 536 1731 577.5 1724 c 128,-1,105
 619 1717 619 1717 662 1712 c 1,106,107
 666 1674 666 1674 666 1657 c 0,108,109
 666 1634 666 1634 658.5 1591 c 128,-1,110
 651 1548 651 1548 651 1527 c 0,111,112
 651 1505 651 1505 658 1480 c 1,113,-1
 651 1482 l 2,114,115
 648 1482 648 1482 641 1480 c 128,-1,116
 634 1478 634 1478 633 1478 c 1,117,118
 648 1463 648 1463 664 1460 c 1,119,-1
 670 1150 l 1,120,121
 644 1140 644 1140 610 1140 c 0,122,123
 603 1140 603 1140 588.5 1134 c 128,-1,124
 574 1128 574 1128 566 1128 c 0,125,126
 547 1128 547 1128 494 1139 c 128,-1,127
 441 1150 441 1150 410 1150 c 1,66,-1
EndSplineSet
EndChar

StartChar: semicolon
Encoding: 59 59 32
Width: 770
GlyphClass: 2
Flags: W
LayerCount: 2
Fore
SplineSet
348 1137 m 1,0,-1
 361 1137 l 1,1,2
 365 1140 365 1140 367 1140 c 0,3,4
 370 1140 370 1140 377 1135 c 1,5,-1
 348 1137 l 1,0,-1
307 1130 m 1,6,7
 307 1132 307 1132 302 1132 c 0,8,9
 299 1132 299 1132 249.5 1105 c 128,-1,10
 200 1078 200 1078 170 1077 c 1,11,12
 180 1101 180 1101 189 1112 c 1,13,-1
 179 1118 l 1,14,15
 162 1099 162 1099 145 1099 c 2,16,-1
 140 1099 l 1,17,-1
 151 1231 l 1,18,19
 133 1234 133 1234 133 1313 c 0,20,21
 133 1382 133 1382 152 1431 c 1,22,23
 136 1431 136 1431 136 1462 c 0,24,25
 136 1466 136 1466 143 1508 c 1,26,27
 127 1515 127 1515 120.5 1536 c 128,-1,28
 114 1557 114 1557 113 1594.5 c 128,-1,29
 112 1632 112 1632 112 1635 c 1,30,-1
 88 1616 l 1,31,32
 88 1633 88 1633 75.5 1657 c 128,-1,33
 63 1681 63 1681 49 1681 c 1,34,-1
 68 1686 l 1,35,-1
 107 1676 l 1,36,37
 123 1697 123 1697 166.5 1707 c 128,-1,38
 210 1717 210 1717 237.5 1718 c 128,-1,39
 265 1719 265 1719 321 1719 c 0,40,41
 344 1719 344 1719 374 1756 c 1,42,43
 387 1754 387 1754 414.5 1751 c 128,-1,44
 442 1748 442 1748 463.5 1745 c 128,-1,45
 485 1742 485 1742 503 1737 c 1,46,47
 528 1746 528 1746 534 1746 c 0,48,49
 554 1746 554 1746 597 1720.5 c 128,-1,50
 640 1695 640 1695 652 1691 c 1,51,52
 641 1673 641 1673 641 1661 c 0,53,54
 641 1651 641 1651 646.5 1629.5 c 128,-1,55
 652 1608 652 1608 652 1596 c 0,56,57
 652 1590 652 1590 641 1505 c 1,58,59
 641 1507 641 1507 638 1507 c 0,60,61
 632 1507 632 1507 632 1500 c 0,62,63
 632 1495 632 1495 635.5 1487 c 128,-1,64
 639 1479 639 1479 641 1478 c 2,65,-1
 632 1482 l 1,66,67
 625 1478 625 1478 611 1478 c 1,68,-1
 645 1462 l 1,69,-1
 645 1168 l 1,70,-1
 611 1137 l 1,71,72
 596 1140 596 1140 580 1140 c 0,73,74
 571 1140 571 1140 552.5 1136 c 128,-1,75
 534 1132 534 1132 530 1132 c 0,76,77
 522 1132 522 1132 496.5 1139.5 c 128,-1,78
 471 1147 471 1147 458 1147 c 0,79,80
 370 1147 370 1147 307 1130 c 1,6,7
634 187 m 1,81,-1
 634 164 l 1,82,83
 633 164 633 164 632 165 c 2,84,-1
 647 112 l 1,85,86
 632 92 632 92 587 -316 c 1,87,-1
 388 -294 l 1,88,89
 381 -252 381 -252 381 -192 c 0,90,91
 381 -163 381 -163 386 -152 c 1,92,-1
 386 -135 l 1,93,-1
 388 -147 l 1,94,95
 398 -18 398 -18 416 -10 c 1,96,-1
 427 85 l 1,97,98
 419 86 419 86 383 87 c 128,-1,99
 347 88 347 88 322.5 92.5 c 128,-1,100
 298 97 298 97 282 108 c 1,101,-1
 140 89 l 1,102,103
 140 113 140 113 131 113 c 0,104,105
 126 113 126 113 123 110 c 1,106,107
 108 126 108 126 96 154 c 1,108,109
 121 256 121 256 121 300 c 1,110,-1
 119 312 l 1,111,112
 121 328 121 328 127 360.5 c 128,-1,113
 133 393 133 393 136.5 419 c 128,-1,114
 140 445 140 445 140 469 c 0,115,116
 140 492 140 492 127 535.5 c 128,-1,117
 114 579 114 579 114 597 c 128,-1,118
 114 615 114 615 119 700 c 1,119,-1
 126 700 l 2,120,121
 134 700 134 700 143 689.5 c 128,-1,122
 152 679 152 679 158 679 c 0,123,124
 167 679 167 679 172.5 684 c 128,-1,125
 178 689 178 689 184 700 c 128,-1,126
 190 711 190 711 193 714 c 1,127,128
 310 675 310 675 353 675 c 0,129,130
 372 675 372 675 379 681 c 1,131,-1
 383 659 l 1,132,133
 403 661 403 661 465 680.5 c 128,-1,134
 527 700 527 700 534 700 c 0,135,136
 543 700 543 700 565 688 c 128,-1,137
 587 676 587 676 592 676 c 2,138,-1
 610 676 l 1,139,-1
 639 700 l 1,140,-1
 639 460 l 1,141,-1
 641 460 l 1,142,143
 642 458 642 458 644.5 452 c 128,-1,144
 647 446 647 446 648.5 441 c 128,-1,145
 650 436 650 436 650 434 c 0,146,147
 650 433 650 433 647 358 c 1,148,-1
 641 358 l 1,149,-1
 641 339 l 1,150,-1
 627 330 l 1,151,152
 628 328 628 328 631.5 319.5 c 128,-1,153
 635 311 635 311 638 303.5 c 128,-1,154
 641 296 641 296 641 294 c 0,155,156
 641 262 641 262 636 187 c 1,157,-1
 634 187 l 1,81,-1
EndSplineSet
EndChar

StartChar: less
Encoding: 60 60 33
Width: 941
GlyphClass: 2
Flags: W
LayerCount: 2
Fore
SplineSet
584 549 m 1,0,1
 589 542 589 542 614.5 498 c 128,-1,2
 640 454 640 454 661 437 c 1,3,-1
 663 439 l 1,4,5
 781 298 781 298 880 233 c 1,6,-1
 875 166 l 1,7,8
 856 166 856 166 822 162.5 c 128,-1,9
 788 159 788 159 777 158 c 1,10,11
 774 139 774 139 777 122 c 1,12,13
 714 158 714 158 655 158 c 0,14,15
 638 158 638 158 618 174 c 1,16,-1
 576 174 l 1,17,-1
 557 161 l 1,18,-1
 507 161 l 1,19,20
 489 173 489 173 471 188 c 128,-1,21
 453 203 453 203 438 216.5 c 128,-1,22
 423 230 423 230 404 249.5 c 128,-1,23
 385 269 385 269 373 281.5 c 128,-1,24
 361 294 361 294 342 317 c 128,-1,25
 323 340 323 340 313.5 351 c 128,-1,26
 304 362 304 362 284 388 c 128,-1,27
 264 414 264 414 257 423 c 128,-1,28
 250 432 250 432 229 460 c 128,-1,29
 208 488 208 488 203 495 c 1,30,31
 193 500 193 500 181.5 507.5 c 128,-1,32
 170 515 170 515 162 521 c 128,-1,33
 154 527 154 527 141.5 537.5 c 128,-1,34
 129 548 129 548 122 553 c 1,35,-1
 164 576 l 1,36,37
 159 578 159 578 142 589 c 128,-1,38
 125 600 125 600 113 602 c 1,39,-1
 117 628 l 1,40,41
 84 676 84 676 54 736 c 1,42,-1
 67 756 l 1,43,-1
 67 760 l 2,44,45
 67 786 67 786 99 824.5 c 128,-1,46
 131 863 131 863 168.5 896 c 128,-1,47
 206 929 206 929 234 962 c 128,-1,48
 262 995 262 995 255 1012 c 1,49,50
 282 1027 282 1027 326 1160 c 1,51,-1
 322 1160 l 1,52,-1
 317 1240 l 1,53,-1
 403 1267 l 1,54,-1
 401 1250 l 1,55,56
 407 1247 407 1247 464.5 1249 c 128,-1,57
 522 1251 522 1251 530 1251 c 0,58,59
 584 1251 584 1251 705.5 1248 c 128,-1,60
 827 1245 827 1245 891 1245 c 1,61,-1
 789 1102 l 1,62,63
 756 1094 756 1094 731.5 1067.5 c 128,-1,64
 707 1041 707 1041 701 1005 c 1,65,66
 639 935 639 935 616 870 c 1,67,68
 544 800 544 800 500 716 c 1,69,-1
 524 676 l 1,70,71
 530 672 530 672 547.5 659 c 128,-1,72
 565 646 565 646 576 640 c 1,73,-1
 572 627 l 1,74,75
 584 599 584 599 584 549 c 1,0,1
EndSplineSet
EndChar

StartChar: equal
Encoding: 61 61 34
Width: 994
GlyphClass: 2
Flags: W
LayerCount: 2
Fore
SplineSet
292 587 m 1,0,-1
 207 642 l 1,1,-1
 209 628 l 1,2,3
 209 613 209 613 194 613 c 0,4,5
 157 613 157 613 128 642 c 1,6,-1
 126 837 l 1,7,8
 334 822 334 822 376 822 c 2,9,-1
 417 822 l 1,10,11
 414 824 414 824 412 826 c 1,12,13
 414 825 414 825 417 825 c 0,14,15
 430 825 430 825 457 832 c 128,-1,16
 484 839 484 839 498 839 c 2,17,-1
 554 839 l 2,18,19
 648 839 648 839 713 822 c 1,20,-1
 717 837 l 1,21,-1
 844 842 l 1,22,23
 844 837 844 837 846.5 820.5 c 128,-1,24
 849 804 849 804 849 796 c 2,25,-1
 849 738 l 2,26,27
 849 626 849 626 833 607 c 1,28,-1
 737 592 l 1,29,-1
 738 602 l 1,30,31
 738 616 738 616 731.5 628 c 128,-1,32
 725 640 725 640 713 640 c 1,33,-1
 705 638 l 1,34,-1
 733 615 l 1,35,-1
 672 607 l 1,36,-1
 636 607 l 2,37,38
 558 607 558 607 558 597 c 0,39,40
 558 596 558 596 559 596 c 0,41,42
 561 595 561 595 562 594 c 1,43,-1
 530 587 l 1,44,-1
 527 596 l 2,45,46
 526 596 526 596 524 596 c 0,47,48
 517 596 517 596 513.5 596.5 c 128,-1,49
 510 597 510 597 507 601.5 c 128,-1,50
 504 606 504 606 504 615 c 2,51,-1
 504 623 l 1,52,-1
 527 600 l 1,53,-1
 530 623 l 1,54,-1
 504 623 l 1,55,-1
 506 632 l 1,56,-1
 481 628 l 1,57,-1
 477 600 l 1,58,59
 444 592 444 592 403 592 c 0,60,61
 397 592 397 592 385 593 c 128,-1,62
 373 594 373 594 368 594 c 0,63,64
 338 594 338 594 292 587 c 1,0,-1
128 1015 m 1,65,-1
 135 1240 l 1,66,67
 173 1240 173 1240 249 1242.5 c 128,-1,68
 325 1245 325 1245 362 1245 c 0,69,70
 389 1245 389 1245 402.5 1237 c 128,-1,71
 416 1229 416 1229 421 1229 c 0,72,73
 445 1229 445 1229 494.5 1234.5 c 128,-1,74
 544 1240 544 1240 569 1240 c 0,75,76
 653 1240 653 1240 713 1222 c 1,77,-1
 717 1240 l 1,78,-1
 854 1240 l 1,79,-1
 854 1164 l 1,80,-1
 849 1168 l 1,81,-1
 858 1137 l 1,82,-1
 849 1140 l 1,83,84
 844 1126 844 1126 844 1097 c 0,85,86
 844 1088 844 1088 844.5 1069.5 c 128,-1,87
 845 1051 845 1051 845 1041 c 0,88,89
 845 1009 845 1009 838 993 c 1,90,-1
 731 990 l 1,91,-1
 735 1012 l 1,92,-1
 647 1008 l 1,93,-1
 611 1008 l 2,94,95
 547 1008 547 1008 547 993 c 0,96,97
 547 991 547 991 548 990 c 1,98,-1
 530 990 l 1,99,-1
 527 998 l 1,100,101
 519 998 519 998 501.5 1003.5 c 128,-1,102
 484 1009 484 1009 477 1010 c 1,103,-1
 477 1002 l 1,104,105
 438 993 438 993 338 993 c 0,106,107
 302 993 302 993 233 1003.5 c 128,-1,108
 164 1014 164 1014 128 1015 c 1,65,-1
412 826 m 1,109,110
 408 827 408 827 406 830 c 1,111,112
 408 828 408 828 412 826 c 1,109,110
406 830 m 1,113,114
 392 840 392 840 391 842 c 1,115,-1
 404 844 l 1,116,-1
 404 837 l 2,117,118
 404 833 404 833 406 830 c 1,113,114
EndSplineSet
EndChar

StartChar: greater
Encoding: 62 62 35
Width: 886
GlyphClass: 2
Flags: W
LayerCount: 2
Fore
SplineSet
78 296 m 1,0,1
 90 306 90 306 129 338.5 c 128,-1,2
 168 371 168 371 182.5 383.5 c 128,-1,3
 197 396 197 396 228 424.5 c 128,-1,4
 259 453 259 453 276 473 c 128,-1,5
 293 493 293 493 314.5 522.5 c 128,-1,6
 336 552 336 552 353 582 c 1,7,8
 353 614 353 614 366 640 c 1,9,-1
 349 669 l 1,10,-1
 412 704 l 1,11,-1
 413 710 l 1,12,-1
 418 715 l 2,13,14
 422 720 422 720 424 724 c 1,15,16
 379 801 379 801 331 837 c 1,17,18
 299 912 299 912 246 975 c 1,19,20
 236 1027 236 1027 182 1048 c 1,21,-1
 47 1255 l 1,22,23
 99 1253 99 1253 177 1256 c 128,-1,24
 255 1259 255 1259 321.5 1259 c 128,-1,25
 388 1259 388 1259 441 1250 c 1,26,-1
 439 1251 l 1,27,-1
 439 1280 l 1,28,-1
 579 1229 l 1,29,-1
 569 1135 l 1,30,31
 579 1099 579 1099 601 1061.5 c 128,-1,32
 623 1024 623 1024 648 1010 c 1,33,-1
 646 1000 l 1,34,35
 646 986 646 986 724 895.5 c 128,-1,36
 802 805 802 805 817 770 c 2,37,-1
 829 742 l 1,38,39
 823 727 823 727 815 710.5 c 128,-1,40
 807 694 807 694 800.5 683 c 128,-1,41
 794 672 794 672 783 654 c 128,-1,42
 772 636 772 636 767 627 c 1,43,-1
 771 592 l 1,44,-1
 801 578 l 1,45,-1
 729 528 l 1,46,-1
 732 528 l 1,47,48
 725 523 725 523 713 513.5 c 128,-1,49
 701 504 701 504 691 497 c 128,-1,50
 681 490 681 490 671 485 c 1,51,52
 613 368 613 368 577 310 c 128,-1,53
 541 252 541 252 483 199 c 1,54,-1
 483 191 l 2,55,56
 483 182 483 182 476.5 177 c 128,-1,57
 470 172 470 172 458.5 170.5 c 128,-1,58
 447 169 447 169 437.5 168.5 c 128,-1,59
 428 168 428 168 416 169 c 128,-1,60
 404 170 404 170 403 170 c 2,61,-1
 382 183 l 1,62,-1
 364 183 l 1,63,64
 344 168 344 168 315 168 c 0,65,66
 303 168 303 168 165 162 c 1,67,68
 170 169 170 169 175 172 c 1,69,-1
 170 172 l 1,70,71
 143 174 143 174 89 174 c 1,72,-1
 78 296 l 1,0,1
EndSplineSet
EndChar

StartChar: question
Encoding: 63 63 36
Width: 1182
GlyphClass: 2
Flags: W
LayerCount: 2
Fore
SplineSet
415 -232 m 1,0,1
 411 -202 411 -202 409 -134.5 c 128,-1,2
 407 -67 407 -67 403.5 -22.5 c 128,-1,3
 400 22 400 22 382.5 68.5 c 128,-1,4
 365 115 365 115 332 135 c 1,5,-1
 350 153 l 1,6,7
 356 153 356 153 366 150.5 c 128,-1,8
 376 148 376 148 381 148 c 0,9,10
 403 148 403 148 413 172 c 1,11,-1
 536 172 l 1,12,13
 550 188 550 188 601 188 c 0,14,15
 626 188 626 188 673.5 176 c 128,-1,16
 721 164 721 164 742 164 c 1,17,18
 742 -14 742 -14 722 -14 c 1,19,20
 740 -32 740 -32 752 -32 c 1,21,-1
 734 -219 l 1,22,-1
 720 -199 l 1,23,-1
 703 -199 l 2,24,25
 697 -199 697 -199 681.5 -206.5 c 128,-1,26
 666 -214 666 -214 660 -214 c 0,27,28
 647 -214 647 -214 637.5 -204.5 c 128,-1,29
 628 -195 628 -195 605 -195 c 0,30,31
 573 -195 573 -195 568 -210 c 1,32,-1
 531 -210 l 2,33,34
 478 -210 478 -210 462 -229 c 1,35,36
 462 -221 462 -221 456.5 -215.5 c 128,-1,37
 451 -210 451 -210 444 -210 c 1,38,39
 442 -212 442 -212 439 -215.5 c 128,-1,40
 436 -219 436 -219 433.5 -221.5 c 128,-1,41
 431 -224 431 -224 428.5 -226.5 c 128,-1,42
 426 -229 426 -229 422.5 -230.5 c 128,-1,43
 419 -232 419 -232 415 -232 c 1,0,1
894 625 m 1,44,-1
 760 442 l 1,45,-1
 752 442 l 1,46,47
 752 423 752 423 735 397.5 c 128,-1,48
 718 372 718 372 715 359 c 1,49,-1
 715 371 l 1,50,51
 711 366 711 366 702 347 c 128,-1,52
 693 328 693 328 685.5 312 c 128,-1,53
 678 296 678 296 677 296 c 2,54,-1
 681 373 l 1,55,-1
 675 373 l 2,56,57
 670 373 670 373 664 372 c 128,-1,58
 658 371 658 371 654 371 c 0,59,60
 643 371 643 371 637 375 c 1,61,-1
 630 355 l 1,62,-1
 614 363 l 1,63,-1
 622 332 l 1,64,65
 617 329 617 329 608 329 c 0,66,67
 595 329 595 329 568 341 c 1,68,-1
 565 333 l 1,69,-1
 563 334 l 1,70,-1
 531 324 l 1,71,-1
 498 343 l 1,72,-1
 475 330 l 1,73,-1
 481 351 l 1,74,-1
 471 384 l 1,75,-1
 486 367 l 1,76,77
 490 439 490 439 514 512 c 1,78,-1
 509 537 l 1,79,80
 509 562 509 562 525 606 c 1,81,-1
 519 604 l 1,82,-1
 526 626 l 1,83,-1
 531 622 l 1,84,85
 532 624 532 624 534 630 c 128,-1,86
 536 636 536 636 537 638 c 1,87,-1
 542 635 l 1,88,-1
 536 683 l 1,89,-1
 535 705 l 1,90,-1
 552 705 l 1,91,-1
 586 752 l 1,92,-1
 586 796 l 1,93,-1
 606 796 l 1,94,95
 599 824 599 824 597 836 c 1,96,-1
 618 884 l 1,97,-1
 637 884 l 1,98,-1
 637 910 l 1,99,-1
 618 910 l 1,100,-1
 618 917 l 2,101,102
 618 940 618 940 599 981 c 1,103,-1
 563 981 l 1,104,-1
 545 1002 l 1,105,-1
 527 1002 l 1,106,-1
 527 1025 l 1,107,-1
 509 1025 l 1,108,109
 509 1024 509 1024 510 1020.5 c 128,-1,110
 511 1017 511 1017 511 1015 c 0,111,112
 511 994 511 994 492 956 c 1,113,-1
 472 956 l 1,114,115
 472 942 472 942 468.5 922.5 c 128,-1,116
 465 903 465 903 465 882 c 1,117,-1
 482 860 l 1,118,-1
 465 836 l 1,119,-1
 446 860 l 1,120,121
 444 860 444 860 438.5 860.5 c 128,-1,122
 433 861 433 861 431 861 c 0,123,124
 400 861 400 861 383 844 c 1,125,126
 368 861 368 861 301 861 c 0,127,128
 255 861 255 861 234.5 857 c 128,-1,129
 214 853 214 853 176 836 c 1,130,-1
 176 860 l 1,131,132
 155 871 155 871 130.5 985 c 128,-1,133
 106 1099 106 1099 106 1141 c 2,134,-1
 106 1225 l 1,135,-1
 124 1251 l 1,136,-1
 106 1251 l 1,137,-1
 106 1341 l 1,138,139
 120 1341 120 1341 130.5 1352 c 128,-1,140
 141 1363 141 1363 146 1376.5 c 128,-1,141
 151 1390 151 1390 161 1401 c 128,-1,142
 171 1412 171 1412 185 1412 c 1,143,-1
 167 1434 l 1,144,-1
 205 1481 l 1,145,-1
 225 1481 l 1,146,-1
 225 1458 l 1,147,-1
 246 1458 l 1,148,-1
 246 1504 l 1,149,150
 265 1524 265 1524 314 1547 c 128,-1,151
 363 1570 363 1570 382 1597 c 1,152,-1
 618 1597 l 2,153,154
 631 1597 631 1597 660.5 1585 c 128,-1,155
 690 1573 690 1573 708 1573 c 0,156,157
 720 1573 720 1573 726 1575 c 1,158,159
 745 1554 745 1554 779 1550 c 1,160,-1
 839 1481 l 1,161,-1
 859 1481 l 1,162,-1
 879 1458 l 1,163,-1
 870 1434 l 1,164,-1
 900 1458 l 1,165,166
 959 1409 959 1409 994 1311.5 c 128,-1,167
 1029 1214 1029 1214 1029 1126 c 0,168,169
 1029 1079 1029 1079 1019.5 987.5 c 128,-1,170
 1010 896 1010 896 1009 882 c 1,171,-1
 990 894 l 1,172,-1
 1009 860 l 1,173,174
 1007 856 1007 856 987.5 816.5 c 128,-1,175
 968 777 968 777 950.5 752 c 128,-1,176
 933 727 933 727 916 725 c 1,177,-1
 925 725 l 1,178,179
 905 688 905 688 905 667 c 0,180,181
 905 659 905 659 907 657 c 1,182,-1
 886 635 l 1,183,-1
 894 625 l 1,44,-1
EndSplineSet
EndChar

StartChar: at
Encoding: 64 64 37
Width: 1905
GlyphClass: 2
Flags: W
LayerCount: 2
Fore
SplineSet
1025 334 m 1,0,-1
 1025 353 l 1,1,-1
 1013 351 l 1,2,3
 1023 365 1023 365 1028 398.5 c 128,-1,4
 1033 432 1033 432 1038 444 c 1,5,6
 916 464 916 464 905 464 c 0,7,8
 886 464 886 464 867 453 c 128,-1,9
 848 442 848 442 830 442 c 1,10,-1
 830 428 l 2,11,12
 830 421 830 421 831 398 c 128,-1,13
 832 375 832 375 832 361 c 0,14,15
 832 308 832 308 819 294 c 1,16,-1
 835 294 l 1,17,18
 844 263 844 263 907 257 c 1,19,-1
 907 240 l 1,20,-1
 924 257 l 1,21,-1
 942 257 l 1,22,-1
 959 240 l 1,23,-1
 955 257 l 1,24,25
 986 262 986 262 992 294 c 1,26,-1
 1007 294 l 1,27,-1
 992 315 l 1,28,-1
 1007 342 l 1,29,-1
 1025 334 l 1,0,-1
1252 628 m 1,30,31
 1246 580 1246 580 1246 528 c 1,32,33
 1254 511 1254 511 1269 478 c 128,-1,34
 1284 445 1284 445 1292 428.5 c 128,-1,35
 1300 412 1300 412 1314.5 384 c 128,-1,36
 1329 356 1329 356 1340 341.5 c 128,-1,37
 1351 327 1351 327 1367 306.5 c 128,-1,38
 1383 286 1383 286 1399 275 c 128,-1,39
 1415 264 1415 264 1435.5 253 c 128,-1,40
 1456 242 1456 242 1480 237.5 c 128,-1,41
 1504 233 1504 233 1532 233 c 1,42,-1
 1582 238 l 1,43,44
 1592 327 1592 327 1575 433.5 c 128,-1,45
 1558 540 1558 540 1535 652 c 128,-1,46
 1512 764 1512 764 1512 847 c 0,47,48
 1512 1001 1512 1001 1450 1154 c 128,-1,49
 1388 1307 1388 1307 1276 1409.5 c 128,-1,50
 1164 1512 1164 1512 1036 1512 c 0,51,52
 888 1512 888 1512 772.5 1486 c 128,-1,53
 657 1460 657 1460 561.5 1400 c 128,-1,54
 466 1340 466 1340 404 1244.5 c 128,-1,55
 342 1149 342 1149 308 1006 c 128,-1,56
 274 863 274 863 274 675 c 0,57,58
 274 607 274 607 285 525.5 c 128,-1,59
 296 444 296 444 319 356 c 128,-1,60
 342 268 342 268 374 183 c 128,-1,61
 406 98 406 98 450.5 21.5 c 128,-1,62
 495 -55 495 -55 546 -113 c 128,-1,63
 597 -171 597 -171 661.5 -205 c 128,-1,64
 726 -239 726 -239 795 -239 c 2,65,-1
 883 -239 l 2,66,67
 1100 -239 1100 -239 1226 -198 c 1,68,-1
 1310 -366 l 1,69,70
 1124 -450 1124 -450 854 -450 c 0,71,72
 710 -450 710 -450 569.5 -373 c 128,-1,73
 429 -296 429 -296 325.5 -172 c 128,-1,74
 222 -48 222 -48 158 115 c 128,-1,75
 94 278 94 278 94 442 c 128,-1,76
 94 606 94 606 104 653 c 1,77,-1
 58 676 l 1,78,79
 109 1030 109 1030 270.5 1308 c 128,-1,80
 432 1586 432 1586 691 1726 c 0,81,82
 717 1740 717 1740 772.5 1748 c 128,-1,83
 828 1756 828 1756 867 1756 c 0,84,85
 913 1756 913 1756 935 1748 c 1,86,87
 945 1750 945 1750 965 1750 c 0,88,89
 996 1750 996 1750 1059 1738.5 c 128,-1,90
 1122 1727 1122 1727 1154 1727 c 1,91,92
 1253 1670 1253 1670 1348 1593 c 128,-1,93
 1443 1516 1443 1516 1533.5 1414 c 128,-1,94
 1624 1312 1624 1312 1692.5 1200 c 128,-1,95
 1761 1088 1761 1088 1802.5 953.5 c 128,-1,96
 1844 819 1844 819 1844 685 c 0,97,98
 1844 555 1844 555 1796 357.5 c 128,-1,99
 1748 160 1748 160 1680 91 c 1,100,-1
 1678 91 l 2,101,102
 1676 91 1676 91 1674 90 c 2,103,-1
 1671 89 l 1,104,105
 1638 80 1638 80 1596 59 c 128,-1,106
 1554 38 1554 38 1514.5 24 c 128,-1,107
 1475 10 1475 10 1429 10 c 0,108,109
 1401 10 1401 10 1378 14 c 128,-1,110
 1355 18 1355 18 1339 27 c 128,-1,111
 1323 36 1323 36 1310.5 45 c 128,-1,112
 1298 54 1298 54 1290 69.5 c 128,-1,113
 1282 85 1282 85 1277 97 c 128,-1,114
 1272 109 1272 109 1268.5 130 c 128,-1,115
 1265 151 1265 151 1263.5 163 c 128,-1,116
 1262 175 1262 175 1260 198.5 c 128,-1,117
 1258 222 1258 222 1257 233 c 1,118,119
 1251 218 1251 218 1241 185.5 c 128,-1,120
 1231 153 1231 153 1222.5 134.5 c 128,-1,121
 1214 116 1214 116 1203 112 c 1,122,-1
 1189 122 l 1,123,124
 1184 67 1184 67 1157 67 c 1,125,-1
 1140 46 l 1,126,-1
 1106 46 l 1,127,-1
 1106 29 l 1,128,-1
 1125 29 l 1,129,-1
 1106 13 l 1,130,-1
 1099 10 l 1,131,132
 1078 10 1078 10 1067.5 26.5 c 128,-1,133
 1057 43 1057 43 1057 67 c 1,134,-1
 1041 67 l 1,135,-1
 1025 46 l 1,136,137
 1025 -8 1025 -8 999 -8 c 1,138,139
 999 -4 999 -4 987.5 20 c 128,-1,140
 976 44 976 44 974 46 c 1,141,-1
 974 67 l 1,142,-1
 959 67 l 1,143,-1
 959 46 l 1,144,-1
 924 46 l 1,145,-1
 893 10 l 1,146,-1
 878 29 l 1,147,-1
 878 -2 l 1,148,-1
 860 10 l 1,149,-1
 860 29 l 1,150,-1
 841 29 l 1,151,-1
 826 46 l 1,152,-1
 816 38 l 1,153,-1
 793 46 l 1,154,-1
 777 75 l 1,155,-1
 760 67 l 1,156,-1
 760 46 l 1,157,-1
 758 46 l 1,158,-1
 767 0 l 1,159,160
 739 17 739 17 702 34 c 128,-1,161
 665 51 665 51 649 60 c 128,-1,162
 633 69 633 69 616 88.5 c 128,-1,163
 599 108 599 108 593 140.5 c 128,-1,164
 587 173 587 173 587 226 c 0,165,166
 587 275 587 275 600 317 c 1,167,168
 589 332 589 332 589 349 c 0,169,170
 589 353 589 353 590 363.5 c 128,-1,171
 591 374 591 374 591 380 c 2,172,-1
 589 434 l 2,173,174
 588 455 588 455 590.5 471 c 128,-1,175
 593 487 593 487 596 498 c 128,-1,176
 599 509 599 509 607 517 c 128,-1,177
 615 525 615 525 620.5 529.5 c 128,-1,178
 626 534 626 534 639 537 c 128,-1,179
 652 540 652 540 659 541 c 128,-1,180
 666 542 666 542 683.5 543.5 c 128,-1,181
 701 545 701 545 709 546 c 0,182,183
 739 549 739 549 808.5 567.5 c 128,-1,184
 878 586 878 586 920 586 c 0,185,186
 935 586 935 586 964.5 580 c 128,-1,187
 994 574 994 574 1010 574 c 2,188,-1
 1018 574 l 1,189,-1
 1008 608 l 1,190,-1
 1010 618 l 1,191,-1
 1024 637 l 1,192,-1
 1024 657 l 1,193,-1
 1030 647 l 1,194,195
 1028 660 1028 660 1011.5 725 c 128,-1,196
 995 790 995 790 995 827 c 1,197,-1
 965 827 l 1,198,-1
 951 847 l 1,199,-1
 933 825 l 1,200,201
 902 825 902 825 890 791 c 1,202,-1
 875 801 l 1,203,-1
 875 773 l 1,204,-1
 862 752 l 1,205,-1
 849 752 l 1,206,-1
 860 733 l 1,207,-1
 832 696 l 1,208,-1
 850 696 l 1,209,210
 848 690 848 690 846 676.5 c 128,-1,211
 844 663 844 663 840.5 654 c 128,-1,212
 837 645 837 645 831 638 c 1,213,-1
 744 635 l 1,214,215
 739 596 739 596 634 596 c 0,216,217
 622 596 622 596 596 598 c 128,-1,218
 570 600 570 600 558 600 c 1,219,-1
 570 618 l 1,220,-1
 593 714 l 1,221,222
 585 741 585 741 562.5 808 c 128,-1,223
 540 875 540 875 528 926 c 128,-1,224
 516 977 516 977 516 1026 c 0,225,226
 516 1136 516 1136 566 1217 c 128,-1,227
 616 1298 616 1298 691.5 1335.5 c 128,-1,228
 767 1373 767 1373 855 1373 c 0,229,230
 895 1373 895 1373 922 1362 c 1,231,-1
 951 1380 l 1,232,-1
 951 1362 l 1,233,-1
 935 1344 l 1,234,-1
 965 1362 l 1,235,-1
 993 1324 l 1,236,-1
 965 1380 l 1,237,-1
 983 1383 l 1,238,-1
 995 1362 l 1,239,-1
 1010 1362 l 1,240,-1
 1008 1385 l 1,241,242
 1051 1382 1051 1382 1083 1365 c 1,243,244
 1220 1365 1220 1365 1220 1286 c 2,245,-1
 1220 1265 l 1,246,-1
 1255 1265 l 1,247,-1
 1309 1209 l 1,248,-1
 1307 1132 l 1,249,250
 1318 1114 1318 1114 1318 1092 c 2,251,-1
 1318 1082 l 1,252,253
 1275 960 1275 960 1254 651 c 0,254,255
 1254 650 1254 650 1254 649 c 0,256,257
 1254 645 1254 645 1253 642 c 2,258,-1
 1252 638 l 1,259,-1
 1252 628 l 1,30,31
EndSplineSet
EndChar

StartChar: A
Encoding: 65 65 38
Width: 1013
GlyphClass: 2
Flags: W
LayerCount: 2
Fore
SplineSet
525 13 m 2,0,-1
 525 19 l 1,1,-1
 528 19 l 2,2,3
 525 19 525 19 525 13 c 2,0,-1
745 770 m 1,4,-1
 745 760 l 1,5,-1
 754 760 l 2,6,7
 750 760 750 760 745 770 c 1,4,-1
583 -329 m 1,8,9
 574 -348 574 -348 567 -382.5 c 128,-1,10
 560 -417 560 -417 563 -443 c 1,11,-1
 544 -443 l 1,12,-1
 544 -399 l 2,13,14
 544 -376 544 -376 562 -329.5 c 128,-1,15
 580 -283 580 -283 583 -265 c 1,16,-1
 583 -329 l 1,8,9
432 505 m 1,17,-1
 452 505 l 1,18,19
 452 494 452 494 444 472.5 c 128,-1,20
 436 451 436 451 425.5 425 c 128,-1,21
 415 399 415 399 412 389 c 1,22,-1
 487 389 l 2,23,24
 535 389 535 389 543 377 c 1,25,26
 541 401 541 401 536 446 c 128,-1,27
 531 491 531 491 528 527.5 c 128,-1,28
 525 564 525 564 525 597 c 1,29,-1
 528 597 l 1,30,31
 522 599 522 599 522 627 c 0,32,33
 522 658 522 658 525 667 c 1,34,-1
 505 690 l 1,35,-1
 525 696 l 1,36,-1
 525 714 l 1,37,38
 524 714 524 714 521.5 713 c 128,-1,39
 519 712 519 712 517 712 c 0,40,41
 505 712 505 712 505 777 c 2,42,-1
 505 813 l 1,43,44
 501 769 501 769 476.5 675 c 128,-1,45
 452 581 452 581 452 528 c 1,46,-1
 432 529 l 1,47,-1
 432 505 l 1,17,-1
525 -213 m 1,48,-1
 522 -145 l 1,49,50
 522 -112 522 -112 544 -73 c 1,51,-1
 525 -51 l 1,52,-1
 546 13 l 1,53,54
 546 35 546 35 514.5 72.5 c 128,-1,55
 483 110 483 110 461 110 c 1,56,-1
 432 89 l 1,57,-1
 446 89 l 1,58,-1
 452 65 l 1,59,-1
 444 65 l 1,60,-1
 432 -28 l 1,61,62
 420 -28 420 -28 413 -17.5 c 128,-1,63
 406 -7 406 -7 392 -7 c 1,64,-1
 392 -274 l 1,65,66
 370 -219 370 -219 370 -109 c 1,67,68
 367 -141 367 -141 354 -153.5 c 128,-1,69
 341 -166 341 -166 312 -166 c 1,70,-1
 312 -122 l 1,71,-1
 290 -97 l 1,72,-1
 272 -122 l 1,73,-1
 294 -186 l 1,74,-1
 290 -188 l 1,75,-1
 280 -286 l 1,76,-1
 272 -284 l 1,77,78
 230 -208 230 -208 230 -43 c 2,79,-1
 230 46 l 2,80,81
 230 76 230 76 213 151 c 128,-1,82
 196 226 196 226 196 263 c 0,83,84
 196 284 196 284 204 311 c 128,-1,85
 212 338 212 338 226 342 c 1,86,-1
 210 342 l 1,87,-1
 234 396 l 1,88,89
 233 407 233 407 220.5 431 c 128,-1,90
 208 455 208 455 208 460 c 2,91,-1
 210 528 l 1,92,-1
 230 528 l 1,93,-1
 210 551 l 1,94,95
 210 572 210 572 220 609.5 c 128,-1,96
 230 647 230 647 230 667 c 1,97,-1
 210 690 l 1,98,99
 232 712 232 712 232 760 c 0,100,101
 232 796 232 796 221 864.5 c 128,-1,102
 210 933 210 933 210 969 c 0,103,104
 210 986 210 986 220 1015.5 c 128,-1,105
 230 1045 230 1045 230 1060 c 0,106,107
 230 1097 230 1097 220 1174.5 c 128,-1,108
 210 1252 210 1252 210 1291 c 1,109,-1
 230 1291 l 1,110,-1
 230 1316 l 1,111,112
 216 1316 216 1316 187.5 1337.5 c 128,-1,113
 159 1359 159 1359 142 1362 c 1,114,-1
 152 1362 l 1,115,116
 118 1400 118 1400 32 1431 c 1,117,118
 94 1478 94 1478 509 1478 c 0,119,120
 710 1478 710 1478 964 1431 c 1,121,122
 892 1390 892 1390 850.5 1334.5 c 128,-1,123
 809 1279 809 1279 796 1212 c 128,-1,124
 783 1145 783 1145 780 1081.5 c 128,-1,125
 777 1018 777 1018 772.5 933.5 c 128,-1,126
 768 849 768 849 753 785 c 1,127,-1
 762 803 l 1,128,129
 761 782 761 782 753 718 c 128,-1,130
 745 654 745 654 745 620 c 1,131,132
 745 622 745 622 753.5 654.5 c 128,-1,133
 762 687 762 687 762 704 c 2,134,-1
 762 640 l 2,135,136
 762 614 762 614 756.5 588 c 128,-1,137
 751 562 751 562 751 549 c 0,138,139
 751 524 751 524 762 483 c 1,140,-1
 762 541 l 1,141,-1
 766 483 l 2,142,143
 766 474 766 474 745 411 c 1,144,145
 762 373 762 373 762 320 c 0,146,147
 762 302 762 302 751.5 253 c 128,-1,148
 741 204 741 204 741 178 c 0,149,150
 741 158 741 158 722 102 c 128,-1,151
 703 46 703 46 703 19 c 1,152,-1
 723 19 l 1,153,154
 705 -23 705 -23 694.5 -107 c 128,-1,155
 684 -191 684 -191 674.5 -247.5 c 128,-1,156
 665 -304 665 -304 644 -304 c 1,157,-1
 644 -329 l 1,158,-1
 627 -331 l 1,159,-1
 604 -294 l 1,160,-1
 604 -284 l 1,161,162
 610 -277 610 -277 614 -269.5 c 128,-1,163
 618 -262 618 -262 620.5 -257.5 c 128,-1,164
 623 -253 623 -253 624 -243.5 c 128,-1,165
 625 -234 625 -234 625 -231 c 128,-1,166
 625 -228 625 -228 625 -215 c 128,-1,167
 625 -202 625 -202 625 -198 c 1,168,-1
 644 -166 l 1,169,-1
 625 -145 l 1,170,-1
 604 -175 l 1,171,-1
 587 -96 l 1,172,173
 562 -119 562 -119 555 -127 c 128,-1,174
 548 -135 548 -135 545 -141 c 128,-1,175
 542 -147 542 -147 538 -167 c 128,-1,176
 534 -187 534 -187 525 -213 c 1,48,-1
EndSplineSet
EndChar

StartChar: B
Encoding: 66 66 39
Width: 1059
GlyphClass: 2
Flags: W
LayerCount: 2
Fore
SplineSet
629 623 m 1,0,-1
 629 637 l 1,1,-1
 650 632 l 1,2,-1
 644 620 l 1,3,-1
 648 615 l 1,4,5
 648 626 648 626 651.5 629.5 c 128,-1,6
 655 633 655 633 658.5 633 c 128,-1,7
 662 633 662 633 665.5 644 c 128,-1,8
 669 655 669 655 669 679 c 0,9,10
 669 694 669 694 666.5 726 c 128,-1,11
 664 758 664 758 664 773 c 0,12,13
 664 791 664 791 676 796 c 1,14,15
 666 805 666 805 666 832 c 0,16,17
 666 834 666 834 667 839 c 128,-1,18
 668 844 668 844 668 845 c 0,19,20
 651 865 651 865 613 868 c 128,-1,21
 575 871 575 871 556 892 c 1,22,-1
 556 868 l 1,23,-1
 521 868 l 1,24,-1
 538 845 l 1,25,-1
 521 845 l 1,26,-1
 521 837 l 2,27,28
 521 826 521 826 524 822 c 1,29,-1
 528 824 l 1,30,31
 538 824 538 824 538 740 c 2,32,-1
 538 706 l 1,33,-1
 521 685 l 1,34,-1
 538 685 l 1,35,-1
 538 661 l 1,36,37
 544 661 544 661 584.5 646 c 128,-1,38
 625 631 625 631 629 623 c 1,0,-1
648 360 m 1,39,40
 635 377 635 377 600.5 379.5 c 128,-1,41
 566 382 566 382 556 406 c 1,42,43
 556 391 556 391 550.5 387.5 c 128,-1,44
 545 384 545 384 538.5 386 c 128,-1,45
 532 388 532 388 526.5 377 c 128,-1,46
 521 366 521 366 521 337 c 1,47,-1
 502 337 l 1,48,-1
 502 312 l 1,49,50
 522 312 522 312 522 253 c 0,51,52
 522 240 522 240 521.5 220 c 128,-1,53
 521 200 521 200 521 197 c 2,54,-1
 521 152 l 1,55,56
 525 152 525 152 531 152 c 0,57,58
 567 152 567 152 583.5 148.5 c 128,-1,59
 600 145 600 145 629 128 c 1,60,-1
 622 128 l 1,61,-1
 629 116 l 1,62,63
 629 150 629 150 648 174 c 1,64,-1
 648 255 l 2,65,66
 648 268 648 268 657 268 c 2,67,-1
 668 268 l 1,68,69
 668 277 668 277 657 290.5 c 128,-1,70
 646 304 646 304 646 329 c 0,71,72
 646 347 646 347 648 360 c 1,39,40
520 -66 m 1,73,-1
 518 -65 l 1,74,-1
 502 -35 l 1,75,76
 502 -80 502 -80 461 -89 c 1,77,78
 454 13 454 13 400 13 c 0,79,80
 353 13 353 13 339 -35 c 1,81,-1
 321 -66 l 1,82,83
 277 -51 277 -51 277 33 c 0,84,85
 277 88 277 88 278.5 170 c 128,-1,86
 280 252 280 252 280 268 c 1,87,88
 256 268 256 268 256 355 c 0,89,90
 256 409 256 409 260 429 c 1,91,92
 236 429 236 429 236 570 c 0,93,94
 236 604 236 604 238 652.5 c 128,-1,95
 240 701 240 701 240 706 c 0,96,97
 240 796 240 796 229.5 909 c 128,-1,98
 219 1022 219 1022 199 1079 c 1,99,-1
 240 1101 l 1,100,-1
 240 1123 l 1,101,-1
 199 1101 l 1,102,-1
 199 1123 l 1,103,-1
 221 1123 l 1,104,105
 221 1239 221 1239 39 1449 c 1,106,-1
 74 1445 l 1,107,108
 79 1452 79 1452 284.5 1484.5 c 128,-1,109
 490 1517 490 1517 521 1517 c 0,110,111
 556 1517 556 1517 573.5 1517 c 128,-1,112
 591 1517 591 1517 634 1515 c 128,-1,113
 677 1513 677 1513 703.5 1509.5 c 128,-1,114
 730 1506 730 1506 771.5 1498 c 128,-1,115
 813 1490 813 1490 839.5 1479 c 128,-1,116
 866 1468 866 1468 897 1450 c 128,-1,117
 928 1432 928 1432 946 1409.5 c 128,-1,118
 964 1387 964 1387 976.5 1355.5 c 128,-1,119
 989 1324 989 1324 989 1286 c 0,120,121
 989 1200 989 1200 962 1025 c 128,-1,122
 935 850 935 850 910 718 c 1,123,-1
 884 587 l 1,124,125
 873 587 873 587 869 600 c 1,126,127
 869 559 869 559 850 539 c 128,-1,128
 831 519 831 519 788 498 c 1,129,130
 832 498 832 498 850.5 456 c 128,-1,131
 869 414 869 414 869 360 c 0,132,133
 869 313 869 313 859 220 c 128,-1,134
 849 127 849 127 849 81 c 1,135,136
 845 75 845 75 826 32.5 c 128,-1,137
 807 -10 807 -10 788 -36.5 c 128,-1,138
 769 -63 769 -63 750 -63 c 2,139,-1
 745 -63 l 1,140,-1
 751 -70 l 1,141,142
 717 -84 717 -84 697 -84 c 0,143,144
 696 -84 696 -84 692 -82.5 c 128,-1,145
 688 -81 688 -81 687 -81 c 1,146,-1
 687 -58 l 1,147,-1
 672 -77 l 1,148,149
 661 -72 661 -72 641.5 -60.5 c 128,-1,150
 622 -49 622 -49 606 -42 c 128,-1,151
 590 -35 590 -35 576 -35 c 1,152,153
 541 -73 541 -73 538 -96 c 1,154,155
 522 -96 522 -96 520 -66 c 1,73,-1
EndSplineSet
EndChar

StartChar: C
Encoding: 67 67 40
Width: 1033
GlyphClass: 2
Flags: W
LayerCount: 2
Fore
SplineSet
451 -217 m 1,0,-1
 449 -201 l 1,1,-1
 449 -190 l 1,2,3
 451 -198 451 -198 451 -217 c 1,0,-1
886 360 m 1,4,-1
 881 381 l 1,5,-1
 901 360 l 1,6,-1
 919 360 l 1,7,-1
 901 334 l 1,8,-1
 901 290 l 1,9,10
 877 290 877 290 877 251 c 0,11,12
 877 243 877 243 879 227 c 128,-1,13
 881 211 881 211 881 207 c 1,14,-1
 860 174 l 1,15,-1
 860 128 l 1,16,-1
 840 103 l 1,17,-1
 820 103 l 1,18,19
 820 50 820 50 802 34 c 1,20,-1
 779 57 l 2,21,22
 781 55 781 55 781 48 c 0,23,24
 781 42 781 42 776.5 36.5 c 128,-1,25
 772 31 772 31 766 31 c 0,26,27
 765 31 765 31 764 32 c 128,-1,28
 763 33 763 33 762.5 33.5 c 128,-1,29
 762 34 762 34 761 34 c 1,30,31
 761 8 761 8 757.5 -0.5 c 128,-1,32
 754 -9 754 -9 742.5 -16.5 c 128,-1,33
 731 -24 731 -24 722 -36 c 1,34,-1
 722 -58 l 1,35,36
 717 -65 717 -65 710.5 -69.5 c 128,-1,37
 704 -74 704 -74 699 -76.5 c 128,-1,38
 694 -79 694 -79 686 -80 c 128,-1,39
 678 -81 678 -81 674 -81 c 128,-1,40
 670 -81 670 -81 660.5 -81 c 128,-1,41
 651 -81 651 -81 648 -81 c 1,42,-1
 652 -161 l 2,43,44
 655 -208 655 -208 630 -244 c 1,45,-1
 613 -219 l 1,46,47
 613 -162 613 -162 594.5 -97 c 128,-1,48
 576 -32 576 -32 576 -12 c 1,49,-1
 559 -12 l 1,50,51
 559 -53 559 -53 567.5 -126 c 128,-1,52
 576 -199 576 -199 576 -236 c 1,53,54
 575 -233 575 -233 571 -220 c 128,-1,55
 567 -207 567 -207 563.5 -196.5 c 128,-1,56
 560 -186 560 -186 559 -186 c 0,57,58
 557 -185 557 -185 552 -185 c 0,59,60
 537 -185 537 -185 537 -196 c 1,61,62
 531 -196 531 -196 527 -191.5 c 128,-1,63
 523 -187 523 -187 522 -182 c 1,64,-1
 520 -178 l 1,65,66
 520 -164 520 -164 530 -154 c 128,-1,67
 540 -144 540 -144 540 -138 c 2,68,-1
 540 -103 l 1,69,70
 522 -81 522 -81 522 -36 c 1,71,-1
 487 -12 l 1,72,-1
 469 -36 l 1,73,-1
 449 -36 l 1,74,-1
 432 -58 l 1,75,-1
 432 -152 l 1,76,77
 437 -159 437 -159 445 -173 c 1,78,-1
 449 -166 l 1,79,-1
 449 -190 l 1,80,-1
 445 -173 l 1,81,-1
 432 -188 l 1,82,-1
 432 -195 l 1,83,-1
 396 -213 l 1,84,-1
 396 -103 l 2,85,86
 396 -78 396 -78 377.5 -53.5 c 128,-1,87
 359 -29 359 -29 359 -12 c 1,88,-1
 287 -12 l 1,89,-1
 287 13 l 1,90,-1
 247 13 l 1,91,92
 224 41 224 41 224 102 c 0,93,94
 224 120 224 120 226 128 c 1,95,-1
 208 128 l 1,96,-1
 226 151 l 1,97,98
 192 219 192 219 166 243 c 1,99,-1
 166 266 l 1,100,-1
 185 290 l 1,101,-1
 166 312 l 2,102,103
 166 313 166 313 166.5 316.5 c 128,-1,104
 167 320 167 320 167 322 c 0,105,106
 167 348 167 348 147 381 c 1,107,-1
 157 381 l 1,108,-1
 106 637 l 1,109,-1
 127 671 l 1,110,-1
 106 659 l 2,111,112
 108 661 108 661 111.5 665 c 128,-1,113
 115 669 115 669 116 670.5 c 128,-1,114
 117 672 117 672 119.5 675 c 128,-1,115
 122 678 122 678 122.5 680 c 128,-1,116
 123 682 123 682 124.5 685 c 128,-1,117
 126 688 126 688 126 691 c 128,-1,118
 126 694 126 694 126.5 697.5 c 128,-1,119
 127 701 127 701 127 706 c 1,120,121
 106 691 106 691 106 659 c 1,122,123
 103 690 103 690 80 830.5 c 128,-1,124
 57 971 57 971 57 1046 c 0,125,126
 57 1133 57 1133 92 1230.5 c 128,-1,127
 127 1328 127 1328 185 1377 c 1,128,-1
 215 1354 l 1,129,-1
 208 1377 l 1,130,-1
 226 1400 l 1,131,-1
 247 1400 l 1,132,133
 278 1454 278 1454 344.5 1485.5 c 128,-1,134
 411 1517 411 1517 469 1517 c 2,135,-1
 703 1517 l 1,136,137
 722 1490 722 1490 771.5 1467 c 128,-1,138
 821 1444 821 1444 840 1423 c 1,139,-1
 840 1377 l 1,140,-1
 860 1377 l 1,141,-1
 860 1400 l 1,142,-1
 881 1400 l 1,143,-1
 919 1354 l 1,144,-1
 901 1332 l 1,145,146
 921 1332 921 1332 939.5 1296.5 c 128,-1,147
 958 1261 958 1261 980 1261 c 1,148,-1
 980 1170 l 1,149,-1
 962 1170 l 1,150,-1
 980 1145 l 1,151,-1
 980 983 l 2,152,153
 980 930 980 930 967 791 c 128,-1,154
 954 652 954 652 941 637 c 1,155,-1
 941 613 l 1,156,157
 904 630 904 630 882.5 634 c 128,-1,158
 861 638 861 638 814 638 c 0,159,160
 745 638 745 638 730 620 c 1,161,162
 710 638 710 638 682 638 c 0,163,164
 679 638 679 638 674.5 637.5 c 128,-1,165
 670 637 670 637 668 637 c 1,166,-1
 648 613 l 1,167,-1
 630 637 l 1,168,-1
 648 659 l 1,169,-1
 648 683 l 2,170,171
 648 704 648 704 630.5 739 c 128,-1,172
 613 774 613 774 613 799 c 1,173,-1
 595 799 l 1,174,175
 590 809 590 809 586.5 823 c 128,-1,176
 583 837 583 837 581 846 c 128,-1,177
 579 855 579 855 574 861.5 c 128,-1,178
 569 868 569 868 559 868 c 0,179,180
 554 868 554 868 549 856 c 128,-1,181
 544 844 544 844 542 844 c 128,-1,182
 540 844 540 844 540 845 c 2,183,-1
 522 824 l 1,184,-1
 487 824 l 1,185,186
 467 774 467 774 467 762 c 0,187,188
 467 754 467 754 469 752 c 1,189,-1
 449 752 l 1,190,-1
 449 727 l 1,191,-1
 469 727 l 1,192,-1
 469 613 l 2,193,194
 469 594 469 594 459 547.5 c 128,-1,195
 449 501 449 501 449 474 c 0,196,197
 449 443 449 443 459 373.5 c 128,-1,198
 469 304 469 304 469 266 c 1,199,-1
 487 266 l 1,200,-1
 487 219 l 1,201,-1
 522 174 l 1,202,-1
 538 174 l 1,203,204
 574 214 574 214 595 243 c 1,205,206
 592 246 592 246 592 251 c 0,207,208
 592 258 592 258 597 264.5 c 128,-1,209
 602 271 602 271 607 271 c 0,210,211
 608 271 608 271 613 266 c 1,212,-1
 613 334 l 1,213,-1
 630 360 l 1,214,-1
 630 406 l 1,215,-1
 703 406 l 1,216,217
 718 404 718 404 791 386.5 c 128,-1,218
 864 369 864 369 886 360 c 1,4,-1
537 -196 m 1,219,-1
 540 -204 l 1,220,221
 537 -201 537 -201 537 -196 c 1,219,-1
EndSplineSet
EndChar

StartChar: D
Encoding: 68 68 41
Width: 1071
GlyphClass: 2
Flags: W
LayerCount: 2
Fore
SplineSet
589 199 m 1,0,-1
 589 245 l 1,1,2
 610 251 610 251 635 255 c 128,-1,3
 660 259 660 259 668 260.5 c 128,-1,4
 676 262 676 262 685 271 c 128,-1,5
 694 280 694 280 695.5 295 c 128,-1,6
 697 310 697 310 697 340 c 0,7,8
 697 386 697 386 717 408 c 1,9,-1
 717 454 l 1,10,11
 735 454 735 454 735 497 c 2,12,-1
 735 526 l 1,13,-1
 758 526 l 1,14,-1
 758 548 l 1,15,-1
 735 526 l 1,16,-1
 735 570 l 1,17,-1
 746 570 l 1,18,19
 735 579 735 579 735 625 c 0,20,21
 735 635 735 635 736 650.5 c 128,-1,22
 737 666 737 666 737 669 c 0,23,24
 735 709 735 709 730.5 737 c 128,-1,25
 726 765 726 765 714.5 792 c 128,-1,26
 703 819 703 819 680.5 833 c 128,-1,27
 658 847 658 847 625 847 c 2,28,-1
 589 847 l 1,29,-1
 589 824 l 1,30,-1
 570 824 l 1,31,-1
 570 803 l 1,32,-1
 552 779 l 1,33,-1
 534 803 l 1,34,35
 534 787 534 787 536.5 783 c 128,-1,36
 539 779 539 779 552 779 c 1,37,-1
 552 733 l 1,38,-1
 534 707 l 1,39,-1
 534 570 l 1,40,-1
 516 570 l 1,41,42
 516 561 516 561 521.5 554.5 c 128,-1,43
 527 548 527 548 534 548 c 1,44,-1
 534 477 l 1,45,-1
 552 454 l 1,46,-1
 534 454 l 1,47,-1
 534 315 l 1,48,49
 541 315 541 315 548 301 c 128,-1,50
 555 287 555 287 560.5 268.5 c 128,-1,51
 566 250 566 250 570 245 c 1,52,-1
 570 199 l 1,53,-1
 589 199 l 1,0,-1
589 -310 m 1,54,-1
 552 -264 l 1,55,56
 552 -201 552 -201 543.5 -92 c 128,-1,57
 535 17 535 17 534 62 c 1,58,59
 470 62 470 62 431.5 46.5 c 128,-1,60
 393 31 393 31 379.5 7 c 128,-1,61
 366 -17 366 -17 360.5 -50 c 128,-1,62
 355 -83 355 -83 355.5 -115 c 128,-1,63
 356 -147 356 -147 347.5 -182 c 128,-1,64
 339 -217 339 -217 318 -241 c 1,65,66
 318 -195 318 -195 299.5 -101 c 128,-1,67
 281 -7 281 -7 280 36 c 1,68,-1
 295 36 l 1,69,70
 278 89 278 89 278 110 c 0,71,72
 278 174 278 174 301 176 c 1,73,74
 273 232 273 232 241 502.5 c 128,-1,75
 209 773 209 773 201 918 c 0,76,77
 198 958 198 958 194 991.5 c 128,-1,78
 190 1025 190 1025 182.5 1059.5 c 128,-1,79
 175 1094 175 1094 170 1115 c 128,-1,80
 165 1136 165 1136 151.5 1173.5 c 128,-1,81
 138 1211 138 1211 132.5 1226.5 c 128,-1,82
 127 1242 127 1242 107.5 1289.5 c 128,-1,83
 88 1337 88 1337 81 1356 c 1,84,-1
 101 1356 l 1,85,-1
 101 1380 l 2,86,87
 101 1383 101 1383 81 1428 c 1,88,-1
 59 1421 l 1,89,-1
 66 1428 l 1,90,-1
 39 1428 l 1,91,92
 155 1433 155 1433 391 1465 c 128,-1,93
 627 1497 627 1497 752 1497 c 0,94,95
 788 1497 788 1497 811.5 1482 c 128,-1,96
 835 1467 835 1467 842.5 1449.5 c 128,-1,97
 850 1432 850 1432 861 1417 c 128,-1,98
 872 1402 872 1402 887 1402 c 1,99,100
 889 1383 889 1383 919.5 1360.5 c 128,-1,101
 950 1338 950 1338 980 1315.5 c 128,-1,102
 1010 1293 1010 1293 1013 1273 c 1,103,-1
 991 1241 l 1,104,105
 1033 1232 1033 1232 1033 1089 c 0,106,107
 1033 967 1033 967 1001.5 809 c 128,-1,108
 970 651 970 651 938.5 501.5 c 128,-1,109
 907 352 907 352 907 251 c 0,110,111
 907 187 907 187 896.5 145.5 c 128,-1,112
 886 104 886 104 872 86 c 128,-1,113
 858 68 858 68 835.5 35.5 c 128,-1,114
 813 3 813 3 797 -33 c 1,115,-1
 778 -8 l 1,116,-1
 758 -33 l 1,117,-1
 769 -33 l 1,118,-1
 717 -55 l 1,119,-1
 702 -45 l 1,120,121
 676 -49 676 -49 676 -155 c 0,122,123
 676 -165 676 -165 677.5 -178.5 c 128,-1,124
 679 -192 679 -192 679 -195 c 1,125,126
 637 -195 637 -195 637 -138 c 0,127,128
 637 -130 637 -130 637.5 -119.5 c 128,-1,129
 638 -109 638 -109 639.5 -97.5 c 128,-1,130
 641 -86 641 -86 641 -81 c 1,131,-1
 625 -55 l 1,132,-1
 625 -79 l 1,133,-1
 612 -84 l 1,134,135
 608 -118 608 -118 601 -193.5 c 128,-1,136
 594 -269 594 -269 589 -310 c 1,54,-1
59 1421 m 2,137,-1
 61 1420 l 2,138,139
 63 1419 63 1419 64 1419 c 1,140,141
 64 1418 64 1418 62 1418 c 1,142,143
 59 1420 59 1420 59 1421 c 2,137,-1
EndSplineSet
EndChar

StartChar: E
Encoding: 69 69 42
Width: 1169
GlyphClass: 2
Flags: W
LayerCount: 2
Fore
SplineSet
794 -77 m 1,0,1
 793 -50 793 -50 808 -48 c 1,2,-1
 811 -48 l 1,3,4
 811 -53 811 -53 803 -62 c 128,-1,5
 795 -71 795 -71 794 -77 c 1,0,1
686 31 m 0,6,7
 676 31 676 31 666.5 25.5 c 128,-1,8
 657 20 657 20 647.5 6.5 c 128,-1,9
 638 -7 638 -7 632.5 -14.5 c 128,-1,10
 627 -22 627 -22 618 -42.5 c 128,-1,11
 609 -63 609 -63 607.5 -66.5 c 128,-1,12
 606 -70 606 -70 598 -89 c 1,13,-1
 596 -86 l 1,14,15
 552 -86 552 -86 546.5 -78 c 128,-1,16
 541 -70 541 -70 541 -16 c 1,17,-1
 525 6 l 1,18,19
 525 3 525 3 529 -21.5 c 128,-1,20
 533 -46 533 -46 533 -60 c 0,21,22
 533 -113 533 -113 470 -113 c 1,23,-1
 470 55 l 1,24,25
 447 79 447 79 400 79 c 0,26,27
 385 79 385 79 381 77 c 1,28,-1
 360 55 l 1,29,30
 340 55 340 55 340 3 c 0,31,32
 340 -20 340 -20 344 -38 c 1,33,-1
 308 -86 l 1,34,-1
 289 -86 l 1,35,-1
 291 -45 l 1,36,37
 291 53 291 53 282 156 c 128,-1,38
 273 259 273 259 253 411.5 c 128,-1,39
 233 564 233 564 228 610 c 1,40,-1
 250 610 l 1,41,-1
 228 632 l 1,42,43
 189 1006 189 1006 189 1212 c 1,44,-1
 210 1212 l 1,45,-1
 210 1234 l 1,46,-1
 169 1234 l 1,47,-1
 169 1282 l 1,48,49
 129 1365 129 1365 49 1443 c 1,50,-1
 67 1443 l 1,51,-1
 88 1466 l 1,52,53
 300 1507 300 1507 515 1507 c 0,54,55
 783 1507 783 1507 1108 1443 c 1,56,57
 1068 1408 1068 1408 1027 1329 c 1,58,59
 1027 1257 1027 1257 997 1164 c 128,-1,60
 967 1071 967 1071 937 974.5 c 128,-1,61
 907 878 907 878 907 795 c 1,62,63
 848 795 848 795 724.5 830.5 c 128,-1,64
 601 866 601 866 541 866 c 1,65,-1
 541 679 l 1,66,-1
 525 656 l 1,67,-1
 559 679 l 1,68,-1
 722 679 l 2,69,70
 756 679 756 679 777 656 c 1,71,-1
 811 656 l 1,72,73
 811 581 811 581 795 539 c 1,74,75
 799 499 799 499 799 477 c 0,76,77
 799 417 799 417 777 377 c 1,78,79
 774 378 774 378 761.5 384.5 c 128,-1,80
 749 391 749 391 737 396.5 c 128,-1,81
 725 402 725 402 722 402 c 2,82,-1
 559 402 l 1,83,-1
 525 377 l 1,84,-1
 525 238 l 1,85,-1
 541 217 l 1,86,-1
 541 261 l 1,87,-1
 705 261 l 2,88,89
 724 261 724 261 774 249.5 c 128,-1,90
 824 238 824 238 850 238 c 1,91,92
 850 221 850 221 841 191.5 c 128,-1,93
 832 162 832 162 832 146 c 1,94,-1
 811 122 l 1,95,-1
 813 46 l 2,96,97
 813 21 813 21 802 -29.5 c 128,-1,98
 791 -80 791 -80 789 -91 c 1,99,-1
 757 -132 l 1,100,-1
 738 -86 l 1,101,102
 757 -87 757 -87 757 -96 c 1,103,104
 759 -92 759 -92 759 -76 c 0,105,106
 759 -12 759 -12 747 9.5 c 128,-1,107
 735 31 735 31 686 31 c 0,6,7
EndSplineSet
EndChar

StartChar: F
Encoding: 70 70 43
Width: 1145
GlyphClass: 2
Flags: W
LayerCount: 2
Fore
SplineSet
678 411 m 2,0,-1
 662 429 l 1,1,-1
 662 408 l 1,2,-1
 626 408 l 1,3,-1
 626 429 l 1,4,5
 608 405 608 405 608 351 c 2,6,-1
 608 315 l 1,7,-1
 589 315 l 1,8,-1
 608 292 l 1,9,10
 608 237 608 237 617 129 c 128,-1,11
 626 21 626 21 626 -33 c 2,12,-1
 626 -120 l 1,13,-1
 608 -142 l 1,14,-1
 608 -120 l 1,15,-1
 589 -96 l 1,16,17
 608 -62 608 -62 608 -51 c 2,18,-1
 608 -43 l 2,19,20
 608 -33 608 -33 529 -33 c 1,21,22
 505 -46 505 -46 505 -113 c 0,23,24
 505 -124 505 -124 508.5 -142 c 128,-1,25
 512 -160 512 -160 512 -170 c 1,26,27
 511 -169 511 -169 488 -166 c 1,28,-1
 488 -144 l 1,29,-1
 468 -120 l 1,30,-1
 468 -79 l 1,31,-1
 389 -10 l 1,32,33
 313 -10 313 -10 313 -128 c 0,34,35
 313 -130 313 -130 320.5 -133.5 c 128,-1,36
 328 -137 328 -137 328 -138 c 2,37,-1
 328 -147 l 1,38,39
 290 -136 290 -136 290 -125 c 2,40,-1
 290 174 l 1,41,42
 308 198 308 198 310 265 c 128,-1,43
 312 332 312 332 328 361 c 1,44,-1
 308 385 l 1,45,-1
 308 408 l 1,46,-1
 290 429 l 1,47,-1
 308 452 l 1,48,-1
 290 477 l 1,49,-1
 290 755 l 1,50,51
 279 769 279 769 275 798.5 c 128,-1,52
 271 828 271 828 266.5 849 c 128,-1,53
 262 870 262 870 248 870 c 1,54,-1
 248 1046 l 2,55,56
 248 1124 248 1124 244 1163.5 c 128,-1,57
 240 1203 240 1203 216.5 1247.5 c 128,-1,58
 193 1292 193 1292 160 1326.5 c 128,-1,59
 127 1361 127 1361 53 1428 c 1,60,-1
 70 1450 l 1,61,-1
 48 1429 l 1,62,-1
 53 1428 l 1,63,-1
 48 1428 l 1,64,-1
 48 1429 l 1,65,-1
 30 1450 l 1,66,-1
 248 1495 l 1,67,68
 271 1472 271 1472 306 1472 c 1,69,-1
 324 1495 l 1,70,-1
 559 1495 l 1,71,72
 577 1470 577 1470 606 1470 c 0,73,74
 636 1470 636 1470 668 1495 c 1,75,-1
 668 1450 l 1,76,-1
 703 1495 l 1,77,78
 742 1488 742 1488 821 1479.5 c 128,-1,79
 900 1471 900 1471 966 1459.5 c 128,-1,80
 1032 1448 1032 1448 1089 1428 c 1,81,82
 1043 1428 1043 1428 1009 1346.5 c 128,-1,83
 975 1265 975 1265 959 1147 c 128,-1,84
 943 1029 943 1029 936 934.5 c 128,-1,85
 929 840 929 840 929 779 c 1,86,-1
 949 779 l 1,87,-1
 949 733 l 1,88,89
 919 740 919 740 850.5 770.5 c 128,-1,90
 782 801 782 801 741 801 c 1,91,-1
 741 824 l 1,92,93
 714 824 714 824 714 813 c 0,94,95
 714 807 714 807 720 801 c 1,96,97
 711 799 711 799 684 799 c 0,98,99
 609 799 609 799 576 824 c 1,100,101
 596 797 596 797 596 735 c 0,102,103
 596 730 596 730 604 724.5 c 128,-1,104
 612 719 612 719 619.5 714.5 c 128,-1,105
 627 710 627 710 626 707 c 1,106,-1
 608 685 l 1,107,-1
 879 685 l 1,108,-1
 893 663 l 1,109,-1
 879 638 l 1,110,-1
 879 500 l 1,111,-1
 862 500 l 1,112,113
 879 468 879 468 879 408 c 0,114,115
 879 404 879 404 875.5 394.5 c 128,-1,116
 872 385 872 385 867.5 374.5 c 128,-1,117
 863 364 863 364 862 361 c 1,118,119
 838 411 838 411 749 411 c 0,120,121
 739 411 739 411 700 408 c 1,122,123
 704 412 704 412 704 418 c 0,124,125
 704 428 704 428 689 428 c 0,126,127
 676 428 676 428 676 418 c 0,128,129
 676 413 676 413 678 411 c 2,0,-1
678 411 m 1,130,131
 678 411 678 411 678 411 c 1,132,-1
 678 411 l 1,130,131
EndSplineSet
EndChar

StartChar: G
Encoding: 71 71 44
Width: 1022
GlyphClass: 2
Flags: W
LayerCount: 2
Fore
SplineSet
476 255 m 1,0,-1
 472 255 l 1,1,-1
 476 271 l 1,2,-1
 476 255 l 1,0,-1
476 255 m 1,3,4
 476 231 476 231 458 231 c 1,5,-1
 476 255 l 1,3,4
472 255 m 1,6,-1
 468 255 l 2,7,8
 458 255 458 255 458 231 c 1,9,-1
 510 170 l 1,10,-1
 547 185 l 1,11,-1
 547 166 l 1,12,-1
 566 164 l 1,13,14
 566 181 566 181 584 192.5 c 128,-1,15
 602 204 602 204 626 213.5 c 128,-1,16
 650 223 650 223 657 231 c 1,17,-1
 637 255 l 1,18,19
 657 307 657 307 657 319 c 2,20,-1
 657 324 l 1,21,-1
 637 324 l 2,22,23
 584 324 584 324 547 280 c 1,24,25
 547 329 547 329 538.5 427.5 c 128,-1,26
 530 526 530 526 530 578 c 1,27,28
 569 524 569 524 643 524 c 0,29,30
 663 524 663 524 704 529 c 128,-1,31
 745 534 745 534 767 534 c 0,32,33
 888 534 888 534 930 487 c 1,34,-1
 930 380 l 2,35,36
 930 318 930 318 927.5 270.5 c 128,-1,37
 925 223 925 223 915.5 163.5 c 128,-1,38
 906 104 906 104 889.5 62 c 128,-1,39
 873 20 873 20 842 -15 c 128,-1,40
 811 -50 811 -50 769 -65 c 1,41,42
 764 -74 764 -74 752.5 -77 c 128,-1,43
 741 -80 741 -80 734.5 -92 c 128,-1,44
 728 -104 728 -104 728 -138 c 0,45,46
 728 -153 728 -153 692 -161 c 1,47,-1
 674 -135 l 1,48,-1
 692 -138 l 1,49,-1
 655 -63 l 1,50,51
 620 -78 620 -78 609 -94.5 c 128,-1,52
 598 -111 598 -111 598 -140 c 0,53,54
 598 -142 598 -142 599.5 -149.5 c 128,-1,55
 601 -157 601 -157 601 -163 c 1,56,57
 601 -138 601 -138 566 -138 c 0,58,59
 558 -138 558 -138 553 -132.5 c 128,-1,60
 548 -127 548 -127 546 -122 c 1,61,-1
 545 -116 l 2,62,63
 545 -115 545 -115 548 -111.5 c 128,-1,64
 551 -108 551 -108 551 -107 c 0,65,66
 551 -99 551 -99 540.5 -79 c 128,-1,67
 530 -59 530 -59 519 -42 c 128,-1,68
 508 -25 508 -25 493 -1.5 c 128,-1,69
 478 22 478 22 476 24 c 1,70,71
 478 13 478 13 478 -14 c 0,72,73
 478 -72 478 -72 464 -144 c 1,74,75
 448 -130 448 -130 435 -91.5 c 128,-1,76
 422 -53 422 -53 422 -22 c 1,77,-1
 403 -46 l 1,78,-1
 385 -46 l 1,79,-1
 389 -48 l 1,80,-1
 367 -91 l 1,81,82
 367 -103 367 -103 395.5 -126.5 c 128,-1,83
 424 -150 424 -150 424 -163 c 0,84,85
 424 -184 424 -184 419 -196 c 128,-1,86
 414 -208 414 -208 399 -207 c 2,87,-1
 367 -205 l 1,88,89
 367 -182 367 -182 358 -137 c 128,-1,90
 349 -92 349 -92 349 -68 c 1,91,92
 339 -68 339 -68 328 -62 c 128,-1,93
 317 -56 317 -56 305.5 -43.5 c 128,-1,94
 294 -31 294 -31 286.5 -22 c 128,-1,95
 279 -13 279 -13 267.5 4 c 128,-1,96
 256 21 256 21 253 24 c 1,97,-1
 248 21 l 1,98,99
 198 139 198 139 174.5 242 c 128,-1,100
 151 345 151 345 151 462 c 0,101,102
 151 513 151 513 110.5 763.5 c 128,-1,103
 70 1014 70 1014 70 1147 c 0,104,105
 70 1200 70 1200 93 1229 c 1,106,-1
 98 1217 l 1,107,-1
 102 1222 l 1,108,-1
 93 1298 l 1,109,110
 110 1339 110 1339 151 1389 c 1,111,-1
 194 1367 l 1,112,-1
 207 1389 l 1,113,-1
 194 1414 l 1,114,115
 237 1414 237 1414 314 1459.5 c 128,-1,116
 391 1505 391 1505 439 1505 c 1,117,-1
 439 1484 l 1,118,119
 449 1484 449 1484 455 1494.5 c 128,-1,120
 461 1505 461 1505 476 1505 c 1,121,-1
 458 1460 l 1,122,-1
 470 1470 l 2,123,124
 482 1481 482 1481 487.5 1488.5 c 128,-1,125
 493 1496 493 1496 493 1505 c 1,126,127
 600 1505 600 1505 724 1447 c 128,-1,128
 848 1389 848 1389 930 1298 c 1,129,-1
 907 1298 l 1,130,-1
 930 1247 l 1,131,-1
 930 1251 l 1,132,133
 981 1193 981 1193 981 1066 c 0,134,135
 981 1022 981 1022 954.5 893 c 128,-1,136
 928 764 928 764 928 681 c 0,137,138
 928 673 928 673 938 639.5 c 128,-1,139
 948 606 948 606 949 602 c 1,140,-1
 904 602 l 2,141,142
 607 602 607 602 603 667 c 1,143,-1
 595 653 l 1,144,145
 601 668 601 668 601 685 c 0,146,147
 601 710 601 710 584 742 c 1,148,-1
 603 764 l 1,149,-1
 584 764 l 1,150,-1
 566 789 l 1,151,-1
 566 820 l 1,152,-1
 547 811 l 1,153,154
 542 858 542 858 495 858 c 0,155,156
 450 858 450 858 436 831 c 128,-1,157
 422 804 422 804 422 745 c 1,158,-1
 418 748 l 1,159,160
 425 734 425 734 425 714 c 1,161,-1
 422 676 l 1,162,163
 420 667 420 667 411.5 644.5 c 128,-1,164
 403 622 403 622 403 602 c 1,165,-1
 422 578 l 1,166,-1
 403 534 l 1,167,168
 419 498 419 498 429 417 c 128,-1,169
 439 336 439 336 458 301 c 1,170,-1
 439 301 l 1,171,-1
 439 280 l 1,172,173
 450 280 450 280 461 274 c 128,-1,174
 472 268 472 268 472 255 c 1,6,-1
595 653 m 2,175,176
 590 643 590 643 587 640 c 2,177,-1
 595 653 l 2,175,176
EndSplineSet
EndChar

StartChar: H
Encoding: 72 72 45
Width: 1488
GlyphClass: 2
Flags: W
LayerCount: 2
Fore
SplineSet
785 -205 m 1,0,-1
 785 -412 l 1,1,-1
 748 -412 l 1,2,-1
 748 -366 l 2,3,4
 748 -327 748 -327 758 -276 c 128,-1,5
 768 -225 768 -225 785 -205 c 1,0,-1
979 -155 m 1,6,-1
 1009 -89 l 1,7,-1
 999 -63 l 1,8,-1
 997 -65 l 2,9,10
 996 -65 996 -65 996 -63 c 1,11,-1
 948 -91 l 1,12,-1
 939 -89 l 1,13,-1
 898 -48 l 1,14,-1
 902 -73 l 1,15,16
 902 -134 902 -134 858 -134 c 1,17,18
 857 -131 857 -131 843.5 -117.5 c 128,-1,19
 830 -104 830 -104 830 -97 c 0,20,21
 830 -92 830 -92 839 -89 c 1,22,-1
 803 -65 l 1,23,-1
 785 -94 l 1,24,25
 786 -75 786 -75 794.5 -35.5 c 128,-1,26
 803 4 803 4 803 26 c 1,27,-1
 766 3 l 1,28,-1
 748 51 l 1,29,30
 786 51 786 51 786 219 c 0,31,32
 786 243 786 243 785.5 273.5 c 128,-1,33
 785 304 785 304 785 306 c 0,34,35
 785 324 785 324 794.5 358.5 c 128,-1,36
 804 393 804 393 804 411 c 0,37,38
 804 416 804 416 800 420 c 128,-1,39
 796 424 796 424 793 424 c 0,40,41
 791 424 791 424 788.5 422.5 c 128,-1,42
 786 421 786 421 785 421 c 2,43,-1
 766 444 l 1,44,45
 742 444 742 444 694.5 432.5 c 128,-1,46
 647 421 647 421 622 421 c 1,47,-1
 622 398 l 1,48,-1
 594 365 l 1,49,-1
 613 375 l 1,50,51
 614 365 614 365 619 326 c 128,-1,52
 624 287 624 287 624 268 c 2,53,-1
 622 3 l 1,54,-1
 541 -41 l 1,55,-1
 543 -26 l 1,56,-1
 539 -22 l 1,57,-1
 462 -18 l 2,58,59
 450 -18 450 -18 433 -33.5 c 128,-1,60
 416 -49 416 -49 391.5 -67 c 128,-1,61
 367 -85 367 -85 340 -89 c 1,62,-1
 295 -46 l 1,63,64
 298 -41 298 -41 307 -41 c 0,65,66
 325 -41 325 -41 340 -51 c 1,67,68
 340 390 340 390 221 983 c 0,69,70
 216 1008 216 1008 204.5 1053.5 c 128,-1,71
 193 1099 193 1099 186 1137 c 128,-1,72
 179 1175 179 1175 179 1209 c 0,73,74
 179 1294 179 1294 125 1352.5 c 128,-1,75
 71 1411 71 1411 -6 1418 c 1,76,77
 58 1418 58 1418 132.5 1422 c 128,-1,78
 207 1426 207 1426 301.5 1442.5 c 128,-1,79
 396 1459 396 1459 421 1486 c 1,80,-1
 427 1462 l 1,81,-1
 430 1460 l 1,82,83
 435 1460 435 1460 439 1466 c 128,-1,84
 443 1472 443 1472 443 1480 c 0,85,86
 443 1481 443 1481 442 1483 c 128,-1,87
 441 1485 441 1485 441 1486 c 1,88,89
 485 1486 485 1486 570 1498 c 128,-1,90
 655 1510 655 1510 693 1510 c 1,91,92
 685 1500 685 1500 667 1458 c 128,-1,93
 649 1416 649 1416 631.5 1382.5 c 128,-1,94
 614 1349 614 1349 601 1349 c 1,95,-1
 622 1324 l 1,96,97
 622 1214 622 1214 611.5 998 c 128,-1,98
 601 782 601 782 601 675 c 1,99,100
 618 675 618 675 647.5 687.5 c 128,-1,101
 677 700 677 700 693 700 c 1,102,-1
 693 675 l 1,103,104
 714 675 714 675 756 687.5 c 128,-1,105
 798 700 798 700 819 700 c 1,106,-1
 819 688 l 1,107,108
 839 712 839 712 839 742 c 2,109,-1
 839 1118 l 2,110,111
 839 1149 839 1149 857.5 1202 c 128,-1,112
 876 1255 876 1255 898 1255 c 1,113,114
 898 1266 898 1266 892 1275 c 128,-1,115
 886 1284 886 1284 877 1292.5 c 128,-1,116
 868 1301 868 1301 859.5 1312.5 c 128,-1,117
 851 1324 851 1324 845 1345 c 128,-1,118
 839 1366 839 1366 839 1395 c 0,119,120
 839 1416 839 1416 829 1453 c 128,-1,121
 819 1490 819 1490 819 1510 c 1,122,123
 913 1510 913 1510 979 1486 c 1,124,-1
 1001 1510 l 1,125,126
 1018 1510 1018 1510 1050 1498 c 128,-1,127
 1082 1486 1082 1486 1099 1486 c 1,128,-1
 1099 1510 l 1,129,-1
 1123 1482 l 1,130,-1
 1259 1486 l 1,131,132
 1275 1464 1275 1464 1328 1462.5 c 128,-1,133
 1381 1461 1381 1461 1400 1441 c 1,134,-1
 1458 1441 l 2,135,136
 1393 1441 1393 1441 1284 1156 c 1,137,-1
 1238 1012 l 1,138,-1
 1240 1002 l 1,139,-1
 1233 954 l 1,140,-1
 1226 957 l 1,141,-1
 1219 954 l 1,142,-1
 1240 931 l 1,143,144
 1234 912 1234 912 1213.5 860.5 c 128,-1,145
 1193 809 1193 809 1181 768 c 128,-1,146
 1169 727 1169 727 1169 696 c 0,147,148
 1169 675 1169 675 1178 653 c 1,149,150
 1136 653 1136 653 1136 568 c 0,151,152
 1136 551 1136 551 1138 523.5 c 128,-1,153
 1140 496 1140 496 1140 491 c 0,154,155
 1140 464 1140 464 1129.5 410 c 128,-1,156
 1119 356 1119 356 1119 329 c 1,157,-1
 1083 296 l 1,158,-1
 1099 306 l 1,159,160
 1099 239 1099 239 1079 109 c 128,-1,161
 1059 -21 1059 -21 1059 -89 c 0,162,163
 1059 -121 1059 -121 1034.5 -138 c 128,-1,164
 1010 -155 1010 -155 979 -155 c 1,6,-1
EndSplineSet
EndChar

StartChar: I
Encoding: 73 73 46
Width: 823
GlyphClass: 2
Flags: W
LayerCount: 2
Fore
SplineSet
500 -111 m 1,0,-1
 463 -87 l 1,1,-1
 462 -74 l 2,2,3
 462 -61 462 -61 462 -53 c 0,4,5
 462 -30 462 -30 476 -28 c 1,6,-1
 445 55 l 1,7,-1
 392 55 l 1,8,-1
 374 31 l 1,9,-1
 374 -7 l 2,10,11
 374 -10 374 -10 377.5 -19.5 c 128,-1,12
 381 -29 381 -29 386 -40 c 128,-1,13
 391 -51 391 -51 392 -53 c 2,14,-1
 374 -18 l 1,15,-1
 374 -33 l 2,16,17
 374 -87 374 -87 354 -87 c 1,18,-1
 337 -65 l 1,19,20
 328 1 328 1 303.5 174 c 128,-1,21
 279 347 279 347 265 454.5 c 128,-1,22
 251 562 251 562 238 707 c 128,-1,23
 225 852 225 852 225 957 c 0,24,25
 225 990 225 990 236 1053.5 c 128,-1,26
 247 1117 247 1117 247 1143 c 0,27,28
 247 1158 247 1158 241.5 1168.5 c 128,-1,29
 236 1179 236 1179 222.5 1193.5 c 128,-1,30
 209 1208 209 1208 206 1212 c 1,31,32
 206 1241 206 1241 196 1265 c 128,-1,33
 186 1289 186 1289 164.5 1310.5 c 128,-1,34
 143 1332 143 1332 128 1343.5 c 128,-1,35
 113 1355 113 1355 84 1375 c 1,36,-1
 64 1419 l 1,37,-1
 84 1443 l 1,38,-1
 70 1443 l 2,39,40
 45 1443 45 1443 26 1468 c 1,41,-1
 12 1468 l 1,42,43
 69 1473 69 1473 107 1515 c 1,44,-1
 374 1515 l 1,45,-1
 374 1490 l 1,46,47
 424 1515 424 1515 427 1515 c 2,48,-1
 518 1515 l 1,49,-1
 535 1497 l 1,50,-1
 554 1515 l 1,51,52
 694 1515 694 1515 776 1490 c 1,53,-1
 717 1399 l 1,54,-1
 695 1399 l 1,55,-1
 695 1375 l 1,56,-1
 717 1375 l 1,57,-1
 635 1212 l 1,58,59
 659 1208 659 1208 677 1188 c 1,60,61
 668 1140 668 1140 651 990.5 c 128,-1,62
 634 841 634 841 616 773 c 1,63,-1
 595 773 l 1,64,65
 599 724 599 724 616 704 c 1,66,-1
 616 517 l 1,67,-1
 581 517 l 1,68,69
 597 508 597 508 597 464 c 1,70,-1
 595 449 l 1,71,-1
 577 426 l 1,72,-1
 577 402 l 1,73,74
 599 402 599 402 599 332 c 0,75,76
 599 288 599 288 588 204.5 c 128,-1,77
 577 121 577 121 577 79 c 0,78,79
 577 67 577 67 595 31 c 1,80,-1
 577 8 l 1,81,-1
 595 8 l 1,82,-1
 616 -38 l 1,83,-1
 577 -38 l 1,84,-1
 554 -16 l 1,85,-1
 535 -16 l 1,86,-1
 518 8 l 1,87,-1
 518 -60 l 1,88,89
 533 -60 533 -60 536 -45 c 1,90,91
 536 -49 536 -49 535.5 -54.5 c 128,-1,92
 535 -60 535 -60 535 -65 c 1,93,-1
 500 -111 l 1,0,-1
EndSplineSet
EndChar

StartChar: J
Encoding: 74 74 47
Width: 933
GlyphClass: 2
Flags: W
LayerCount: 2
Fore
SplineSet
259 -18 m 1,0,1
 258 -61 258 -61 235 -89 c 1,2,-1
 215 -66 l 1,3,4
 215 -54 215 -54 219 -41.5 c 128,-1,5
 223 -29 223 -29 223 -28 c 0,6,7
 223 -19 223 -19 212 -13 c 128,-1,8
 201 -7 201 -7 156 13 c 1,9,-1
 116 13 l 1,10,-1
 56 57 l 1,11,12
 37 57 37 57 21 88.5 c 128,-1,13
 5 120 5 120 -8.5 167 c 128,-1,14
 -22 214 -22 214 -25 221 c 1,15,-1
 -4 268 l 1,16,17
 -18 283 -18 283 -21.5 296.5 c 128,-1,18
 -25 310 -25 310 -25 337 c 1,19,20
 -46 362 -46 362 -46 387 c 0,21,22
 -46 432 -46 432 -28.5 451 c 128,-1,23
 -11 470 -11 470 12.5 469.5 c 128,-1,24
 36 469 36 469 67 474.5 c 128,-1,25
 98 480 98 480 116 498 c 1,26,-1
 171 498 l 1,27,-1
 125 474 l 1,28,-1
 135 452 l 1,29,-1
 197 521 l 1,30,-1
 215 521 l 1,31,-1
 235 546 l 1,32,-1
 235 498 l 1,33,-1
 215 498 l 1,34,-1
 235 474 l 1,35,-1
 234 385 l 2,36,37
 233 357 233 357 235 330 c 128,-1,38
 237 303 237 303 244 270 c 128,-1,39
 251 237 251 237 269.5 217 c 128,-1,40
 288 197 288 197 315 197 c 1,41,42
 353 255 353 255 366 296.5 c 128,-1,43
 379 338 379 338 379 390 c 0,44,45
 379 407 379 407 377.5 458 c 128,-1,46
 376 509 376 509 376 546 c 0,47,48
 376 552 376 552 386 575.5 c 128,-1,49
 396 599 396 599 396 615 c 0,50,51
 396 626 396 626 386 649.5 c 128,-1,52
 376 673 376 673 376 685 c 2,53,-1
 376 868 l 2,54,55
 376 901 376 901 386 970.5 c 128,-1,56
 396 1040 396 1040 396 1079 c 1,57,58
 416 1101 416 1101 416 1158 c 2,59,-1
 416 1170 l 1,60,-1
 396 1170 l 1,61,-1
 396 1240 l 1,62,63
 376 1267 376 1267 376 1310 c 1,64,65
 328 1375 328 1375 315 1449 c 1,66,-1
 337 1449 l 1,67,-1
 315 1472 l 1,68,-1
 315 1495 l 1,69,-1
 596 1495 l 2,70,71
 619 1495 619 1495 644.5 1493 c 128,-1,72
 670 1491 670 1491 689 1488 c 128,-1,73
 708 1485 708 1485 738 1479.5 c 128,-1,74
 768 1474 768 1474 782.5 1470.5 c 128,-1,75
 797 1467 797 1467 831.5 1459 c 128,-1,76
 866 1451 866 1451 877 1449 c 1,77,-1
 816 1379 l 1,78,-1
 798 1379 l 1,79,-1
 816 1356 l 1,80,-1
 798 1332 l 1,81,82
 798 1165 798 1165 716 1101 c 1,83,-1
 737 1054 l 1,84,85
 712 1028 712 1028 712 904 c 0,86,87
 712 854 712 854 716 824 c 1,88,89
 685 785 685 785 679.5 671.5 c 128,-1,90
 674 558 674 558 657 521 c 1,91,-1
 637 521 l 1,92,-1
 637 498 l 1,93,-1
 657 498 l 1,94,95
 657 447 657 447 637 348 c 128,-1,96
 617 249 617 249 617 197 c 1,97,98
 597 167 597 167 587 150 c 128,-1,99
 577 133 577 133 567.5 105.5 c 128,-1,100
 558 78 558 78 558 51 c 0,101,102
 558 -10 558 -10 536 -35 c 1,103,-1
 536 -33 l 1,104,-1
 515 -48 l 1,105,106
 496 -52 496 -52 495 -53 c 1,107,108
 495 -48 495 -48 497 -45 c 2,109,-1
 515 -22 l 1,110,-1
 515 13 l 1,111,-1
 497 36 l 1,112,-1
 416 -35 l 1,113,-1
 416 -55 l 1,114,-1
 396 -77 l 1,115,-1
 357 -77 l 1,116,-1
 357 -81 l 1,117,118
 351 -75 351 -75 347 -67 c 128,-1,119
 343 -59 343 -59 341 -53 c 128,-1,120
 339 -47 339 -47 338 -36 c 128,-1,121
 337 -25 337 -25 337 -20.5 c 128,-1,122
 337 -16 337 -16 337 -3 c 128,-1,123
 337 10 337 10 337 13 c 1,124,-1
 296 57 l 1,125,126
 250 57 250 57 250 -43 c 1,127,128
 251 -36 251 -36 253 -30 c 128,-1,129
 255 -24 255 -24 257 -21 c 2,130,-1
 259 -18 l 1,0,1
EndSplineSet
EndChar

StartChar: K
Encoding: 75 75 48
Width: 1189
GlyphClass: 2
Flags: W
LayerCount: 2
Fore
SplineSet
713 -41 m 1,0,-1
 705 -41 l 1,1,-1
 705 -36 l 2,2,3
 705 -37 705 -37 713 -41 c 1,0,-1
760 -41 m 1,4,-1
 723 -41 l 1,5,-1
 705 -18 l 2,6,7
 703 -15 703 -15 703 -7 c 0,8,9
 703 8 703 8 723 75 c 1,10,-1
 719 75 l 1,11,-1
 670 214 l 1,12,-1
 686 238 l 1,13,-1
 670 238 l 1,14,15
 618 306 618 306 611 355 c 1,16,17
 607 321 607 321 598.5 302.5 c 128,-1,18
 590 284 590 284 580.5 280 c 128,-1,19
 571 276 571 276 560 266 c 128,-1,20
 549 256 549 256 542 238 c 1,21,-1
 579 53 l 1,22,-1
 569 29 l 1,23,24
 580 -15 580 -15 597 -41 c 1,25,-1
 561 -18 l 1,26,27
 561 -28 561 -28 571 -42 c 128,-1,28
 581 -56 581 -56 583 -63 c 1,29,-1
 579 -76 l 1,30,-1
 595 -96 l 1,31,-1
 561 -96 l 1,32,33
 542 -65 542 -65 542 -18 c 1,34,35
 513 6 513 6 471 6 c 0,36,37
 443 6 443 6 434 -60 c 1,38,-1
 417 -84 l 1,39,-1
 400 -60 l 1,40,-1
 400 -36 l 1,41,42
 388 -34 388 -34 374 4 c 128,-1,43
 360 42 360 42 360 63 c 0,44,45
 360 67 360 67 360 71 c 2,46,-1
 361 75 l 1,47,-1
 380 100 l 1,48,-1
 380 122 l 1,49,50
 360 122 360 122 354 186 c 128,-1,51
 348 250 348 250 344.5 326 c 128,-1,52
 341 402 341 402 327 421 c 1,53,-1
 347 452 l 1,54,-1
 345 470 l 1,55,56
 325 470 325 470 325 517 c 0,57,58
 325 522 325 522 326 529.5 c 128,-1,59
 327 537 327 537 327 538 c 2,60,-1
 306 562 l 1,61,-1
 308 586 l 1,62,-1
 327 586 l 1,63,64
 321 603 321 603 295.5 710 c 128,-1,65
 270 817 270 817 271 822 c 1,66,67
 290 831 290 831 290 858 c 2,68,-1
 290 865 l 1,69,-1
 271 886 l 1,70,-1
 286 886 l 1,71,72
 286 961 286 961 243 1105.5 c 128,-1,73
 200 1250 200 1250 154 1301 c 1,74,-1
 154 1349 l 1,75,-1
 172 1349 l 1,76,77
 127 1357 127 1357 14 1464 c 1,78,79
 186 1512 186 1512 345 1512 c 1,80,-1
 361 1470 l 1,81,-1
 400 1512 l 1,82,-1
 417 1464 l 1,83,-1
 434 1495 l 1,84,-1
 434 1488 l 2,85,86
 434 1464 434 1464 471 1464 c 1,87,-1
 471 1505 l 1,88,-1
 506 1464 l 1,89,-1
 529 1512 l 1,90,-1
 561 1512 l 1,91,-1
 561 1405 l 2,92,93
 561 1337 561 1337 570 1202.5 c 128,-1,94
 579 1068 579 1068 579 1002 c 1,95,96
 627 1062 627 1062 648.5 1120 c 128,-1,97
 670 1178 670 1178 670 1257 c 1,98,99
 684 1258 684 1258 692 1312 c 128,-1,100
 700 1366 700 1366 704.5 1432 c 128,-1,101
 709 1498 709 1498 715 1515 c 1,102,-1
 723 1512 l 1,103,-1
 723 1488 l 1,104,-1
 741 1464 l 1,105,-1
 741 1488 l 1,106,107
 768 1512 768 1512 813 1512 c 1,108,109
 819 1493 819 1493 963 1468 c 128,-1,110
 1107 1443 1107 1443 1162 1441 c 1,111,112
 1103 1408 1103 1408 1011.5 1312.5 c 128,-1,113
 920 1217 920 1217 868 1186 c 1,114,-1
 886 1186 l 1,115,-1
 868 1164 l 1,116,117
 868 1112 868 1112 839.5 1015 c 128,-1,118
 811 918 811 918 811 866 c 1,119,120
 838 834 838 834 838 758 c 0,121,122
 838 735 838 735 834.5 691 c 128,-1,123
 831 647 831 647 831 632 c 0,124,125
 831 600 831 600 841 539 c 128,-1,126
 851 478 851 478 851 447 c 1,127,-1
 831 447 l 1,128,129
 850 400 850 400 864.5 343 c 128,-1,130
 879 286 879 286 893 216 c 128,-1,131
 907 146 907 146 917 108 c 1,132,-1
 922 122 l 1,133,-1
 922 -22 l 2,134,135
 922 -74 922 -74 907 -109 c 1,136,-1
 904 -107 l 1,137,138
 904 -89 904 -89 896.5 -71.5 c 128,-1,139
 889 -54 889 -54 873 -29.5 c 128,-1,140
 857 -5 857 -5 851 6 c 1,141,142
 844 6 844 6 837.5 4 c 128,-1,143
 831 2 831 2 826.5 -1 c 128,-1,144
 822 -4 822 -4 818.5 -9 c 128,-1,145
 815 -14 815 -14 813 -18 c 128,-1,146
 811 -22 811 -22 809 -28.5 c 128,-1,147
 807 -35 807 -35 806.5 -39 c 128,-1,148
 806 -43 806 -43 805.5 -49.5 c 128,-1,149
 805 -56 805 -56 805 -59 c 128,-1,150
 805 -62 805 -62 805 -67 c 128,-1,151
 805 -72 805 -72 805 -73 c 1,152,153
 803 -72 803 -72 778 -70 c 1,154,155
 778 -65 778 -65 769 -55.5 c 128,-1,156
 760 -46 760 -46 760 -41 c 1,4,-1
EndSplineSet
EndChar

StartChar: L
Encoding: 76 76 49
Width: 854
GlyphClass: 2
Flags: W
LayerCount: 2
Fore
SplineSet
726 -118 m 1,0,-1
 719 -120 l 1,1,-1
 719 -109 l 1,2,-1
 726 -118 l 1,0,-1
726 -118 m 1,3,-1
 737 -116 l 1,4,5
 744 -138 744 -138 759 -138 c 1,6,-1
 759 -91 l 1,7,-1
 739 -91 l 1,8,-1
 759 -68 l 1,9,-1
 719 -68 l 1,10,-1
 678 -22 l 1,11,-1
 662 -46 l 1,12,-1
 662 -87 l 1,13,14
 656 -60 656 -60 644 -60 c 1,15,-1
 623 -138 l 1,16,17
 623 -81 623 -81 606 -18.5 c 128,-1,18
 589 44 589 44 589 46 c 1,19,20
 547 43 547 43 547 -87 c 1,21,22
 547 -86 547 -86 548 -86 c 0,23,24
 550 -85 550 -85 551 -84 c 1,25,26
 546 -92 546 -92 538.5 -109.5 c 128,-1,27
 531 -127 531 -127 530 -130 c 1,28,-1
 512 -130 l 1,29,-1
 490 -107 l 1,30,-1
 490 -22 l 1,31,-1
 472 -22 l 1,32,-1
 451 -7 l 1,33,-1
 431 -22 l 1,34,35
 367 -22 367 -22 356 -68 c 1,36,37
 312 -27 312 -27 289 58 c 128,-1,38
 266 143 266 143 253 252 c 128,-1,39
 240 361 240 361 231 396 c 1,40,-1
 250 418 l 1,41,-1
 231 464 l 1,42,-1
 250 487 l 1,43,-1
 231 510 l 1,44,-1
 231 534 l 1,45,-1
 210 534 l 1,46,-1
 210 789 l 1,47,-1
 171 834 l 1,48,-1
 190 880 l 1,49,-1
 171 880 l 1,50,-1
 171 1135 l 1,51,52
 157 1156 157 1156 150 1204.5 c 128,-1,53
 143 1253 143 1253 129 1275 c 1,54,-1
 151 1322 l 1,55,-1
 129 1367 l 1,56,-1
 116 1367 l 1,57,-1
 129 1390 l 1,58,-1
 111 1390 l 1,59,-1
 90 1414 l 1,60,-1
 90 1460 l 1,61,-1
 70 1438 l 1,62,-1
 50 1438 l 1,63,-1
 50 1460 l 1,64,-1
 -3 1484 l 1,65,66
 13 1484 13 1484 43 1495.5 c 128,-1,67
 73 1507 73 1507 90 1507 c 2,68,-1
 431 1507 l 1,69,-1
 451 1488 l 1,70,71
 458 1508 458 1508 490 1508 c 0,72,73
 496 1508 496 1508 503 1507.5 c 128,-1,74
 510 1507 510 1507 512 1507 c 1,75,-1
 530 1484 l 1,76,-1
 570 1484 l 1,77,-1
 570 1507 l 1,78,-1
 739 1507 l 1,79,80
 735 1503 735 1503 723 1489.5 c 128,-1,81
 711 1476 711 1476 707 1472 c 128,-1,82
 703 1468 703 1468 692.5 1456.5 c 128,-1,83
 682 1445 682 1445 676.5 1440.5 c 128,-1,84
 671 1436 671 1436 661 1427 c 128,-1,85
 651 1418 651 1418 643.5 1413 c 128,-1,86
 636 1408 636 1408 626 1401.5 c 128,-1,87
 616 1395 616 1395 606 1390 c 1,88,89
 606 1373 606 1373 604 1360.5 c 128,-1,90
 602 1348 602 1348 595.5 1335.5 c 128,-1,91
 589 1323 589 1323 585 1317 c 128,-1,92
 581 1311 581 1311 568.5 1296 c 128,-1,93
 556 1281 556 1281 551 1275 c 1,94,-1
 551 1229 l 1,95,-1
 530 1229 l 1,96,-1
 530 1207 l 1,97,98
 551 1207 551 1207 561.5 1199.5 c 128,-1,99
 572 1192 572 1192 572 1170 c 2,100,-1
 570 1112 l 1,101,102
 549 1084 549 1084 549 1003 c 0,103,104
 549 987 549 987 550 961.5 c 128,-1,105
 551 936 551 936 551 928 c 0,106,107
 551 917 551 917 530 858 c 1,108,109
 555 837 555 837 555 635 c 0,110,111
 555 580 555 580 553 503 c 128,-1,112
 551 426 551 426 551 418 c 1,113,-1
 537 418 l 1,114,115
 537 410 537 410 554.5 371 c 128,-1,116
 572 332 572 332 572 312 c 0,117,118
 572 311 572 311 571.5 307 c 128,-1,119
 571 303 571 303 571 301 c 1,120,-1
 589 280 l 1,121,-1
 650 282 l 2,122,123
 673 283 673 283 720 268.5 c 128,-1,124
 767 254 767 254 791 255 c 0,125,126
 802 255 802 255 820 267.5 c 128,-1,127
 838 280 838 280 848 280 c 2,128,-1
 879 280 l 2,129,130
 882 280 882 280 890.5 284.5 c 128,-1,131
 899 289 899 289 909 294.5 c 128,-1,132
 919 300 919 300 920 301 c 1,133,-1
 920 255 l 1,134,-1
 899 255 l 1,135,-1
 899 209 l 1,136,-1
 899 185 l 1,137,-1
 879 185 l 1,138,-1
 899 164 l 1,139,140
 860 75 860 75 860 -68 c 1,141,-1
 839 -68 l 1,142,-1
 800 -113 l 1,143,144
 804 -117 804 -117 804 -124 c 0,145,146
 804 -151 804 -151 759 -155 c 1,147,-1
 726 -118 l 1,3,-1
356 -68 m 1,148,-1
 372 -97 l 1,149,150
 372 -115 372 -115 366.5 -125.5 c 128,-1,151
 361 -136 361 -136 356 -137 c 2,152,-1
 350 -138 l 1,153,154
 350 -87 350 -87 356 -68 c 1,148,-1
EndSplineSet
EndChar

StartChar: M
Encoding: 77 77 50
Width: 1517
GlyphClass: 2
Flags: W
LayerCount: 2
Fore
SplineSet
1209 185 m 1,0,-1
 1211 185 l 1,1,-1
 1214 189 l 1,2,-1
 1209 185 l 1,0,-1
1222 191 m 1,3,-1
 1228 187 l 2,4,5
 1224 189 1224 189 1218 189 c 1,6,7
 1220 191 1220 191 1222 191 c 1,3,-1
595 257 m 1,8,-1
 586 257 l 1,9,10
 586 255 586 255 590 255 c 0,11,12
 593 255 593 255 595 257 c 1,8,-1
846 233 m 1,13,-1
 844 238 l 1,14,-1
 844 243 l 2,15,16
 844 244 844 244 845 245.5 c 128,-1,17
 846 247 846 247 846 248 c 2,18,-1
 846 233 l 1,13,-1
822 1530 m 0,19,20
 822 1536 822 1536 820 1536 c 1,21,-1
 816 1530 l 1,22,23
 816 1527 816 1527 820 1527 c 0,24,25
 822 1527 822 1527 822 1530 c 0,19,20
846 250 m 1,26,27
 835 219 835 219 825 142 c 1,28,-1
 844 118 l 1,29,30
 831 116 831 116 823 98 c 128,-1,31
 815 80 815 80 809.5 59 c 128,-1,32
 804 38 804 38 783 20.5 c 128,-1,33
 762 3 762 3 726 2 c 1,34,-1
 730 29 l 1,35,36
 730 44 730 44 690 182.5 c 128,-1,37
 650 321 650 321 645 327 c 1,38,39
 656 360 656 360 656 367 c 0,40,41
 656 437 656 437 612 541 c 128,-1,42
 568 645 568 645 565 694 c 1,43,-1
 565 602 l 2,44,45
 565 541 565 541 586 422.5 c 128,-1,46
 607 304 607 304 607 257 c 1,47,-1
 602 257 l 1,48,-1
 607 24 l 1,49,50
 560 24 560 24 525 72 c 1,51,-1
 501 29 l 1,52,-1
 505 24 l 1,53,54
 504 20 504 20 515.5 12 c 128,-1,55
 527 4 527 4 527 0 c 2,56,-1
 525 -38 l 1,57,-1
 498 -33 l 1,58,-1
 466 72 l 1,59,-1
 424 72 l 1,60,-1
 400 46 l 1,61,62
 400 32 400 32 446 13 c 1,63,-1
 446 2 l 2,64,65
 446 -24 446 -24 424 -84 c 1,66,67
 402 -84 402 -84 385.5 -70.5 c 128,-1,68
 369 -57 369 -57 361 -35.5 c 128,-1,69
 353 -14 353 -14 349.5 -0.5 c 128,-1,70
 346 13 346 13 345 24 c 0,71,72
 342 162 342 162 317 336 c 128,-1,73
 292 510 292 510 256 638 c 1,74,-1
 266 651 l 1,75,-1
 245 675 l 1,76,-1
 266 696 l 1,77,-1
 229 745 l 1,78,-1
 240 813 l 1,79,-1
 245 813 l 1,80,81
 243 822 243 822 233.5 916.5 c 128,-1,82
 224 1011 224 1011 204 1044 c 1,83,-1
 204 1031 l 1,84,85
 202 1031 202 1031 200 1034.5 c 128,-1,86
 198 1038 198 1038 198 1041 c 2,87,-1
 197 1044 l 1,88,-1
 185 1160 l 1,89,-1
 204 1207 l 1,90,-1
 180 1207 l 1,91,92
 178 1209 178 1209 178 1212 c 0,93,94
 178 1219 178 1219 184 1225 c 128,-1,95
 190 1231 190 1231 197 1231 c 0,96,97
 201 1231 201 1231 203 1229 c 2,98,-1
 44 1462 l 1,99,100
 78 1470 78 1470 226 1489 c 128,-1,101
 374 1508 374 1508 503.5 1526.5 c 128,-1,102
 633 1545 633 1545 645 1555 c 1,103,104
 645 1528 645 1528 669 1528 c 0,105,106
 676 1528 676 1528 680 1530 c 1,107,-1
 645 1484 l 1,108,109
 649 1429 649 1429 697.5 1289.5 c 128,-1,110
 746 1150 746 1150 746 1087 c 2,111,-1
 746 1069 l 1,112,113
 749 1082 749 1082 765.5 1142.5 c 128,-1,114
 782 1203 782 1203 794.5 1251 c 128,-1,115
 807 1299 807 1299 818 1355 c 128,-1,116
 829 1411 829 1411 829 1439 c 0,117,118
 829 1456 829 1456 817.5 1490.5 c 128,-1,119
 806 1525 806 1525 806 1543 c 0,120,121
 806 1551 806 1551 807 1555 c 1,122,-1
 825 1555 l 1,123,-1
 846 1530 l 1,124,-1
 846 1555 l 1,125,126
 875 1555 875 1555 888.5 1547.5 c 128,-1,127
 902 1540 902 1540 903 1531 c 128,-1,128
 904 1522 904 1522 914.5 1514.5 c 128,-1,129
 925 1507 925 1507 947 1507 c 1,130,131
 967 1527 967 1527 1001 1527 c 2,132,-1
 1008 1527 l 1,133,-1
 1026 1555 l 1,134,-1
 1047 1555 l 1,135,136
 1048 1533 1048 1533 1138 1510 c 128,-1,137
 1228 1487 1228 1487 1338 1467 c 128,-1,138
 1448 1447 1448 1447 1469 1439 c 1,139,-1
 1367 1370 l 1,140,141
 1347 1370 1347 1370 1334.5 1359.5 c 128,-1,142
 1322 1349 1322 1349 1317 1328.5 c 128,-1,143
 1312 1308 1312 1308 1310.5 1292 c 128,-1,144
 1309 1276 1309 1276 1309 1253 c 1,145,-1
 1327 1229 l 1,146,-1
 1292 1184 l 1,147,-1
 1309 1160 l 1,148,-1
 1286 1113 l 1,149,-1
 1272 1125 l 1,150,-1
 1268 1113 l 1,151,-1
 1293 1082 l 1,152,153
 1296 1091 1296 1091 1309 1091 c 1,154,-1
 1293 1082 l 1,155,156
 1265 1045 1265 1045 1265 842 c 0,157,158
 1265 797 1265 797 1266.5 729.5 c 128,-1,159
 1268 662 1268 662 1268 651 c 0,160,161
 1268 549 1268 549 1254 421.5 c 128,-1,162
 1240 294 1240 294 1207 257 c 1,163,-1
 1222 233 l 1,164,-1
 1213 168 l 2,165,166
 1204 104 1204 104 1195.5 35 c 128,-1,167
 1187 -34 1187 -34 1187 -45 c 1,168,-1
 1168 -20 l 1,169,170
 1163 -27 1163 -27 1151 -41 c 128,-1,171
 1139 -55 1139 -55 1132.5 -65.5 c 128,-1,172
 1126 -76 1126 -76 1126 -86 c 1,173,-1
 1102 -38 l 1,174,175
 1115 -35 1115 -35 1126 -20 c 1,176,-1
 1108 2 l 1,177,178
 1108 44 1108 44 1088.5 58.5 c 128,-1,179
 1069 73 1069 73 1028 73 c 1,180,-1
 1006 72 l 1,181,182
 980 67 980 67 969 42.5 c 128,-1,183
 958 18 958 18 947 13 c 1,184,185
 935 13 935 13 929 15 c 128,-1,186
 923 17 923 17 923.5 19 c 128,-1,187
 924 21 924 21 924 22 c 2,188,-1
 924 24 l 1,189,-1
 947 24 l 1,190,-1
 925 48 l 1,191,-1
 901 23 l 2,192,193
 899 21 899 21 896 21 c 0,194,195
 892 21 892 21 888.5 27.5 c 128,-1,196
 885 34 885 34 885 41 c 0,197,198
 885 46 885 46 887 48 c 1,199,200
 949 60 949 60 949 365 c 0,201,202
 949 421 949 421 937 510 c 128,-1,203
 925 599 925 599 925 645 c 1,204,-1
 947 651 l 1,205,-1
 947 696 l 1,206,207
 911 654 911 654 888.5 503 c 128,-1,208
 866 352 866 352 866 257 c 1,209,-1
 857 260 l 1,210,211
 852 260 852 260 846 248 c 1,212,-1
 846 250 l 1,26,27
EndSplineSet
EndChar

StartChar: N
Encoding: 78 78 51
Width: 1251
GlyphClass: 2
Flags: W
LayerCount: 2
Fore
SplineSet
752 -245 m 1,0,1
 752 -268 752 -268 734 -293 c 1,2,-1
 734 -314 l 1,3,4
 727 -314 727 -314 721 -307.5 c 128,-1,5
 715 -301 715 -301 715 -293 c 2,6,-1
 715 -211 l 2,7,8
 715 -176 715 -176 734 -176 c 1,9,-1
 734 -198 l 2,10,11
 734 -245 734 -245 752 -245 c 1,0,1
534 288 m 1,12,13
 528 294 528 294 524 294 c 0,14,15
 516 294 516 294 516 266 c 1,16,-1
 534 266 l 1,17,18
 534 200 534 200 543.5 71 c 128,-1,19
 553 -58 553 -58 553 -118 c 0,20,21
 553 -173 553 -173 534 -198 c 1,22,23
 555 -230 555 -230 555 -288 c 0,24,25
 555 -306 555 -306 553 -314 c 1,26,-1
 534 -337 l 1,27,-1
 516 -314 l 1,28,-1
 526 -293 l 1,29,30
 515 -265 515 -265 515 -175 c 0,31,32
 515 -122 515 -122 516 -106 c 1,33,-1
 482 -60 l 1,34,-1
 443 -81 l 1,35,-1
 443 -106 l 1,36,-1
 426 -124 l 1,37,-1
 409 -106 l 1,38,-1
 409 -81 l 1,39,-1
 372 -106 l 1,40,-1
 372 -245 l 1,41,-1
 385 -267 l 1,42,-1
 372 -293 l 1,43,44
 376 -295 376 -295 376 -300 c 0,45,46
 376 -306 376 -306 370.5 -312 c 128,-1,47
 365 -318 365 -318 360 -318 c 0,48,49
 357 -318 357 -318 353 -314 c 2,50,-1
 337 -293 l 1,51,-1
 281 472 l 1,52,-1
 261 472 l 1,53,-1
 261 543 l 1,54,55
 242 566 242 566 211.5 844 c 128,-1,56
 181 1122 181 1122 181 1202 c 128,-1,57
 181 1282 181 1282 160 1308 c 1,58,-1
 180 1330 l 1,59,60
 142 1330 142 1330 121 1334.5 c 128,-1,61
 100 1339 100 1339 93 1347 c 128,-1,62
 86 1355 86 1355 83.5 1363.5 c 128,-1,63
 81 1372 81 1372 72 1382 c 128,-1,64
 63 1392 63 1392 45 1399 c 1,65,-1
 81 1423 l 1,66,-1
 100 1423 l 1,67,68
 102 1425 102 1425 102 1429 c 0,69,70
 102 1436 102 1436 98 1442.5 c 128,-1,71
 94 1449 94 1449 90 1449 c 0,72,73
 89 1449 89 1449 86 1445 c 2,74,-1
 100 1470 l 1,75,76
 174 1470 174 1470 312 1481.5 c 128,-1,77
 450 1493 450 1493 516 1493 c 1,78,-1
 516 1515 l 1,79,-1
 553 1515 l 2,80,81
 574 1515 574 1515 574 1452 c 0,82,83
 574 1439 574 1439 572.5 1420.5 c 128,-1,84
 571 1402 571 1402 571 1399 c 1,85,86
 582 1385 582 1385 585.5 1355.5 c 128,-1,87
 589 1326 589 1326 592 1305 c 128,-1,88
 595 1284 595 1284 607 1284 c 1,89,-1
 624 1260 l 1,90,-1
 624 1240 l 1,91,-1
 642 1214 l 1,92,-1
 624 1214 l 1,93,-1
 662 1168 l 1,94,95
 662 1141 662 1141 689 1059.5 c 128,-1,96
 716 978 716 978 734 936 c 1,97,98
 734 984 734 984 738 1080.5 c 128,-1,99
 742 1177 742 1177 742 1221 c 0,100,101
 742 1390 742 1390 678 1515 c 1,102,-1
 697 1515 l 2,103,104
 742 1515 742 1515 844.5 1493.5 c 128,-1,105
 947 1472 947 1472 1000 1472 c 0,106,107
 1069 1472 1069 1472 1093 1445 c 1,108,-1
 1149 1449 l 2,109,110
 1153 1449 1153 1449 1166 1443.5 c 128,-1,111
 1179 1438 1179 1438 1193.5 1431 c 128,-1,112
 1208 1424 1208 1424 1211 1423 c 1,113,114
 1187 1422 1187 1422 1156.5 1391 c 128,-1,115
 1126 1360 1126 1360 1092 1313 c 128,-1,116
 1058 1266 1058 1266 1053 1260 c 1,117,118
 1053 1120 1053 1120 1015.5 870 c 128,-1,119
 978 620 978 620 971 543 c 1,120,121
 971 500 971 500 961.5 350.5 c 128,-1,122
 952 201 952 201 952 151 c 1,123,124
 929 122 929 122 929 75 c 0,125,126
 929 60 929 60 931.5 32.5 c 128,-1,127
 934 5 934 5 934 -7 c 0,128,129
 934 -50 934 -50 913 -81 c 1,130,131
 913 -105 913 -105 909 -116.5 c 128,-1,132
 905 -128 905 -128 895 -141 c 128,-1,133
 885 -154 885 -154 878 -168 c 1,134,-1
 860 -152 l 1,135,-1
 864 -66 l 2,136,137
 864 -60 864 -60 841 -14 c 1,138,139
 823 -50 823 -50 823 -70 c 0,140,141
 823 -92 823 -92 841 -130 c 1,142,143
 818 -148 818 -148 805 -198 c 1,144,145
 805 -195 805 -195 806 -189 c 128,-1,146
 807 -183 807 -183 807 -180 c 0,147,148
 807 -142 807 -142 789 -106 c 1,149,-1
 768 -176 l 1,150,-1
 734 -130 l 1,151,-1
 734 -168 l 1,152,-1
 715 -152 l 1,153,-1
 715 -106 l 1,154,155
 704 -92 704 -92 701 -62 c 128,-1,156
 698 -32 698 -32 694.5 -11 c 128,-1,157
 691 10 691 10 678 10 c 1,158,-1
 680 55 l 2,159,160
 680 75 680 75 662 102 c 1,161,-1
 678 102 l 1,162,163
 655 134 655 134 648.5 154 c 128,-1,164
 642 174 642 174 642 217 c 1,165,-1
 624 195 l 1,166,167
 624 218 624 218 615.5 264.5 c 128,-1,168
 607 311 607 311 607 334 c 1,169,-1
 571 381 l 1,170,-1
 571 450 l 1,171,172
 543 491 543 491 529 531 c 1,173,174
 536 456 536 456 536 387 c 0,175,176
 536 364 536 364 535 330.5 c 128,-1,177
 534 297 534 297 534 288 c 1,12,13
EndSplineSet
EndChar

StartChar: O
Encoding: 79 79 52
Width: 1034
GlyphClass: 2
Flags: W
LayerCount: 2
Fore
SplineSet
449 -135 m 1,0,1
 449 -136 449 -136 449 -136 c 1,2,3
 448 -140 448 -140 448 -142 c 2,4,-1
 448 -138 l 2,5,6
 448 -137 448 -137 449 -135 c 1,0,1
595 373 m 1,7,-1
 613 396 l 1,8,-1
 613 580 l 2,9,10
 613 611 613 611 604 656 c 128,-1,11
 595 701 595 701 595 746 c 2,12,-1
 595 766 l 1,13,-1
 560 835 l 1,14,15
 560 844 560 844 557 849 c 128,-1,16
 554 854 554 854 546 856 c 128,-1,17
 538 858 538 858 536 858 c 128,-1,18
 534 858 534 858 524 858 c 1,19,-1
 524 882 l 1,20,-1
 505 882 l 1,21,22
 505 858 505 858 487 858 c 1,23,-1
 487 835 l 1,24,-1
 469 835 l 1,25,-1
 434 766 l 1,26,27
 434 739 434 739 424 692.5 c 128,-1,28
 414 646 414 646 414 605 c 0,29,30
 414 535 414 535 434 510 c 1,31,-1
 414 510 l 1,32,33
 414 496 414 496 418 492 c 128,-1,34
 422 488 422 488 434 488 c 1,35,-1
 434 373 l 1,36,37
 442 363 442 363 448 333.5 c 128,-1,38
 454 304 454 304 458.5 280.5 c 128,-1,39
 463 257 463 257 469 257 c 1,40,41
 473 250 473 250 481.5 229 c 128,-1,42
 490 208 490 208 499 197.5 c 128,-1,43
 508 187 508 187 524 187 c 0,44,45
 557 187 557 187 576 244 c 128,-1,46
 595 301 595 301 595 349 c 1,47,-1
 578 349 l 1,48,-1
 578 373 l 1,49,-1
 595 373 l 1,7,-1
528 2 m 0,50,51
 516 2 516 2 506.5 0 c 128,-1,52
 497 -2 497 -2 489.5 -8.5 c 128,-1,53
 482 -15 482 -15 476 -21 c 128,-1,54
 470 -27 470 -27 466 -38.5 c 128,-1,55
 462 -50 462 -50 459 -58 c 128,-1,56
 456 -66 456 -66 453.5 -81 c 128,-1,57
 451 -96 451 -96 450 -103.5 c 128,-1,58
 449 -111 449 -111 447 -128.5 c 128,-1,59
 445 -146 445 -146 444 -152 c 1,60,61
 396 -152 396 -152 396 -91 c 0,62,63
 396 -62 396 -62 369.5 -37.5 c 128,-1,64
 343 -13 343 -13 304 10.5 c 128,-1,65
 265 34 265 34 253 46 c 1,66,-1
 253 24 l 1,67,-1
 235 24 l 1,68,-1
 253 46 l 1,69,70
 249 51 249 51 229.5 75 c 128,-1,71
 210 99 210 99 201.5 111.5 c 128,-1,72
 193 124 193 124 183.5 146 c 128,-1,73
 174 168 174 168 174 187 c 1,74,-1
 195 187 l 1,75,76
 195 242 195 242 164.5 345 c 128,-1,77
 134 448 134 448 134 515 c 0,78,79
 134 598 134 598 104.5 749.5 c 128,-1,80
 75 901 75 901 75 974 c 1,81,-1
 53 998 l 1,82,-1
 75 979 l 1,83,-1
 69 1046 l 1,84,-1
 62 1041 l 1,85,-1
 53 1044 l 1,86,-1
 75 1069 l 1,87,-1
 53 1089 l 1,88,89
 53 1197 53 1197 123.5 1296 c 128,-1,90
 194 1395 194 1395 294.5 1451 c 128,-1,91
 395 1507 395 1507 487 1507 c 1,92,-1
 505 1484 l 1,93,-1
 524 1507 l 1,94,95
 539 1507 539 1507 568 1495.5 c 128,-1,96
 597 1484 597 1484 613 1484 c 1,97,-1
 632 1507 l 1,98,99
 677 1451 677 1451 798 1438 c 1,100,-1
 838 1390 l 1,101,-1
 838 1416 l 1,102,-1
 859 1416 l 1,103,-1
 857 1390 l 1,104,-1
 877 1367 l 1,105,-1
 859 1344 l 1,106,107
 882 1344 882 1344 912 1336.5 c 128,-1,108
 942 1329 942 1329 942 1310 c 0,109,110
 942 1306 942 1306 938 1300 c 1,111,-1
 979 1251 l 1,112,-1
 959 1251 l 1,113,114
 959 1212 959 1212 959.5 1196 c 128,-1,115
 960 1180 960 1180 963 1144.5 c 128,-1,116
 966 1109 966 1109 975 1085 c 128,-1,117
 984 1061 984 1061 999 1044 c 1,118,119
 979 1044 979 1044 969 1030 c 128,-1,120
 959 1016 959 1016 959 996 c 0,121,122
 959 962 959 962 973 942 c 1,123,124
 957 912 957 912 957 892 c 0,125,126
 957 885 957 885 959 882 c 1,127,-1
 979 882 l 1,128,-1
 979 868 l 2,129,130
 979 464 979 464 918 464 c 1,131,132
 918 441 918 441 908.5 394 c 128,-1,133
 899 347 899 347 899 324 c 1,134,-1
 918 324 l 1,135,-1
 870 250 l 1,136,-1
 877 233 l 1,137,138
 869 143 869 143 798 46 c 1,139,140
 798 25 798 25 794 0.5 c 128,-1,141
 790 -24 790 -24 785.5 -40.5 c 128,-1,142
 781 -57 781 -57 772 -86 c 128,-1,143
 763 -115 763 -115 759 -130 c 1,144,145
 740 -130 740 -130 738 -140 c 1,146,147
 738 -120 738 -120 739.5 -91.5 c 128,-1,148
 741 -63 741 -63 741 -60 c 0,149,150
 741 -49 741 -49 733.5 -34.5 c 128,-1,151
 726 -20 726 -20 716 -20 c 1,152,-1
 705 -22 l 1,153,154
 671 -63 671 -63 660 -85.5 c 128,-1,155
 649 -108 649 -108 648 -135 c 1,156,-1
 649 -130 l 2,157,158
 649 -134 649 -134 648 -135 c 1,159,-1
 648 -140 l 1,160,161
 643 -154 643 -154 632.5 -164.5 c 128,-1,162
 622 -175 622 -175 613 -175 c 2,163,-1
 576 -175 l 1,164,165
 576 -168 576 -168 577 -155 c 128,-1,166
 578 -142 578 -142 578 -138 c 0,167,168
 578 2 578 2 528 2 c 0,50,51
EndSplineSet
EndChar

StartChar: P
Encoding: 80 80 53
Width: 1117
GlyphClass: 2
Flags: W
LayerCount: 2
Fore
SplineSet
774 805 m 1,0,-1
 740 876 l 1,1,-1
 594 876 l 1,2,-1
 594 854 l 1,3,4
 607 854 607 854 610.5 850 c 128,-1,5
 614 846 614 846 614 829 c 2,6,-1
 614 783 l 2,7,8
 614 766 614 766 611 763 c 128,-1,9
 608 760 608 760 594 760 c 1,10,-1
 614 738 l 1,11,-1
 614 574 l 1,12,-1
 630 551 l 1,13,-1
 630 528 l 1,14,15
 649 528 649 528 649 551 c 1,16,-1
 774 551 l 1,17,-1
 774 805 l 1,0,-1
29 1454 m 1,18,19
 298 1500 298 1500 499 1500 c 2,20,-1
 541 1500 l 1,21,22
 558 1525 558 1525 573 1525 c 0,23,24
 576 1525 576 1525 581 1523.5 c 128,-1,25
 586 1522 586 1522 588 1522 c 0,26,27
 594 1522 594 1522 599 1527 c 1,28,29
 599 1500 599 1500 649 1500 c 1,30,-1
 667 1482 l 1,31,-1
 720 1525 l 1,32,33
 721 1511 721 1511 746 1502 c 128,-1,34
 771 1493 771 1493 792 1491.5 c 128,-1,35
 813 1490 813 1490 831 1490 c 1,36,-1
 831 1500 l 1,37,38
 887 1500 887 1500 934 1467.5 c 128,-1,39
 981 1435 981 1435 1009.5 1383 c 128,-1,40
 1038 1331 1038 1331 1054 1271.5 c 128,-1,41
 1070 1212 1070 1212 1070 1154 c 1,42,43
 1043 1124 1043 1124 1030 1046.5 c 128,-1,44
 1017 969 1017 969 1016 878.5 c 128,-1,45
 1015 788 1015 788 1005.5 687.5 c 128,-1,46
 996 587 996 587 977 506.5 c 128,-1,47
 958 426 958 426 906.5 373 c 128,-1,48
 855 320 855 320 774 320 c 1,49,-1
 757 342 l 1,50,-1
 752 342 l 2,51,52
 744 342 744 342 739.5 331 c 128,-1,53
 735 320 735 320 726 320 c 2,54,-1
 720 320 l 1,55,-1
 720 342 l 1,56,-1
 674 315 l 1,57,-1
 667 342 l 1,58,-1
 649 342 l 1,59,-1
 649 320 l 1,60,-1
 630 342 l 1,61,-1
 630 320 l 1,62,-1
 614 296 l 1,63,64
 614 254 614 254 622 170 c 128,-1,65
 630 86 630 86 630 43 c 1,66,-1
 614 19 l 1,67,68
 627 19 627 19 629.5 -4.5 c 128,-1,69
 632 -28 632 -28 633.5 -58.5 c 128,-1,70
 635 -89 635 -89 645 -101 c 1,71,-1
 630 -87 l 1,72,-1
 630 -106 l 1,73,74
 612 -106 612 -106 611 -111 c 1,75,76
 611 -90 611 -90 614 -81 c 1,77,-1
 604 -56 l 1,78,-1
 576 -73 l 1,79,-1
 576 -97 l 1,80,-1
 559 -97 l 1,81,82
 576 -111 576 -111 576 -135 c 1,83,-1
 559 -97 l 1,84,-1
 538 -99 l 1,85,-1
 541 -84 l 2,86,87
 541 -80 541 -80 532 -69 c 128,-1,88
 523 -58 523 -58 523 -51 c 1,89,-1
 486 -24 l 1,90,91
 480 -26 480 -26 469.5 -28 c 128,-1,92
 459 -30 459 -30 454.5 -31.5 c 128,-1,93
 450 -33 450 -33 444 -37.5 c 128,-1,94
 438 -42 438 -42 436 -50.5 c 128,-1,95
 434 -59 434 -59 434 -73 c 1,96,-1
 448 -97 l 1,97,-1
 434 -97 l 2,98,99
 398 -97 398 -97 369 21.5 c 128,-1,100
 340 140 340 140 340 197 c 0,101,102
 340 248 340 248 360 274 c 1,103,104
 354 274 354 274 348.5 277.5 c 128,-1,105
 343 281 343 281 339.5 287.5 c 128,-1,106
 336 294 336 294 333 300.5 c 128,-1,107
 330 307 330 307 328.5 317 c 128,-1,108
 327 327 327 327 326 335 c 128,-1,109
 325 343 325 343 325 354 c 128,-1,110
 325 365 325 365 325 371 c 128,-1,111
 325 377 325 377 325 387 c 128,-1,112
 325 397 325 397 325 399 c 0,113,114
 325 505 325 505 277.5 740 c 128,-1,115
 230 975 230 975 230 1107 c 0,116,117
 230 1246 230 1246 173 1322 c 0,118,119
 154 1348 154 1348 102.5 1386.5 c 128,-1,120
 51 1425 51 1425 29 1454 c 1,18,19
EndSplineSet
EndChar

StartChar: Q
Encoding: 81 81 54
Width: 1066
GlyphClass: 2
Flags: W
LayerCount: 2
Fore
SplineSet
662 766 m 1,0,1
 665 757 665 757 665 750 c 1,2,-1
 662 766 l 1,0,1
522 377 m 1,3,4
 536 360 536 360 549 318 c 128,-1,5
 562 276 562 276 576.5 246.5 c 128,-1,6
 591 217 591 217 614 217 c 1,7,8
 614 224 614 224 626 255 c 128,-1,9
 638 286 638 286 649 286 c 1,10,-1
 649 380 l 1,11,12
 655 377 655 377 667 377 c 1,13,14
 667 391 667 391 676 403.5 c 128,-1,15
 685 416 685 416 685 449 c 1,16,-1
 668 449 l 1,17,18
 687 457 687 457 687 559 c 0,19,20
 687 597 687 597 678 659.5 c 128,-1,21
 669 722 669 722 667 748 c 0,22,23
 666 754 666 754 665 775 c 128,-1,24
 664 796 664 796 662.5 807 c 128,-1,25
 661 818 661 818 658.5 837 c 128,-1,26
 656 856 656 856 651 866.5 c 128,-1,27
 646 877 646 877 638.5 888.5 c 128,-1,28
 631 900 631 900 620 905.5 c 128,-1,29
 609 911 609 911 594 911 c 0,30,31
 566 911 566 911 546.5 882.5 c 128,-1,32
 527 854 527 854 518.5 808.5 c 128,-1,33
 510 763 510 763 507 727.5 c 128,-1,34
 504 692 504 692 504 657 c 0,35,36
 504 628 504 628 496 574 c 128,-1,37
 488 520 488 520 488 493 c 1,38,39
 501 492 501 492 511.5 446.5 c 128,-1,40
 522 401 522 401 522 377 c 1,3,4
895 1352 m 1,41,-1
 886 1375 l 1,42,43
 963 1283 963 1283 984.5 1225.5 c 128,-1,44
 1006 1168 1006 1168 1006 1050 c 0,45,46
 1006 1020 1006 1020 1015 965.5 c 128,-1,47
 1024 911 1024 911 1026 888 c 1,48,-1
 1006 888 l 1,49,50
 1006 767 1006 767 996 580 c 128,-1,51
 986 393 986 393 967 355 c 1,52,-1
 985 355 l 1,53,54
 977 336 977 336 965 294.5 c 128,-1,55
 953 253 953 253 939.5 223 c 128,-1,56
 926 193 926 193 906 170 c 1,57,-1
 926 146 l 1,58,-1
 916 148 l 1,59,-1
 904 135 l 1,60,-1
 906 123 l 1,61,-1
 926 123 l 1,62,-1
 926 100 l 1,63,-1
 997 31 l 1,64,65
 1035 31 1035 31 1046 55 c 1,66,67
 1046 15 1046 15 1037 -9 c 128,-1,68
 1028 -33 1028 -33 1017 -40 c 128,-1,69
 1006 -47 1006 -47 996 -58 c 128,-1,70
 986 -69 986 -69 985 -86 c 1,71,72
 976 -86 976 -86 967.5 -91.5 c 128,-1,73
 959 -97 959 -97 950.5 -108 c 128,-1,74
 942 -119 942 -119 934.5 -131 c 128,-1,75
 927 -143 927 -143 919 -160.5 c 128,-1,76
 911 -178 911 -178 905 -192 c 128,-1,77
 899 -206 899 -206 892 -225.5 c 128,-1,78
 885 -245 885 -245 881 -256 c 128,-1,79
 877 -267 877 -267 871.5 -283.5 c 128,-1,80
 866 -300 866 -300 865 -304 c 1,81,-1
 865 -270 l 1,82,-1
 845 -270 l 1,83,84
 845 -211 845 -211 821 -172 c 128,-1,85
 797 -133 797 -133 746 -132 c 1,86,87
 746 -130 746 -130 746.5 -126.5 c 128,-1,88
 747 -123 747 -123 747 -122 c 0,89,90
 747 -95 747 -95 726 -60 c 1,91,92
 653 -86 653 -86 522 -86 c 0,93,94
 520 -86 520 -86 496.5 -70 c 128,-1,95
 473 -54 473 -54 447.5 -36 c 128,-1,96
 422 -18 422 -18 418 -16 c 1,97,-1
 432 -16 l 1,98,99
 412 11 412 11 369 55 c 128,-1,100
 326 99 326 99 307 123 c 1,101,-1
 307 108 l 1,102,103
 303 128 303 128 289 147 c 128,-1,104
 275 166 275 166 256 185.5 c 128,-1,105
 237 205 237 205 229 217 c 1,106,-1
 249 217 l 1,107,108
 239 228 239 228 202 295 c 128,-1,109
 165 362 165 362 168 367 c 1,110,-1
 179 398 l 1,111,-1
 131 449 l 1,112,113
 152 489 152 489 152 538 c 0,114,115
 152 555 152 555 150 564 c 1,116,117
 129 586 129 586 88.5 749 c 128,-1,118
 48 912 48 912 48 957 c 0,119,120
 48 975 48 975 58 1007 c 128,-1,121
 68 1039 68 1039 68 1050 c 0,122,123
 68 1059 68 1059 61.5 1065.5 c 128,-1,124
 55 1072 55 1072 46 1072 c 2,125,-1
 39 1072 l 1,126,127
 58 1114 58 1114 81 1122 c 1,128,-1
 68 1122 l 1,129,130
 92 1148 92 1148 109.5 1187 c 128,-1,131
 127 1226 127 1226 127 1260 c 1,132,133
 124 1257 124 1257 120 1257 c 0,134,135
 113 1257 113 1257 108 1262.5 c 128,-1,136
 103 1268 103 1268 103 1275 c 0,137,138
 103 1301 103 1301 195 1357.5 c 128,-1,139
 287 1414 287 1414 389.5 1458.5 c 128,-1,140
 492 1503 492 1503 524 1503 c 0,141,142
 613 1503 613 1503 669 1492 c 128,-1,143
 725 1481 725 1481 750.5 1463 c 128,-1,144
 776 1445 776 1445 791.5 1426 c 128,-1,145
 807 1407 807 1407 832 1386 c 128,-1,146
 857 1365 857 1365 895 1352 c 1,41,-1
EndSplineSet
EndChar

StartChar: R
Encoding: 82 82 55
Width: 1227
GlyphClass: 2
Flags: W
LayerCount: 2
Fore
SplineSet
769 597 m 1,0,-1
 753 620 l 1,1,-1
 753 597 l 1,2,-1
 769 597 l 1,0,-1
720 617 m 1,3,4
 742 616 742 616 756 621 c 128,-1,5
 770 626 770 626 769 642 c 1,6,-1
 790 642 l 1,7,8
 790 669 790 669 812 690 c 1,9,-1
 812 760 l 1,10,11
 820 760 820 760 825.5 767.5 c 128,-1,12
 831 775 831 775 831 783 c 0,13,14
 831 792 831 792 821.5 805.5 c 128,-1,15
 812 819 812 819 812 829 c 1,16,-1
 735 898 l 1,17,-1
 662 898 l 1,18,-1
 643 876 l 1,19,-1
 627 898 l 1,20,-1
 627 876 l 1,21,-1
 608 876 l 1,22,-1
 627 851 l 1,23,-1
 627 760 l 1,24,25
 618 760 618 760 613 753 c 128,-1,26
 608 746 608 746 608 736 c 1,27,-1
 627 736 l 1,28,29
 627 730 627 730 627 720 c 0,30,31
 627 691 627 691 627.5 679 c 128,-1,32
 628 667 628 667 632.5 651.5 c 128,-1,33
 637 636 637 636 647 630.5 c 128,-1,34
 657 625 657 625 674.5 621 c 128,-1,35
 692 617 692 617 720 617 c 1,3,4
622 233 m 1,36,-1
 643 228 l 1,37,38
 643 166 643 166 652.5 48.5 c 128,-1,39
 662 -69 662 -69 662 -130 c 1,40,-1
 647 -101 l 1,41,-1
 645 -96 l 1,42,-1
 647 -99 l 1,43,44
 647 -54 647 -54 631.5 -30.5 c 128,-1,45
 616 -7 616 -7 572 -7 c 1,46,47
 535 -53 535 -53 535 -122 c 1,48,49
 568 -92 568 -92 572 -81 c 1,50,-1
 572 -109 l 1,51,-1
 554 -132 l 1,52,53
 518 -132 518 -132 514 -101 c 1,54,55
 514 -105 514 -105 516 -112 c 128,-1,56
 518 -119 518 -119 518 -122 c 1,57,58
 510 -111 510 -111 504 -86 c 128,-1,59
 498 -61 498 -61 489 -44.5 c 128,-1,60
 480 -28 480 -28 462 -28 c 128,-1,61
 444 -28 444 -28 437 -37 c 128,-1,62
 430 -46 430 -46 430 -66 c 1,63,64
 431 -59 431 -59 437 -52 c 128,-1,65
 443 -45 443 -45 446 -45 c 1,66,-1
 428 -89 l 1,67,68
 423 -74 423 -74 413 -54.5 c 128,-1,69
 403 -35 403 -35 397 -17.5 c 128,-1,70
 391 0 391 0 391 23 c 0,71,72
 391 190 391 190 356 272 c 1,73,-1
 373 272 l 1,74,75
 373 304 373 304 364 365.5 c 128,-1,76
 355 427 355 427 355 460 c 0,77,78
 355 463 355 463 355.5 470.5 c 128,-1,79
 356 478 356 478 356 483 c 1,80,-1
 336 483 l 1,81,82
 336 499 336 499 327 528 c 128,-1,83
 318 557 318 557 318 574 c 1,84,-1
 336 597 l 1,85,86
 336 623 336 623 312 623 c 0,87,88
 310 623 310 623 305.5 621.5 c 128,-1,89
 301 620 301 620 299 620 c 1,90,-1
 301 667 l 1,91,92
 318 680 318 680 318 714 c 1,93,-1
 282 714 l 1,94,95
 282 779 282 779 272 910 c 128,-1,96
 262 1041 262 1041 262 1107 c 1,97,98
 246 1125 246 1125 233.5 1156.5 c 128,-1,99
 221 1188 221 1188 213.5 1213.5 c 128,-1,100
 206 1239 206 1239 188 1261.5 c 128,-1,101
 170 1284 170 1284 142 1291 c 1,102,103
 142 1318 142 1318 126 1337 c 128,-1,104
 110 1356 110 1356 91.5 1364.5 c 128,-1,105
 73 1373 73 1373 57 1389.5 c 128,-1,106
 41 1406 41 1406 41 1429 c 1,107,108
 86 1429 86 1429 171.5 1453.5 c 128,-1,109
 257 1478 257 1478 301 1478 c 1,110,-1
 336 1454 l 1,111,112
 354 1476 354 1476 377.5 1490 c 128,-1,113
 401 1504 401 1504 434 1508.5 c 128,-1,114
 467 1513 467 1513 484.5 1514 c 128,-1,115
 502 1515 502 1515 538 1515 c 0,116,117
 727 1515 727 1515 790 1482 c 1,118,-1
 821 1503 l 1,119,-1
 871 1500 l 1,120,121
 883 1484 883 1484 943.5 1451 c 128,-1,122
 1004 1418 1004 1418 1031 1409 c 0,123,124
 1054 1401 1054 1401 1092 1357 c 128,-1,125
 1130 1313 1130 1313 1151 1313 c 1,126,127
 1166 1298 1166 1298 1173 1269.5 c 128,-1,128
 1180 1241 1180 1241 1180.5 1225.5 c 128,-1,129
 1181 1210 1181 1210 1181 1174 c 0,130,131
 1181 988 1181 988 1151 714 c 0,132,133
 1149 695 1149 695 1114 612 c 128,-1,134
 1079 529 1079 529 1079 493 c 0,135,136
 1079 473 1079 473 1086 462 c 1,137,-1
 1070 459 l 1,138,139
 1060 447 1060 447 1038.5 441 c 128,-1,140
 1017 435 1017 435 1004 424.5 c 128,-1,141
 991 414 991 414 991 387 c 1,142,143
 1018 356 1018 356 1032 308.5 c 128,-1,144
 1046 261 1046 261 1048.5 225.5 c 128,-1,145
 1051 190 1051 190 1051 133 c 1,146,-1
 1028 118 l 1,147,-1
 1031 89 l 1,148,149
 1052 62 1052 62 1063.5 18.5 c 128,-1,150
 1075 -25 1075 -25 1075 -65 c 1,151,-1
 1040 -124 l 1,152,-1
 1031 -122 l 1,153,-1
 991 -76 l 1,154,-1
 991 -97 l 1,155,156
 960 -97 960 -97 945.5 -91 c 128,-1,157
 931 -85 931 -85 928 -76 c 128,-1,158
 925 -67 925 -67 916.5 -53 c 128,-1,159
 908 -39 908 -39 891 -28 c 1,160,-1
 895 -70 l 2,161,162
 895 -79 895 -79 884 -95.5 c 128,-1,163
 873 -112 873 -112 871 -116 c 1,164,-1
 831 -91 l 1,165,166
 831 -81 831 -81 840.5 -64 c 128,-1,167
 850 -47 850 -47 850 -38 c 1,168,-1
 838 -28 l 1,169,-1
 812 -28 l 1,170,171
 812 -30 812 -30 790 -36 c 1,172,173
 769 9 769 9 769 55 c 0,174,175
 769 102 769 102 771 125 c 1,176,-1
 753 156 l 1,177,-1
 758 231 l 1,178,-1
 763 221 l 1,179,-1
 766 228 l 1,180,-1
 753 250 l 1,181,-1
 753 272 l 1,182,-1
 735 296 l 1,183,-1
 737 319 l 1,184,185
 737 339 737 339 729 367 c 1,186,187
 717 367 717 367 703.5 363.5 c 128,-1,188
 690 360 690 360 669.5 352 c 128,-1,189
 649 344 649 344 643 342 c 1,190,-1
 643 365 l 1,191,-1
 627 342 l 1,192,-1
 635 342 l 1,193,-1
 643 272 l 1,194,-1
 622 233 l 1,36,-1
645 -96 m 1,195,196
 643 -96 643 -96 643 -91 c 1,197,-1
 645 -96 l 1,195,196
662 -130 m 1,198,199
 664 -132 664 -132 664 -134 c 128,-1,200
 664 -136 664 -136 662 -138 c 1,201,-1
 662 -130 l 1,198,199
EndSplineSet
EndChar

StartChar: S
Encoding: 83 83 56
Width: 1034
GlyphClass: 2
Flags: W
LayerCount: 2
Fore
SplineSet
362 -41 m 1,0,-1
 362 -63 l 1,1,2
 338 -81 338 -81 336 -81 c 0,3,4
 325 -81 325 -81 306.5 -59.5 c 128,-1,5
 288 -38 288 -38 270 -38 c 1,6,7
 194 38 194 38 192 77 c 1,8,9
 130 171 130 171 130 211 c 0,10,11
 130 238 130 238 112 238 c 2,12,-1
 90 238 l 1,13,14
 138 319 138 319 274 319 c 0,15,16
 305 319 305 319 360 314 c 128,-1,17
 415 309 415 309 435 309 c 1,18,-1
 454 330 l 1,19,-1
 452 319 l 1,20,21
 452 284 452 284 472 284 c 1,22,-1
 472 192 l 1,23,-1
 482 195 l 1,24,25
 509 195 509 195 509 168 c 1,26,-1
 527 168 l 1,27,28
 559 191 559 191 617 261 c 1,29,-1
 598 284 l 1,30,-1
 598 309 l 1,31,-1
 582 330 l 1,32,-1
 582 377 l 1,33,-1
 520 373 l 1,34,35
 476 369 476 369 454 399 c 1,36,37
 449 398 449 398 435 398 c 0,38,39
 408 398 408 398 382 411 c 128,-1,40
 356 424 356 424 346 447 c 1,41,-1
 327 424 l 1,42,43
 220 481 220 481 163.5 535.5 c 128,-1,44
 107 590 107 590 78.5 675 c 128,-1,45
 50 760 50 760 50 894 c 0,46,47
 50 933 50 933 60 1008 c 128,-1,48
 70 1083 70 1083 70 1120 c 1,49,-1
 130 1234 l 1,50,51
 130 1283 130 1283 161 1325.5 c 128,-1,52
 192 1368 192 1368 238.5 1395.5 c 128,-1,53
 285 1423 285 1423 340.5 1445.5 c 128,-1,54
 396 1468 396 1468 443.5 1480 c 128,-1,55
 491 1492 491 1492 525 1500.5 c 128,-1,56
 559 1509 559 1509 561 1512 c 1,57,58
 650 1512 650 1512 702.5 1492 c 128,-1,59
 755 1472 755 1472 835 1409 c 1,60,-1
 842 1419 l 1,61,62
 867 1389 867 1389 922.5 1337 c 128,-1,63
 978 1285 978 1285 1002 1257 c 1,64,-1
 1002 1234 l 1,65,-1
 982 1234 l 1,66,67
 982 1149 982 1149 972 979.5 c 128,-1,68
 962 810 962 810 962 726 c 1,69,-1
 982 726 l 1,70,-1
 982 702 l 1,71,-1
 962 676 l 1,72,-1
 938 692 l 2,73,74
 915 707 915 707 896.5 717 c 128,-1,75
 878 727 878 727 868 727 c 0,76,77
 867 727 867 727 865 726 c 1,78,-1
 863 726 l 1,79,-1
 842 702 l 1,80,-1
 781 748 l 1,81,-1
 781 726 l 1,82,-1
 634 726 l 2,83,84
 593 726 593 726 593 779 c 0,85,86
 593 792 593 792 598 842 c 1,87,-1
 582 817 l 1,88,-1
 544 865 l 1,89,-1
 509 865 l 2,90,91
 507 865 507 865 499 860 c 128,-1,92
 491 855 491 855 482 849 c 128,-1,93
 473 843 473 843 472 842 c 1,94,-1
 472 817 l 1,95,-1
 454 793 l 1,96,97
 454 759 454 759 477.5 717.5 c 128,-1,98
 501 676 501 676 527 676 c 1,99,-1
 527 656 l 1,100,-1
 544 676 l 1,101,102
 584 676 584 676 633.5 661 c 128,-1,103
 683 646 683 646 732.5 617 c 128,-1,104
 782 588 782 588 823 550 c 128,-1,105
 864 512 864 512 890 461 c 128,-1,106
 916 410 916 410 916 355 c 0,107,108
 916 336 916 336 908 296.5 c 128,-1,109
 900 257 900 257 888 257 c 0,110,111
 885 257 885 257 882 260 c 2,112,-1
 901 238 l 1,113,114
 901 213 901 213 876 177 c 128,-1,115
 851 141 851 141 826 102.5 c 128,-1,116
 801 64 801 64 801 31 c 1,117,-1
 761 -38 l 1,118,-1
 764 -70 l 1,119,-1
 742 -70 l 1,120,-1
 742 -87 l 1,121,-1
 707 -107 l 1,122,123
 706 -104 706 -104 701 -93.5 c 128,-1,124
 696 -83 696 -83 692 -73.5 c 128,-1,125
 688 -64 688 -64 688 -63 c 1,126,-1
 742 -63 l 1,127,-1
 688 -18 l 1,128,-1
 617 -63 l 1,129,-1
 617 -87 l 1,130,131
 614 -91 614 -91 611 -95 c 128,-1,132
 608 -99 608 -99 606 -104.5 c 128,-1,133
 604 -110 604 -110 602.5 -113.5 c 128,-1,134
 601 -117 601 -117 600.5 -124 c 128,-1,135
 600 -131 600 -131 599 -134 c 128,-1,136
 598 -137 598 -137 598 -145.5 c 128,-1,137
 598 -154 598 -154 598 -156 c 128,-1,138
 598 -158 598 -158 598 -167.5 c 128,-1,139
 598 -177 598 -177 598 -178 c 1,140,-1
 582 -178 l 1,141,-1
 582 -155 l 2,142,143
 582 -90 582 -90 598 -63 c 1,144,-1
 598 -33 l 1,145,146
 595 -36 595 -36 582 -38 c 1,147,-1
 539 -38 l 1,148,149
 539 -40 539 -40 542 -43 c 2,150,-1
 544 -46 l 1,151,152
 544 -49 544 -49 540.5 -58 c 128,-1,153
 537 -67 537 -67 532.5 -78 c 128,-1,154
 528 -89 528 -89 527 -91 c 1,155,-1
 509 -68 l 1,156,-1
 509 -38 l 1,157,-1
 417 -38 l 1,158,159
 417 -55 417 -55 426 -88 c 128,-1,160
 435 -121 435 -121 435 -138 c 1,161,-1
 400 -87 l 1,162,-1
 400 -63 l 1,163,-1
 383 -63 l 1,164,-1
 362 -41 l 1,0,-1
EndSplineSet
EndChar

StartChar: T
Encoding: 84 84 57
Width: 1275
GlyphClass: 2
Flags: W
LayerCount: 2
Fore
SplineSet
538 178 m 1,0,-1
 517 201 l 1,1,2
 517 249 517 249 509 340.5 c 128,-1,3
 501 432 501 432 501 481 c 1,4,-1
 517 503 l 1,5,-1
 517 548 l 1,6,-1
 501 572 l 1,7,8
 517 592 517 592 517 642 c 0,9,10
 517 680 517 680 506.5 719.5 c 128,-1,11
 496 759 496 759 481 781 c 1,12,13
 485 786 485 786 485 791 c 0,14,15
 485 803 485 803 465 803 c 0,16,17
 412 803 412 803 391 781 c 1,18,19
 326 781 326 781 280 758 c 1,20,-1
 260 781 l 1,21,-1
 220 735 l 1,22,23
 220 974 220 974 205.5 1082 c 128,-1,24
 191 1190 191 1190 120 1383 c 1,25,-1
 60 1429 l 1,26,-1
 79 1452 l 1,27,-1
 139 1449 l 1,28,29
 152 1447 152 1447 177 1461 c 128,-1,30
 202 1475 202 1475 210 1474 c 1,31,32
 260 1474 260 1474 342 1486 c 128,-1,33
 424 1498 424 1498 465 1498 c 2,34,-1
 758 1498 l 2,35,36
 832 1498 832 1498 982.5 1464 c 128,-1,37
 1133 1430 1133 1430 1205 1429 c 1,38,39
 1205 1393 1205 1393 1189 1361.5 c 128,-1,40
 1173 1330 1173 1330 1154.5 1311 c 128,-1,41
 1136 1292 1136 1292 1120 1268 c 128,-1,42
 1104 1244 1104 1244 1104 1221 c 1,43,-1
 1086 1197 l 1,44,-1
 1126 1174 l 1,45,-1
 1066 735 l 1,46,-1
 1045 758 l 1,47,-1
 1025 758 l 1,48,-1
 1005 781 l 1,49,50
 970 781 970 781 916.5 804 c 128,-1,51
 863 827 863 827 838 827 c 1,52,53
 838 735 838 735 818 712 c 1,54,-1
 838 688 l 1,55,-1
 838 526 l 1,56,-1
 818 503 l 1,57,-1
 818 431 l 1,58,-1
 838 409 l 1,59,-1
 799 294 l 1,60,-1
 818 271 l 1,61,-1
 818 250 l 1,62,-1
 799 226 l 1,63,-1
 818 201 l 1,64,-1
 818 -53 l 2,65,66
 818 -75 818 -75 808 -119.5 c 128,-1,67
 798 -164 798 -164 797 -186 c 1,68,69
 776 -186 776 -186 774 -195 c 1,70,71
 774 -149 774 -149 779 -124 c 1,72,-1
 739 -99 l 1,73,-1
 718 -124 l 1,74,-1
 718 -192 l 1,75,-1
 677 -192 l 1,76,-1
 677 -145 l 1,77,78
 654 -175 654 -175 614 -175 c 0,79,80
 603 -175 603 -175 581 -171.5 c 128,-1,81
 559 -168 559 -168 558 -168 c 0,82,83
 556 -176 556 -176 556 -192 c 1,84,85
 556 -191 556 -191 567 -189 c 128,-1,86
 578 -187 578 -187 578 -186 c 1,87,88
 578 -207 578 -207 557.5 -220 c 128,-1,89
 537 -233 537 -233 517 -233 c 1,90,91
 517 -162 517 -162 527.5 -26.5 c 128,-1,92
 538 109 538 109 538 178 c 1,0,-1
EndSplineSet
EndChar

StartChar: U
Encoding: 85 85 58
Width: 1306
GlyphClass: 2
Flags: W
LayerCount: 2
Fore
SplineSet
429 -86 m 1,0,1
 415 -81 415 -81 415 -36 c 1,2,3
 416 -40 416 -40 427 -55 c 1,4,5
 418 -1 418 -1 386 38 c 128,-1,6
 354 77 354 77 308 77 c 1,7,-1
 330 100 l 1,8,9
 305 127 305 127 295 192 c 128,-1,10
 285 257 285 257 277.5 312 c 128,-1,11
 270 367 270 367 249 377 c 1,12,-1
 249 493 l 1,13,-1
 228 515 l 1,14,-1
 228 539 l 1,15,-1
 249 562 l 1,16,-1
 249 586 l 1,17,-1
 228 586 l 1,18,-1
 228 610 l 1,19,-1
 249 632 l 1,20,21
 249 650 249 650 223 854.5 c 128,-1,22
 197 1059 197 1059 188 1120 c 1,23,-1
 167 1120 l 1,24,-1
 188 1142 l 1,25,26
 165 1166 165 1166 165 1265 c 0,27,28
 165 1312 165 1312 167 1327 c 1,29,30
 150 1346 150 1346 135.5 1371.5 c 128,-1,31
 121 1397 121 1397 113.5 1409.5 c 128,-1,32
 106 1422 106 1422 85 1431.5 c 128,-1,33
 64 1441 64 1441 28 1441 c 1,34,-1
 28 1466 l 1,35,36
 87 1466 87 1466 202 1489 c 128,-1,37
 317 1512 317 1512 369 1512 c 2,38,-1
 598 1512 l 1,39,-1
 569 1466 l 1,40,-1
 575 1329 l 2,41,42
 579 1249 579 1249 549 1211 c 1,43,44
 556 1202 556 1202 571.5 1153.5 c 128,-1,45
 587 1105 587 1105 587 1094 c 2,46,-1
 587 888 l 2,47,48
 587 852 587 852 568 782.5 c 128,-1,49
 549 713 549 713 549 676 c 0,50,51
 549 649 549 649 560 590 c 128,-1,52
 571 531 571 531 571 497 c 0,53,54
 571 492 571 492 570 483 c 128,-1,55
 569 474 569 474 569 470 c 1,56,57
 589 446 589 446 589 399 c 0,58,59
 589 389 589 389 588 368.5 c 128,-1,60
 587 348 587 348 587 337 c 0,61,62
 587 332 587 332 591 316.5 c 128,-1,63
 595 301 595 301 601 283 c 128,-1,64
 607 265 607 265 608 261 c 1,65,-1
 660 261 l 1,66,-1
 698 309 l 1,67,-1
 698 332 l 2,68,69
 698 400 698 400 716 424 c 1,70,-1
 698 424 l 1,71,72
 716 450 716 450 716 503 c 2,73,-1
 716 562 l 1,74,-1
 734 586 l 1,75,-1
 716 610 l 1,76,-1
 716 632 l 1,77,-1
 734 656 l 1,78,-1
 716 676 l 1,79,-1
 716 702 l 1,80,-1
 734 702 l 1,81,82
 734 784 734 784 743 945.5 c 128,-1,83
 752 1107 752 1107 752 1188 c 1,84,-1
 739 1211 l 1,85,-1
 752 1211 l 1,86,-1
 752 1257 l 1,87,-1
 734 1282 l 1,88,-1
 752 1304 l 1,89,90
 752 1331 752 1331 760.5 1384 c 128,-1,91
 769 1437 769 1437 769 1466 c 1,92,-1
 734 1512 l 1,93,94
 779 1482 779 1482 856 1482 c 0,95,96
 864 1482 864 1482 879 1483 c 128,-1,97
 894 1484 894 1484 901 1484 c 0,98,99
 958 1484 958 1484 1004 1466 c 1,100,101
 999 1470 999 1470 999 1476 c 0,102,103
 999 1488 999 1488 1022 1488 c 1,104,-1
 1022 1466 l 1,105,106
 1055 1466 1055 1466 1118.5 1451.5 c 128,-1,107
 1182 1437 1182 1437 1202 1419 c 1,108,-1
 1283 1419 l 1,109,-1
 1181 1350 l 1,110,-1
 1140 1257 l 1,111,-1
 1161 1234 l 1,112,-1
 1140 1234 l 1,113,-1
 1140 1211 l 1,114,115
 1122 1104 1122 1104 1090 995.5 c 128,-1,116
 1058 887 1058 887 1041.5 789.5 c 128,-1,117
 1025 692 1025 692 1025 529 c 0,118,119
 1025 492 1025 492 1004 470 c 1,120,-1
 1004 447 l 1,121,-1
 1022 424 l 1,122,-1
 1004 424 l 1,123,-1
 1004 394 l 2,124,125
 1004 354 1004 354 986 330 c 1,126,-1
 1004 309 l 1,127,-1
 986 309 l 1,128,-1
 986 296 l 2,129,130
 986 263 986 263 968 214 c 1,131,-1
 986 192 l 1,132,-1
 968 192 l 1,133,-1
 950 168 l 1,134,-1
 968 146 l 1,135,-1
 950 146 l 1,136,-1
 913 77 l 1,137,-1
 923 53 l 1,138,-1
 806 53 l 1,139,-1
 812 -51 l 2,140,141
 813 -65 813 -65 807 -78.5 c 128,-1,142
 801 -92 801 -92 787 -112.5 c 128,-1,143
 773 -133 773 -133 769 -140 c 1,144,145
 752 -106 752 -106 752 -94 c 0,146,147
 752 -72 752 -72 769.5 -31 c 128,-1,148
 787 10 787 10 787 31 c 1,149,-1
 734 53 l 1,150,-1
 679 6 l 1,151,-1
 680 -35 l 2,152,153
 680 -63 680 -63 660 -86 c 1,154,-1
 660 53 l 1,155,-1
 626 100 l 1,156,-1
 587 100 l 2,157,158
 566 100 566 100 566 69 c 0,159,160
 566 62 566 62 567.5 49 c 128,-1,161
 569 36 569 36 569 33 c 0,162,163
 569 6 569 6 549 6 c 1,164,-1
 549 -18 l 1,165,-1
 508 6 l 1,166,-1
 488 53 l 1,167,-1
 488 6 l 1,168,-1
 470 -18 l 1,169,-1
 488 -38 l 1,170,171
 487 -42 487 -42 479 -58 c 128,-1,172
 471 -74 471 -74 470 -79 c 1,173,-1
 448 -79 l 1,174,175
 428 -57 428 -57 427 -55 c 1,176,177
 429 -65 429 -65 429 -86 c 1,0,1
EndSplineSet
EndChar

StartChar: V
Encoding: 86 86 59
Width: 1168
GlyphClass: 2
Flags: W
LayerCount: 2
Fore
SplineSet
930 944 m 1,0,1
 898 868 898 868 869.5 671.5 c 128,-1,2
 841 475 841 475 797 389 c 1,3,-1
 799 349 l 1,4,5
 799 316 799 316 780 296 c 1,6,7
 780 242 780 242 757.5 160.5 c 128,-1,8
 735 79 735 79 707 43 c 1,9,-1
 707 19 l 1,10,-1
 726 19 l 1,11,12
 707 4 707 4 702 -25.5 c 128,-1,13
 697 -55 697 -55 697.5 -81 c 128,-1,14
 698 -107 698 -107 676 -134.5 c 128,-1,15
 654 -162 654 -162 604 -176 c 1,16,-1
 588 -130 l 1,17,18
 595 -121 595 -121 604 -103 c 128,-1,19
 613 -85 613 -85 624 -73 c 1,20,21
 594 -73 594 -73 581 -84 c 128,-1,22
 568 -95 568 -95 566 -108.5 c 128,-1,23
 564 -122 564 -122 548 -133 c 128,-1,24
 532 -144 532 -144 498 -144 c 1,25,-1
 484 -122 l 1,26,-1
 460 -122 l 1,27,-1
 435 -111 l 1,28,-1
 444 -81 l 1,29,-1
 421 -107 l 1,30,-1
 421 -109 l 1,31,-1
 407 -130 l 1,32,33
 377 -117 377 -117 377 -73 c 0,34,35
 377 -52 377 -52 358.5 -11 c 128,-1,36
 340 30 340 30 340 43 c 0,37,38
 340 172 340 172 303 274 c 1,39,-1
 321 296 l 1,40,41
 293 296 293 296 283 343.5 c 128,-1,42
 273 391 273 391 272 454 c 128,-1,43
 271 517 271 517 268 528 c 0,44,45
 239 626 239 626 231.5 758.5 c 128,-1,46
 224 891 224 891 219.5 1029 c 128,-1,47
 215 1167 215 1167 193 1261 c 1,48,-1
 173 1238 l 1,49,-1
 173 1330 l 1,50,51
 131 1390 131 1390 75.5 1430 c 128,-1,52
 20 1470 20 1470 -32 1470 c 1,53,54
 -6 1473 -6 1473 129.5 1485.5 c 128,-1,55
 265 1498 265 1498 377 1509.5 c 128,-1,56
 489 1521 489 1521 498 1525 c 1,57,-1
 528 1482 l 1,58,-1
 498 1500 l 1,59,60
 478 1476 478 1476 478 1421 c 2,61,-1
 478 1385 l 1,62,-1
 498 1395 l 1,63,-1
 498 1380 l 1,64,-1
 485 1362 l 1,65,66
 493 1305 493 1305 515 1291 c 1,67,-1
 498 1269 l 1,68,-1
 498 1222 l 2,69,70
 498 1152 498 1152 514 1017.5 c 128,-1,71
 530 883 530 883 533 835 c 1,72,-1
 515 854 l 1,73,74
 515 784 515 784 524 645.5 c 128,-1,75
 533 507 533 507 533 437 c 1,76,-1
 569 551 l 1,77,-1
 551 574 l 1,78,79
 556 584 556 584 626 1003.5 c 128,-1,80
 696 1423 696 1423 696 1431 c 1,81,-1
 716 1470 l 1,82,-1
 713 1500 l 1,83,-1
 696 1500 l 1,84,-1
 696 1525 l 1,85,-1
 730 1500 l 1,86,-1
 751 1525 l 1,87,88
 778 1498 778 1498 1020 1498 c 2,89,-1
 1107 1498 l 2,90,91
 1124 1498 1124 1498 1154 1496.5 c 128,-1,92
 1184 1495 1184 1495 1201 1495 c 1,93,94
 1158 1490 1158 1490 1112 1429 c 128,-1,95
 1066 1368 1066 1368 1030.5 1280.5 c 128,-1,96
 995 1193 995 1193 969 1105 c 128,-1,97
 943 1017 943 1017 930 945 c 1,98,-1
 930 944 l 1,0,1
EndSplineSet
EndChar

StartChar: W
Encoding: 87 87 60
Width: 1593
GlyphClass: 2
Flags: W
LayerCount: 2
Fore
SplineSet
1098 1498 m 1,0,-1
 1079 1522 l 1,1,-1
 1098 1505 l 1,2,-1
 1098 1522 l 1,3,-1
 1116 1546 l 1,4,-1
 1135 1522 l 1,5,-1
 1135 1498 l 1,6,7
 1139 1497 1139 1497 1151 1497 c 0,8,9
 1188 1497 1188 1497 1224 1522 c 1,10,-1
 1224 1498 l 1,11,12
 1281 1498 1281 1498 1341 1481.5 c 128,-1,13
 1401 1465 1401 1465 1490.5 1429 c 128,-1,14
 1580 1393 1580 1393 1611 1383 c 1,15,-1
 1550 1358 l 1,16,-1
 1550 1354 l 1,17,-1
 1532 1358 l 1,18,19
 1504 1351 1504 1351 1483.5 1338.5 c 128,-1,20
 1463 1326 1463 1326 1453.5 1317 c 128,-1,21
 1444 1308 1444 1308 1423 1282 c 128,-1,22
 1402 1256 1402 1256 1390 1243 c 1,23,-1
 1390 1221 l 1,24,-1
 1372 1197 l 1,25,-1
 1386 1197 l 1,26,27
 1342 1180 1342 1180 1301 1095 c 128,-1,28
 1260 1010 1260 1010 1218.5 879.5 c 128,-1,29
 1177 749 1177 749 1171 735 c 1,30,-1
 1211 712 l 1,31,-1
 1203 712 l 1,32,33
 1181 636 1181 636 1154.5 519 c 128,-1,34
 1128 402 1128 402 1128 355 c 0,35,36
 1128 344 1128 344 1130 340 c 1,37,-1
 1109 340 l 1,38,-1
 1130 317 l 1,39,-1
 1109 294 l 1,40,-1
 1091 294 l 1,41,42
 1086 276 1086 276 1071.5 226.5 c 128,-1,43
 1057 177 1057 177 1051 153.5 c 128,-1,44
 1045 130 1045 130 1038.5 91 c 128,-1,45
 1032 52 1032 52 1032 16 c 0,46,47
 1032 9 1032 9 1021 -5 c 128,-1,48
 1010 -19 1010 -19 1010 -26 c 1,49,-1
 997 -16 l 1,50,51
 1005 -8 1005 -8 1010 -7 c 1,52,53
 995 -7 995 -7 983 0 c 1,54,-1
 970 16 l 1,55,-1
 977 0 l 1,56,57
 968 4 968 4 947 15 c 128,-1,58
 926 26 926 26 908 32 c 128,-1,59
 890 38 890 38 870 38 c 1,60,61
 874 34 874 34 874 31 c 0,62,63
 874 25 874 25 868.5 19 c 128,-1,64
 863 13 863 13 857 13 c 0,65,66
 853 13 853 13 850 16 c 1,67,-1
 850 3 l 1,68,-1
 831 -8 l 1,69,70
 831 0 831 0 830.5 15.5 c 128,-1,71
 830 31 830 31 830 38 c 1,72,73
 850 64 850 64 850 118 c 0,74,75
 850 173 850 173 831 293 c 128,-1,76
 812 413 812 413 812 472 c 0,77,78
 812 481 812 481 803 512 c 128,-1,79
 794 543 794 543 793 548 c 1,80,81
 793 488 793 488 774 374 c 128,-1,82
 755 260 755 260 755 201 c 1,83,-1
 738 201 l 1,84,85
 738 196 738 196 737 189 c 128,-1,86
 736 182 736 182 736 178 c 0,87,88
 736 143 736 143 746.5 69.5 c 128,-1,89
 757 -4 757 -4 758 -33 c 1,90,-1
 755 -16 l 1,91,-1
 738 -38 l 1,92,93
 724 -38 724 -38 720 -20 c 0,94,95
 720 -17 720 -17 719 -11 c 128,-1,96
 718 -5 718 -5 718 -4 c 2,97,-1
 718 0 l 1,98,99
 710 28 710 28 701 38 c 1,100,-1
 683 38 l 1,101,102
 682 30 682 30 682 13 c 1,103,104
 680 17 680 17 672.5 24.5 c 128,-1,105
 665 32 665 32 665 38 c 1,106,-1
 628 85 l 1,107,108
 620 66 620 66 612 16 c 1,109,110
 595 39 595 39 549 198 c 128,-1,111
 503 357 503 357 503 387 c 1,112,-1
 484 387 l 1,113,-1
 503 409 l 1,114,115
 483 457 483 457 468 537 c 128,-1,116
 453 617 453 617 433.5 686 c 128,-1,117
 414 755 414 755 376 803 c 1,118,-1
 358 803 l 1,119,-1
 376 827 l 1,120,-1
 342 874 l 1,121,-1
 322 874 l 1,122,123
 322 908 322 908 313 977 c 128,-1,124
 304 1046 304 1046 304 1081 c 1,125,-1
 286 1104 l 1,126,127
 292 1110 292 1110 292 1115 c 0,128,129
 292 1121 292 1121 278 1127.5 c 128,-1,130
 264 1134 264 1134 264 1140 c 0,131,132
 264 1147 264 1147 269 1152 c 1,133,-1
 236 1152 l 1,134,-1
 250 1174 l 1,135,-1
 232 1197 l 1,136,-1
 211 1197 l 1,137,-1
 232 1221 l 1,138,139
 210 1246 210 1246 152.5 1278.5 c 128,-1,140
 95 1311 95 1311 72 1336 c 1,141,-1
 49 1336 l 2,142,143
 9 1336 9 1336 -7 1358 c 1,144,145
 0 1359 0 1359 93.5 1387.5 c 128,-1,146
 187 1416 187 1416 272.5 1439 c 128,-1,147
 358 1462 358 1462 358 1454 c 1,148,149
 358 1469 358 1469 371 1474 c 128,-1,150
 384 1479 384 1479 401 1478 c 128,-1,151
 418 1477 418 1477 437.5 1481 c 128,-1,152
 457 1485 457 1485 468 1498 c 1,153,-1
 503 1452 l 1,154,-1
 520 1474 l 1,155,-1
 539 1474 l 1,156,-1
 520 1498 l 1,157,-1
 539 1498 l 1,158,-1
 557 1474 l 1,159,-1
 557 1464 l 2,160,161
 557 1406 557 1406 574 1383 c 1,162,-1
 557 1387 l 1,163,-1
 557 1313 l 1,164,-1
 574 1313 l 1,165,166
 574 1294 574 1294 573.5 1272.5 c 128,-1,167
 573 1251 573 1251 573 1247 c 0,168,169
 573 1214 573 1214 593 1152 c 1,170,-1
 592 1132 l 1,171,172
 592 1060 592 1060 628 944 c 1,173,174
 628 1073 628 1073 683 1313 c 1,175,-1
 665 1313 l 1,176,177
 689 1325 689 1325 720 1474 c 1,178,-1
 710 1482 l 1,179,-1
 720 1498 l 1,180,-1
 720 1488 l 1,181,-1
 738 1522 l 1,182,-1
 720 1522 l 1,183,-1
 738 1546 l 1,184,-1
 912 1546 l 1,185,-1
 899 1498 l 1,186,187
 919 1474 919 1474 919 1418 c 2,188,-1
 919 1383 l 1,189,190
 928 1372 928 1372 942 1305 c 128,-1,191
 956 1238 956 1238 970.5 1157.5 c 128,-1,192
 985 1077 985 1077 990 1058 c 1,193,194
 996 1075 996 1075 1008.5 1118.5 c 128,-1,195
 1021 1162 1021 1162 1033 1191.5 c 128,-1,196
 1045 1221 1045 1221 1063 1243 c 1,197,-1
 1045 1267 l 1,198,-1
 1045 1291 l 1,199,200
 1102 1358 1102 1358 1102 1441 c 0,201,202
 1102 1454 1102 1454 1098 1498 c 1,0,-1
EndSplineSet
EndChar

StartChar: X
Encoding: 88 88 61
Width: 1203
GlyphClass: 2
Flags: W
LayerCount: 2
Fore
SplineSet
422 758 m 1,0,-1
 422 803 l 2,1,2
 422 831 422 831 413 885.5 c 128,-1,3
 404 940 404 940 404 967 c 1,4,5
 390 990 390 990 360 1066.5 c 128,-1,6
 330 1143 330 1143 296 1174 c 1,7,8
 295 1203 295 1203 280.5 1231.5 c 128,-1,9
 266 1260 266 1260 238.5 1286 c 128,-1,10
 211 1312 211 1312 187.5 1331 c 128,-1,11
 164 1350 164 1350 129.5 1374 c 128,-1,12
 95 1398 95 1398 82 1408 c 1,13,-1
 61 1408 l 2,14,15
 3 1408 3 1408 -17 1429 c 1,16,17
 38 1429 38 1429 142 1452.5 c 128,-1,18
 246 1476 246 1476 296 1476 c 1,19,-1
 296 1498 l 1,20,-1
 386 1495 l 1,21,22
 450 1490 450 1490 475 1522 c 1,23,-1
 475 1498 l 1,24,-1
 462 1498 l 1,25,-1
 511 1476 l 1,26,-1
 530 1498 l 1,27,-1
 530 1476 l 1,28,-1
 601 1408 l 1,29,-1
 566 1408 l 1,30,-1
 566 1360 l 1,31,32
 584 1338 584 1338 584 1298 c 2,33,-1
 584 1267 l 1,34,35
 614 1215 614 1215 623 1180 c 1,36,37
 638 1210 638 1210 674.5 1313.5 c 128,-1,38
 711 1417 711 1417 711 1449 c 2,39,-1
 711 1452 l 1,40,-1
 692 1452 l 1,41,-1
 692 1476 l 1,42,-1
 674 1476 l 1,43,-1
 674 1498 l 1,44,-1
 692 1510 l 1,45,-1
 692 1498 l 1,46,47
 768 1498 768 1498 976.5 1457.5 c 128,-1,48
 1185 1417 1185 1417 1221 1383 c 1,49,-1
 1236 1383 l 1,50,51
 962 1305 962 1305 891 1130 c 1,52,-1
 910 1130 l 1,53,-1
 910 1104 l 1,54,-1
 891 1130 l 1,55,56
 862 1063 862 1063 848.5 966 c 128,-1,57
 835 869 835 869 819 777.5 c 128,-1,58
 803 686 803 686 766 620 c 1,59,-1
 782 596 l 1,60,-1
 782 549 l 1,61,-1
 766 549 l 1,62,-1
 766 526 l 1,63,64
 771 531 771 531 774 531 c 0,65,66
 782 531 782 531 782 515 c 0,67,68
 782 498 782 498 774 498 c 0,69,70
 771 498 771 498 766 505 c 1,71,72
 766 462 766 462 783.5 379.5 c 128,-1,73
 801 297 801 297 801 261 c 2,74,-1
 801 250 l 1,75,76
 843 195 843 195 869 54 c 128,-1,77
 895 -87 895 -87 910 -124 c 1,78,-1
 891 -124 l 1,79,-1
 874 -99 l 1,80,-1
 874 -76 l 1,81,82
 864 -64 864 -64 849.5 -59 c 128,-1,83
 835 -54 835 -54 827.5 -53.5 c 128,-1,84
 820 -53 820 -53 801 -53 c 1,85,-1
 782 -28 l 1,86,-1
 728 -28 l 1,87,-1
 711 -53 l 1,88,-1
 655 -53 l 1,89,90
 655 126 655 126 601 272 c 1,91,-1
 601 182 l 1,92,93
 565 182 565 182 565 26 c 0,94,95
 565 -14 565 -14 567.5 -28 c 128,-1,96
 570 -42 570 -42 584 -76 c 1,97,-1
 548 -28 l 1,98,-1
 530 -28 l 1,99,-1
 530 -58 l 1,100,-1
 495 -53 l 1,101,-1
 475 -76 l 1,102,-1
 459 -76 l 1,103,-1
 440 -53 l 1,104,-1
 404 -99 l 1,105,-1
 386 -99 l 1,106,-1
 386 -124 l 1,107,-1
 369 -124 l 1,108,-1
 369 -76 l 1,109,-1
 349 -99 l 1,110,-1
 331 -76 l 1,111,-1
 331 -28 l 1,112,-1
 369 41 l 1,113,114
 372 81 372 81 396 128 c 1,115,-1
 386 132 l 1,116,-1
 386 156 l 1,117,118
 408 185 408 185 414 233 c 128,-1,119
 420 281 420 281 422.5 324.5 c 128,-1,120
 425 368 425 368 440 387 c 1,121,-1
 422 387 l 1,122,-1
 440 409 l 1,123,-1
 440 456 l 1,124,-1
 475 526 l 1,125,126
 475 552 475 552 458 574.5 c 128,-1,127
 441 597 441 597 440 610 c 1,128,-1
 436 608 l 1,129,-1
 422 620 l 1,130,-1
 440 620 l 1,131,132
 407 775 407 775 404 793 c 1,133,-1
 422 758 l 1,0,-1
EndSplineSet
EndChar

StartChar: Y
Encoding: 89 89 62
Width: 1411
GlyphClass: 2
Flags: W
LayerCount: 2
Fore
SplineSet
1450 1373 m 1,0,-1
 1446 1346 l 1,1,2
 1381 1346 1381 1346 1318 1312.5 c 128,-1,3
 1255 1279 1255 1279 1217 1222 c 1,4,-1
 1221 1219 l 1,5,6
 1221 1214 1221 1214 1210 1205 c 128,-1,7
 1199 1196 1199 1196 1188 1190.5 c 128,-1,8
 1177 1185 1177 1185 1177 1186 c 1,9,10
 1171 1175 1171 1175 1139 1135 c 128,-1,11
 1107 1095 1107 1095 1079 1059.5 c 128,-1,12
 1051 1024 1051 1024 1051 1023 c 0,13,14
 1029 948 1029 948 1004.5 678.5 c 128,-1,15
 980 409 980 409 980 304 c 0,16,17
 980 196 980 196 967.5 71.5 c 128,-1,18
 955 -53 955 -53 931 -53 c 0,19,20
 930 -53 930 -53 925 -48 c 1,21,-1
 926 -46 l 1,22,23
 926 -23 926 -23 907 -18 c 1,24,25
 889 -39 889 -39 850.5 -51 c 128,-1,26
 812 -63 812 -63 776 -65 c 1,27,-1
 764 -94 l 1,28,-1
 745 -70 l 1,29,30
 737 -11 737 -11 727 132 c 128,-1,31
 717 275 717 275 707 378.5 c 128,-1,32
 697 482 697 482 665 602 c 128,-1,33
 633 722 633 722 583 791 c 1,34,35
 583 857 583 857 533 953 c 128,-1,36
 483 1049 483 1049 474 1092 c 1,37,-1
 493 1092 l 1,38,39
 460 1097 460 1097 424.5 1137 c 128,-1,40
 389 1177 389 1177 366 1186 c 1,41,-1
 366 1231 l 1,42,43
 364 1226 364 1226 359 1226 c 128,-1,44
 354 1226 354 1226 349.5 1233 c 128,-1,45
 345 1240 345 1240 345 1247 c 0,46,47
 345 1251 345 1251 349 1255 c 1,48,49
 336 1263 336 1263 251 1319.5 c 128,-1,50
 166 1376 166 1376 102.5 1408.5 c 128,-1,51
 39 1441 39 1441 -2 1441 c 1,52,-1
 -2 1462 l 1,53,-1
 18 1441 l 1,54,55
 25 1443 25 1443 51.5 1450 c 128,-1,56
 78 1457 78 1457 87.5 1459.5 c 128,-1,57
 97 1462 97 1462 120 1467.5 c 128,-1,58
 143 1473 143 1473 156 1475 c 128,-1,59
 169 1477 169 1477 188.5 1480.5 c 128,-1,60
 208 1484 208 1484 225 1485 c 128,-1,61
 242 1486 242 1486 259 1486 c 1,62,-1
 259 1508 l 1,63,64
 276 1508 276 1508 305 1497.5 c 128,-1,65
 334 1487 334 1487 349 1486 c 1,66,-1
 366 1508 l 1,67,-1
 583 1508 l 1,68,-1
 583 1486 l 1,69,70
 591 1477 591 1477 614 1433 c 128,-1,71
 637 1389 637 1389 637 1373 c 2,72,-1
 637 1371 l 1,73,-1
 655 1346 l 1,74,75
 657 1350 657 1350 662 1350 c 128,-1,76
 667 1350 667 1350 671.5 1344 c 128,-1,77
 676 1338 676 1338 676 1332 c 0,78,79
 676 1327 676 1327 673 1324 c 1,80,-1
 764 1140 l 1,81,-1
 871 1371 l 1,82,-1
 853 1393 l 1,83,-1
 853 1418 l 1,84,-1
 871 1418 l 1,85,86
 871 1438 871 1438 880.5 1475 c 128,-1,87
 890 1512 890 1512 890 1533 c 1,88,89
 905 1508 905 1508 939 1508 c 2,90,-1
 961 1508 l 1,91,92
 985 1478 985 1478 1025.5 1471.5 c 128,-1,93
 1066 1465 1066 1465 1104 1462.5 c 128,-1,94
 1142 1460 1142 1460 1160 1441 c 1,95,-1
 1256 1441 l 1,96,97
 1256 1427 1256 1427 1280.5 1414 c 128,-1,98
 1305 1401 1305 1401 1341.5 1392.5 c 128,-1,99
 1378 1384 1378 1384 1404 1379.5 c 128,-1,100
 1430 1375 1430 1375 1450 1373 c 1,0,-1
EndSplineSet
EndChar

